<ttFont>
          <CharString index="0">
            48 1 -53 callgsubr
            1157 hintmask 00000000
            hintmask 10110000
            -29 callgsubr
            -53 90 -43 -42 callgsubr
            -22 37 hhcurveto
            108 -21 callsubr
            173 68 hvcurveto
            -66 callsubr
            -1 -10 -1 -9 -9 vvcurveto
            -67 30 -22 22 -24 vhcurveto
            -60 55 77 -40 63 hhcurveto
            116 100 140 159 69 hvcurveto
            -85 121 -92 callsubr
            -118 -255 -75 -73 rrcurveto
            hintmask 11010000
            -30 14 rlineto
            39 182 12 178 196 vvcurveto
            86 -3 83 -7 74 vhcurveto
            11 -23 -37 6 -44 hhcurveto
            -122 -172 -50 -137 -55 hvcurveto
            155 -431 rlineto
            return
          </CharString>
          <CharString index="1">
            hintmask 00000000
            hintmask 01010100
            130 146 rmoveto
            1 -53 83 -28 49 -35 rrcurveto
            hintmask 01100100
            40 -28 35 -24 36 2 18 1 18 7 20 16 94 82 111 269 55 141 rrcurveto
            hintmask 01010100
            -66 callsubr
            -9 -89 34 -25 25 -27 55 -59 78 -42 62 1 116 2 100 137 69 160 -85 121 rcurveline
            -173 -92 99 234 81 455 -81 callsubr
            -79 119 -107 74 rrcurveto
            hintmask 10010100
            -39 -5 -201 -37 -122 -157 rrcurveto
            -18 -25 -7 -14 -16 vvcurveto
            -13 4 -15 8 -27 vhcurveto
            49 -157 24 -260 3 -158 rrcurveto
            1 -54 -4 -91 -28 vvcurveto
            301 206 rmoveto
            24 121 14 117 -3 122 -1 107 rcurveline
            64 -15 70 -11 80 -20 rrcurveto
            -84 1 44 -3 -40 vhcurveto
            -33 -70 -109 -212 -74 -73 rrcurveto
            hintmask 00001010
            return
          </CharString>
          <CharString index="2">
            185 -26 callgsubr
            89 -80 277 -79 148 -30 callsubr
            92 47 62 32 95 42 15 58 rrcurveto
            38 135 50 516 219 8 callsubr
            -95 -352 113 -98 hhcurveto
            -69 -346 -68 callgsubr
            46 -493 37 -239 vhcurveto
            315 184 rmoveto
            -10 113 -4 168 174 vvcurveto
            149 4 150 7 89 vhcurveto
            69 35 211 -91 rlineto
            12 -127 8 -209 -196 vvcurveto
            -120 -3 -112 -8 -74 vhcurveto
            -61 -42 -70 15 -100 46 -55 32 rlinecurve
            return
          </CharString>
          <CharString index="3">
            126 136 rmoveto
            73 -73 240 -71 133 -12 65 7 60 22 85 43 57 29 82 49 25 30 rrcurveto
            34 124 43 276 199 vvcurveto
            112 -3 56 -13 60 vhcurveto
            -88 105 -226 96 -167 16 -102 -14 -285 -110 -59 -74 -42 -276 40 -289 48 -305 rrcurveto
            302 156 rmoveto
            -10 101 -4 101 99 vvcurveto
            81 4 80 8 80 vhcurveto
            60 29 154 -63 rlineto
            12 -115 5 -104 -101 vvcurveto
            -75 -1 -74 -7 -73 vhcurveto
            -55 -38 -70 15 -55 30 -41 27 rlinecurve
            return
          </CharString>
          <CharString index="4">
            83 36 107 89 39 92 rrcurveto
            169 -36 -178 48 -123 hhcurveto
            -31 -101 -21 -46 -57 -142 18 -61 102 -78 97 -6 rrcurveto
            endchar
          </CharString>
          <CharString index="5">
            253 80 rmoveto
            101 -98 349 -8 123 102 -15 88 -20 59 -23 49 130 518 rcurveline
            142 -492 -27 -57 -27 -68 -10 -93 rlinecurve
            101 -98 349 -8 123 102 -15 86 -20 59 -22 48 303 896 rcurveline
            -6 152 -59 143 -109 90 -144 -18 -194 -97 -65 -155 50 -110 86 -55 67 -59 -99 -683 rcurveline
            -17 hlineto
            -17 286 -148 411 -11 65 rrcurveto
            0 0 -11 callsubr
            vhcurveto
            -5 154 -59 179 -85 77 -144 -18 -167 -88 -94 -7 callgsubr
            -57 67 -59 -159 -687 rcurveline
            -7 hlineto
            -17 291 -119 759 -27 57 rrcurveto
            -1 hlineto
            -43 51 -60 21 -61 -2 -125 -3 -149 -117 -49 -103 173 -230 rcurveline
            3 -11 207 -795 -26 -55 -25 -67 -10 -89 rlinecurve
            return
          </CharString>
          <CharString index="6">
            rmoveto
            55 31 56 66 60 69 81 -62 85 -71 89 -33 67 17 58 83 18 45 -208 249 rcurveline
            3 -15 -19 1 -19 hhcurveto
            -89 -143 -26 -34 -38 hvcurveto
            -57 -92 -38 -44 -84 -80 27 -49 49 -44 65 -29 rrcurveto
            endchar
          </CharString>
          <CharString index="7">
            -18 27 29 -13 31 hhcurveto
            128 129 243 124 54 hvcurveto
            24 -11 -14 -119 -16 -82 -6 -87 rlinecurve
            50 -50 87 -17 83 -1 rrcurveto
            56 63 22 21 30 hvcurveto
            -64 476 98 221 rlineto
            84 -69 -85 38 -123 hhcurveto
            -77 -68 -15 -12 -23 hvcurveto
            -37 7 -123 54 -158 vhcurveto
            -73 -62 -170 -155 -49 2 rrcurveto
            -3 hlineto
            1 38 23 196 35 460 -18 194 rlinecurve
            24 22 100 -89 180 -74 91 -19 rlinecurve
            55 27 128 190 -54 254 -343 -31 rcurveline
            -62 32 -199 58 -61 9 -119 -44 -142 -125 -25 -94 rrcurveto
            -15 6 -66 4 -34 vhcurveto
            14 -123 21 -218 14 -217 11 -161 8 -157 5 -103 5 -33 16 -28 46 -36 rrcurveto
            return
          </CharString>
          <CharString index="8">
            hintmask 00000000
            hintmask 01101000
            273 47 rmoveto
            -44 48 105 -23 100 hhcurveto
            96 92 21 42 26 hvcurveto
            41 -4 35 -11 31 vhcurveto
            42 102 36 123 33 114 65 -233 rcurveline
            -16 -43 -14 -53 -7 -113 rrcurveto
            -44 49 103 -24 106 hhcurveto
            101 102 21 44 50 hvcurveto
            -17 78 -21 53 -24 44 129 231 123 288 39 92 -11 135 -66 160 -98 79 -128 -16 -160 -119 -48 -137 47 -97 61 -45 62 -51 -13 -104 -48 -194 -49 -135 rrcurveto
            -15 hlineto
            -14 144 -45 213 -40 166 2 1 rcurveline
            -11 135 -66 160 -98 79 -128 -16 -160 -119 -48 -137 47 -97 61 -45 62 -51 -13 -104 -48 -196 -47 -135 rrcurveto
            hintmask 10101000
            -13 1 -30 253 -99 466 -10 69 rlinecurve
            59 -32 -69 27 -74 hhcurveto
            -112 -148 -101 -110 hvcurveto
            154 -275 153 -410 rlineto
            hintmask 01101000
            -21 -51 -8 -48 -10 -137 rrcurveto
            hintmask 00010100
            return
          </CharString>
          <CharString index="9">
            133 62 rmoveto
            -50 53 86 0 callgsubr
            -25 212 -34 163 78 906 rcurveline
            -90 callgsubr
            return
          </CharString>
          <CharString index="10">
            374 228 rmoveto
            -155 2 156 -93 141 hhcurveto
            131 189 138 118 51 hvcurveto
            -75 146 -65 -27 -126 -40 -55 -8 rlinecurve
            -31 191 136 76 146 165 137 287 54 139 rlinecurve
            -6 152 -50 142 -109 90 -144 -18 -180 -68 -65 -7 callgsubr
            -61 67 -59 -153 -438 rcurveline
            -45 hlineto
            -133 840 -53 37 -62 13 -72 -1 rlinecurve
            -64 -1 -192 -34 -9 -225 120 -138 rcurveline
            142 -510 149 -116 -10 -82 -29 -80 2 -115 rlinecurve
            return
          </CharString>
          <CharString index="11">
            rmoveto
            80 58 39 44 62 87 100 -89 68 -47 97 -53 67 17 58 83 18 45 -231 312 rcurveline
            -86 15 -166 -30 -47 -41 -57 -92 -54 -96 -89 -91 27 -49 49 -44 65 -29 rrcurveto
            endchar
          </CharString>
          <CharString index="12">
            rmoveto
            122 -22 233 52 149 79 -10 101 -63 116 -107 65 -129 -90 -88 -59 -171 -85 9 -64 21 -56 34 -37 rrcurveto
            endchar
          </CharString>
          <CharString index="13">
            rmoveto
            135 27 201 95 88 77 -1 113 -96 132 -118 41 -111 -130 -72 -94 -125 -106 24 -66 43 -62 32 -27 rrcurveto
            endchar
          </CharString>
          <CharString index="14">
            206 -20 rmoveto
            118 86 118 120 38 hvcurveto
            -111 132 187 -127 145 hhcurveto
            202 47 201 188 107 -15 103 -17 46 hvcurveto
            -184 24 -95 -289 -309 58 rlineto
            1 vlineto
            138 184 265 408 67 109 123 -4 rcurveline
            74 158 -25 238 -153 37 -90 -20 -62 -53 -52 -53 -144 53 -180 53 -146 20 -42 2 -226 -86 -23 -114 -31 -165 78 -258 74 -81 185 40 rcurveline
            45 303 237 -36 -365 -685 -41 22 -42 12 -37 8 rlinecurve
            -40 -22 -55 -50 -43 -58 -10 -130 90 -211 96 -60 rrcurveto
            return
          </CharString>
          <CharString index="15">
            -173 -92 rlineto
            94 223 78 425 94 vvcurveto
            11 vlineto
            -78 callsubr
            -72 24 -286 vhcurveto
            -20 -75 return
          </CharString>
          <CharString index="16">
            197 28 rmoveto
            -40 43 65 -8 64 hhcurveto
            126 118 56 128 81 hvcurveto
            -57 134 -183 -24 48 179 56 224 41 119 rlinecurve
            49 -8 2 -85 -1 -152 -1 -61 rlinecurve
            88 -21 87 -5 95 53 33 131 47 251 -28 197 -55 37 -108 48 -136 -1 rrcurveto
            -39 -42 -4 -10 -43 hvcurveto
            -69 -150 -39 -349 -27 -122 -11 2 rcurveline
            7 602 rlineto
            21 -43 -51 10 -51 hhcurveto
            -100 -102 -40 -77 -53 hvcurveto
            179 -608 -80 -198 -34 -84 94 -117 30 -28 rlinecurve
            return
          </CharString>
          <CharString index="17">
            67 142 rmoveto
            -99 47 113 -63 119 hhcurveto
            153 59 98 125 15 -1 15 -1 15 hvcurveto
            -27 259 -148 562 -30 99 5 2 rcurveline
            437 -925 rlineto
            -18 -38 -8 -66 -48 vvcurveto
            -18 1 -15 2 -11 vhcurveto
            -47 59 130 -23 90 hhcurveto
            119 104 45 107 44 hvcurveto
            -17 97 -38 55 -53 65 86 1138 rcurveline
            28 -41 -74 15 -53 hhcurveto
            return
          </CharString>
          <CharString index="18">
            rmoveto
            52 -11 155 10 49 9 259 266 rcurveline
            -23 47 -68 63 -50 22 -92 -66 -44 -49 -69 -101 -168 198 rcurveline
            -91 7 -131 -132 -4 -73 rrcurveto
            endchar
          </CharString>
          <CharString index="19">
            -68 -389 142 -57 85 74 175 192 50 93 rlinecurve
            -50 86 -220 14 -114 -13 rrcurveto
            endchar
          </CharString>
          <CharString index="20">
            39 -112 94 -72 104 -45 90 30 173 123 31 132 -68 95 -106 93 -128 36 -51 -34 -162 -197 -16 -49 rrcurveto
            return
          </CharString>
          <CharString index="21">
            -21 -60 -15 -40 2 -76 33 -46 65 -82 119 -22 115 7 154 103 19 114 10 243 -17 402 -19 361 45 -24 88 return
          </CharString>
          <CharString index="22">
            rmoveto
            151 131 rlineto
            -53 69 153 -87 78 hhcurveto
            142 126 199 109 24 hvcurveto
            -99 92 -142 -125 rlineto
            32 -74 -138 108 -88 hhcurveto
            -142 -135 -205 -109 -24 hvcurveto
            endchar
          </CharString>
          <CharString index="23">
            116 146 rmoveto
            -53 82 -28 -42 callgsubr
            -21 37 hhcurveto
            109 -21 callsubr
            172 67 hvcurveto
            15 -4 11 -78 -9 -103 -6 -84 rlinecurve
            -3 -36 14 -27 96 -82 rrcurveto
            -59 69 41 -43 45 -34 callsubr
            rrcurveto
            14 28 7 45 46 vvcurveto
            127 -24 15 -18 7 vhcurveto
            -63 23 -46 14 -66 35 rrcurveto
            41 -76 -85 73 -54 hhcurveto
            -73 -123 -60 -35 -61 hvcurveto
            -109 -63 -7 -99 -17 -60 -52 86 -98 150 -85 60 -39 -5 -203 -37 -123 -157 rrcurveto
            -20 -25 -6 -14 -16 vvcurveto
            -13 3 -15 8 -27 vhcurveto
            46 -157 20 -260 -158 -54 -6 -91 -28 vvcurveto
            893 271 rmoveto
            1 -11 callsubr
            vvcurveto
            13 101 10 274 56 vvcurveto
            91 -29 68 -20 35 -8 -58 -136 -114 -173 -46 -68 rrcurveto
            -589 -65 rmoveto
            26 121 16 117 122 vvcurveto
            107 vlineto
            69 -7 61 -19 80 -20 rrcurveto
            -53 vlineto
            -9 0 6 -2 -24 9 callgsubr
            return
          </CharString>
          <CharString index="24">
            rmoveto
            32 27 43 62 24 66 -125 106 -72 94 -111 130 -118 -41 -96 -132 -1 -113 88 -77 201 -95 135 -27 rrcurveto
            endchar
          </CharString>
          <CharString index="25">
            rmoveto
            52 -11 108 -2 49 9 286 304 rcurveline
            -23 47 -58 63 -50 22 -96 -66 -38 -47 -84 -103 -145 198 rcurveline
            -91 7 -157 -153 -4 -73 rrcurveto
            endchar
          </CharString>
          <CharString index="26">
            -8 64 rlinecurve
            -92 callgsubr
            6 -96 2 -118 vhcurveto
            -60 103 return
          </CharString>
          <CharString index="27">
            87 291 43 864 -9 61 rlinecurve
            66 -71 -103 23 -92 hhcurveto
            -96 -84 -26 -28 -23 hvcurveto
            3 -40 58 -411 17 -198 -5 -2 rcurveline
            -62 103 -71 119 -108 74 -39 -5 -201 -37 -121 -157 rrcurveto
            -19 -25 -6 -14 -16 vvcurveto
            -13 4 -15 8 -27 vhcurveto
            76 -261 -7 -262 4 -225 rrcurveto
            300 206 rmoveto
            24 121 14 117 -2 122 -2 107 rcurveline
            64 -15 67 -11 80 -20 1 -84 1 44 -3 -40 -32 -70 -108 -212 -74 -73 rrcurveto
            return
          </CharString>
          <CharString index="28">
            -54 callgsubr
            -21 callgsubr
            hintmask 00000000
            hintmask 01011000
            130 146 rmoveto
            1 -53 83 -28 49 -35 rrcurveto
            hintmask 01101000
            40 -28 35 -24 36 2 18 1 18 7 20 16 94 82 111 269 55 141 rrcurveto
            hintmask 01011000
            -66 callsubr
            -9 -89 34 -25 25 -27 55 -59 78 -42 62 1 116 2 100 137 69 160 -85 121 rcurveline
            -173 -92 99 234 81 455 -81 callsubr
            -79 119 -107 74 rrcurveto
            hintmask 10011000
            -39 -5 -201 -37 -122 -157 rrcurveto
            -18 -25 -7 -14 -16 vvcurveto
            -13 4 -15 8 -27 vhcurveto
            49 -157 24 -260 3 -158 rrcurveto
            1 -54 -4 -91 -28 vvcurveto
            301 206 rmoveto
            24 121 14 117 -3 122 -1 107 rcurveline
            64 -15 70 -11 80 -20 rrcurveto
            -84 1 44 -3 -40 vhcurveto
            -33 -70 -109 -212 -74 -73 rrcurveto
            return
          </CharString>
          <CharString index="29">
            -92 callgsubr
            5 return
          </CharString>
          <CharString index="30">
            98 -418 -21 440 -21 41 -21 1182 -20 29 -20 hstemhm
            -5 1219 hintmask 00000000
            hintmask 10101100
            360 70 rmoveto
            9 7 rlineto
            -35 50 75 -42 16 hhcurveto
            58 1 34 97 101 399 15 -7 rcurveline
            -14 -90 -10 -78 -10 -101 rrcurveto
            hintmask 11010100
            -1 -10 -1 -9 -9 vvcurveto
            -67 30 -22 22 -24 vhcurveto
            -60 55 77 -40 63 hhcurveto
            116 100 140 159 69 hvcurveto
            -85 121 -92 callsubr
            -151 -255 -71 -73 -31 14 rcurveline
            hintmask 10101100
            30 182 3 178 -11 196 -4 86 -8 83 -10 74 rrcurveto
            11 -24 -37 6 -44 hhcurveto
            -122 -170 -50 -137 -47 hvcurveto
            185 -338 rlineto
            -89 -375 -7 -483 -173 vvcurveto
            -45 51 88 -29 107 hhcurveto
            64 49 12 24 30 hvcurveto
            -13 134 -16 150 -84 189 rrcurveto
            endchar
          </CharString>
          <CharString index="31">
            6 140 rmoveto
            38 -99 110 -59 112 -2 222 -3 31 236 26 225 85 -8 102 -6 68 -4 rrcurveto
            11 hlineto
            -49 -229 15 -42 20 -42 39 -39 rlinecurve
            -46 137 308 -42 146 hhcurveto
            164 87 104 154 89 -17 91 -21 56 hvcurveto
            -180 15 -82 -190 -287 20 14 345 rlineto
            -60 107 138 -23 129 hhcurveto
            20 20 1 2 20 hvcurveto
            23 25 28 83 86 vvcurveto
            54 -11 54 -29 44 vhcurveto
            -150 -31 -93 -25 -210 -23 -17 323 rcurveline
            179 -51 148 -34 118 -14 rrcurveto
            66 50 41 100 106 vvcurveto
            92 -29 88 -66 38 vhcurveto
            -369 -94 -344 74 -38 -27 -38 -39 -29 -43 rlinecurve
            -464 129 -83 -75 -42 -165 -3 -103 rlinecurve
            49 -19 85 -16 94 -13 -172 -866 11 callgsubr
            22 201 15 203 5 93 99 -8 rcurveline
            102 -466 -81 -7 -89 -8 -73 -8 rlinecurve
            return
          </CharString>
          <CharString index="32">
            3 callgsubr
            hstemhm
            733 25 97 223 hintmask 01110000
            288 -20 rmoveto
            116 7 78 124 52 89 rrcurveto
            hintmask 10110000
            -81 callgsubr
            9 -97 8 -114 14 -133 -169 -32 rcurveline
            -15 -68 5 -52 24 -65 rrcurveto
            -3 64 61 -2 57 hhcurveto
            9 -65 11 -69 12 -73 rrcurveto
            -32 hlineto
            -34 -36 -4 -10 -27 hvcurveto
            -89 -124 rlineto
            hintmask 01110000
            -53 callsubr
            rrcurveto
            272 417 rmoveto
            12 250 69 3 50 3 26 2 rlinecurve
            45 64 12 126 -41 77 -149 -14 rcurveline
            12 272 -19 callsubr
          </CharString>
          <CharString index="33">
            rmoveto
            -90 63 166 -39 147 hhcurveto
            70 97 19 34 58 hvcurveto
            101 58 64 109 1 171 2 78 -142 75 -150 18 rrcurveto
            -8 -12 1 1 -13 hvcurveto
            70 41 94 60 91 80 rrcurveto
            6 34 3 30 27 vvcurveto
            41 -6 57 -11 35 vhcurveto
            67 -64 -255 56 -65 hhcurveto
            -17 -45 -11 -14 -43 hvcurveto
            -72 -23 -86 -36 -40 -47 rrcurveto
            -16 -29 -7 -29 -28 vvcurveto
            -48 16 -38 15 -42 vhcurveto
            2 vlineto
            10 -32 rlineto
            -16 36 30 -6 27 hhcurveto
            31 33 7 13 36 hvcurveto
            6 39 8 39 6 40 4 1 rcurveline
            180 -56 -26 -36 -64 -71 -65 -69 rlinecurve
            -99 30 -74 -28 rlineto
            -20 -33 -9 -34 -30 vvcurveto
            -82 57 -78 56 -13 vhcurveto
            47 10 64 42 36 47 64 -26 94 -39 25 -38 -5 -32 -10 -38 -12 -29 rrcurveto
            -4 -22 -21 -3 -18 hhcurveto
            -94 2 -175 25 -88 44 rrcurveto
            -41 -35 -23 -12 -46 vvcurveto
            -14 1 -46 3 -13 vhcurveto
            return
          </CharString>
          <CharString index="34">
            152 123 rmoveto
            -89 449 -57 226 37 36 2 4 36 vhcurveto
            209 76 144 217 221 vvcurveto
            38 -4 38 -9 38 vhcurveto
            -26 32 -89 23 -87 13 13 58 rcurveline
            47 217 41 261 4 189 rrcurveto
            102 -121 -161 42 -76 hhcurveto
            -58 -51 -12 -5 -21 hvcurveto
            -227 -562 -29 14 95 497 rlineto
            34 -50 -58 15 -57 hhcurveto
            -109 -108 -55 -81 -60 hvcurveto
            -1 -2 0 -4 -6 vvcurveto
            -113 79 -792 53 -106 vhcurveto
            -28 -92 -12 -41 -20 -74 rrcurveto
            -5 -17 -2 -13 -10 vvcurveto
            396 623 rmoveto
            54 119 93 194 45 92 47 -8 rcurveline
            -1 -78 -10 -187 -11 -141 -67 3 -86 4 -64 2 rrcurveto
            -83 -402 rmoveto
            6 77 10 76 13 76 400 -83 rcurveline
            3 -24 1 -21 -18 vvcurveto
            -64 -13 -46 -19 -95 vhcurveto
            -127 8 -157 47 -117 67 rrcurveto
            return
          </CharString>
          <CharString index="35">
            rmoveto
            83 36 168 202 41 119 -78 108 -88 23 -82 4 rrcurveto
            2 -37 3 -2 -38 hhcurveto
            -22 -100 -45 -155 -50 -134 24 -44 75 -50 46 -9 rrcurveto
            458 hmoveto
            83 36 163 195 45 126 -77 103 -123 26 -75 5 rrcurveto
            3 -40 29 -3 -43 hhcurveto
            -24 -107 -39 -135 -57 -142 26 -38 63 -55 69 -14 rrcurveto
            endchar
          </CharString>
          <CharString index="36">
            rmoveto
            -87 callsubr
            return
          </CharString>
          <CharString index="37">
            38 135 50 516 219 vvcurveto
            return
          </CharString>
          <CharString index="38">
            88 105 rmoveto
            46 -60 121 -59 43 -6 103 69 89 99 95 102 32 -112 55 -112 94 -29 rrcurveto
            -11 35 34 -6 32 hhcurveto
            88 -1 75 42 44 96 rrcurveto
            33 71 8 54 105 vvcurveto
            -118 91 -39 -42 -39 -31 -40 -20 rlinecurve
            -32 32 -49 54 -20 29 121 139 95 144 37 64 1 135 -81 176 -90 86 -129 -5 -173 -103 -63 -131 38 -89 52 -66 61 -50 -69 -166 -83 -179 -93 -155 -11 5 rcurveline
            47 338 57 612 -15 351 -44 35 -55 13 -59 -1 -123 -1 -136 -65 -65 -81 51 -318 39 -206 86 -280 -46 -154 -34 -209 -6 -194 rrcurveto
            return
          </CharString>
          <CharString index="39">
            223 hintmask 01001000
            288 -20 rmoveto
            116 7 78 124 52 89 rrcurveto
            hintmask 10001000
            -81 callgsubr
            17 -188 15 -250 58 -335 rrcurveto
            -32 hlineto
            -34 -36 -4 -10 -27 hvcurveto
            -89 -124 rlineto
            hintmask 01001000
            -53 callsubr
            rrcurveto
            272 417 rmoveto
            36 783 -57 callsubr
            hintmask 00110000
            return
          </CharString>
          <CharString index="40">
            133 62 rmoveto
            -50 53 86 -2 callsubr
            236 -34 163 rrcurveto
            1 vlineto
            86 -12 163 -9 99 -6 -19 -125 -21 -111 2 -117 rrcurveto
            -155 2 99 -93 141 hhcurveto
            131 103 118 79 32 hvcurveto
            -35 142 -136 -3 78 1174 rlineto
            29 -47 -59 11 -63 hhcurveto
            -149 -129 -73 -57 -39 hvcurveto
            21 -156 42 -212 45 -188 -86 -9 -151 -20 -94 -15 59 689 rcurveline
            -90 callgsubr
            return
          </CharString>
          <CharString index="41">
            15 -7 -14 -90 -10 -78 -10 -101 rlinecurve
            return
          </CharString>
          <CharString index="42">
            35 -92 49 -82 80 -25 rrcurveto
            -14 43 41 -7 38 hhcurveto
            75 63 28 60 41 hvcurveto
            44 64 50 112 105 vvcurveto
            -118 102 -44 -37 -46 -33 -45 -16 rlinecurve
            -72 69 -79 149 -43 81 144 202 184 303 23 202 rrcurveto
            132 -104 -197 45 -85 hhcurveto
            -96 -44 -59 -130 -15 -142 141 -50 rcurveline
            -27 -121 -108 -247 -78 -148 -106 -12 rcurveline
            72 834 rlineto
            29 -48 -55 11 -63 hhcurveto
            -149 -132 -73 -57 -37 hvcurveto
            36 -210 42 -321 70 -212 -49 -143 -48 -48 callgsubr
            return
          </CharString>
          <CharString index="43">
            -95 150 -118 97 116 79 64 131 67 vhcurveto
            -47 127 -196 -67 -14 13 return
          </CharString>
          <CharString index="44">
            vstem
            -78 callgsubr
            366 21 -29 92 -93 110 -42 rlinecurve
            45 -17 47 -17 47 -14 26 -272 113 -650 38 -396 -203 31 rcurveline
            -86 callsubr
            return
          </CharString>
          <CharString index="45">
            115 117 171 128 43 hvcurveto
            -89 121 -170 -89 119 311 36 266 7 171 rlinecurve
            -132 108 -158 17 -72 -1 -57 -1 -25 -10 -21 -6 -190 -623 rcurveline
            -29 6 38 212 45 154 -14 191 rlinecurve
            54 -86 -112 23 -74 hhcurveto
            -57 -53 5 -18 -46 hvcurveto
            -165 -656 -26 3 73 628 rlineto
            28 -32 -52 13 -62 hhcurveto
            -108 -144 -45 -80 -48 hvcurveto
            -8 -36 98 -522 60 -135 -31 -112 -10 -26 -29 -161 rrcurveto
            return
          </CharString>
          <CharString index="46">
            -70 59 97 -88 92 hhcurveto
            126 115 158 116 38 hvcurveto
            -80 127 -143 -67 10 callgsubr
            -43 35 -55 13 -57 -1 return
          </CharString>
          <CharString index="47">
            -129 16 106 -65 117 hhcurveto
            171 62 156 32 21 hvcurveto
            -32 166 -186 -27 65 338 18 456 8 198 rlinecurve
            -87 93 -302 142 -106 15 -135 -53 -69 -129 -11 -120 25 -15 35 -16 38 -16 -18 -90 -35 -185 -25 -148 -26 -220 rcurveline
            -8 -1 -172 790 -139 106 -293 85 -94 12 rlinecurve
            -140 -71 -38 -132 -9 -120 169 -51 rcurveline
            -69 -870 -1 -9 -110 9 rlineto
            return
          </CharString>
          <CharString index="48">
            92 -57 242 -187 91 -89 54 32 71 67 33 67 -68 94 -173 167 -98 89 99 100 169 208 36 104 -17 67 -96 79 -55 23 -436 -425 rcurveline
            -15 -86 30 -206 41 -47 rrcurveto
            return
          </CharString>
          <CharString index="49">
            273 125 197 244 237 -97 178 -286 -274 -117 -186 -243 -4 return
          </CharString>
          <CharString index="50">
            242 -51 rlineto
            12 -127 5 -220 -196 vvcurveto
            -86 -3 -107 -4 -82 vhcurveto
            -271 83 rlineto
            return
          </CharString>
          <CharString index="51">
            rrcurveto
            -70 callsubr
            return
          </CharString>
          <CharString index="52">
            -54 callsubr
            29 -20 return
          </CharString>
          <CharString index="53">
            -21 1202 -20 return
          </CharString>
          <CharString index="54">
            9 -113 110 -166 84 -40 return
          </CharString>
          <CharString index="55">
            -21 1201 -20 42 -20 return
          </CharString>
          <CharString index="56">
            43 92 rrcurveto
            169 -40 -169 48 -136 hhcurveto
            -35 -101 -40 return
          </CharString>
          <CharString index="57">
            -16 -80 -28 -38 -17 -183 rrcurveto
            -53 47 92 -32 91 hhcurveto
            65 65 16 35 46 hvcurveto
            -9 122 -6 82 -44 128 34 82 113 192 69 132 24 -5 rcurveline
            -14 -166 -13 -181 -11 -193 -4 -64 19 -39 47 -49 rrcurveto
            -52 49 78 -40 63 hhcurveto
            return
          </CharString>
          <CharString index="58">
            -53 90 -43 49 -35 vhcurveto
            return
          </CharString>
          <CharString index="59">
            hhcurveto
            178 253 212 107 80 hvcurveto
            -85 139 -129 -62 -129 -79 -68 -13 rlinecurve
            -29 hlineto
            178 160 251 return
          </CharString>
          <CharString index="60">
            1 -21 1644 -20 hstemhm
            return
          </CharString>
          <CharString index="61">
            rmoveto
            -23 callgsubr
            -59 callgsubr
            -178 279 rcurveline
            -220 1 137 -304 rlineto
            -31 callsubr
            endchar
          </CharString>
          <CharString index="62">
            rmoveto
            172 hlineto
            66 170 43 242 9 179 rrcurveto
            45 -41 -77 19 -70 hhcurveto
            -63 -76 -13 -21 -49 hvcurveto
            return
          </CharString>
          <CharString index="63">
            37 142 rmoveto
            38 -99 108 -61 112 -2 rrcurveto
            17 hlineto
            2 hlineto
            175 58 123 145 -2 hvcurveto
            -5 259 -79 562 -21 99 19 7 rcurveline
            289 -889 rlineto
            -34 -50 -7 -133 -41 vvcurveto
            return
          </CharString>
          <CharString index="64">
            -1 -32 callgsubr
            return
          </CharString>
          <CharString index="65">
            -50 60 103 -31 100 hhcurveto
            74 72 16 38 52 hvcurveto
            -18 102 -13 94 -43 92 194 851 rcurveline
            19 -3 -5 -152 1 -290 12 -235 rlinecurve
            6 -128 7 -129 8 -63 rrcurveto
            return
          </CharString>
          <CharString index="66">
            -63 -142 47 -57 104 -65 50 -1 rrcurveto
            return
          </CharString>
          <CharString index="67">
            89 69 rmoveto
            -56 50 108 -33 103 hhcurveto
            67 66 15 32 44 hvcurveto
            -15 134 -36 102 -33 97 38 84 109 224 53 110 24 -4 rcurveline
            31 -408 rlineto
            return
          </CharString>
          <CharString index="68">
            -417 -21 return
          </CharString>
          <CharString index="69">
            233 95 rmoveto
            33 -26 46 -34 47 -24 rrcurveto
            return
          </CharString>
          <CharString index="70">
            -122 hhcurveto
            return
          </CharString>
          <CharString index="71">
            rmoveto
            -39 112 -94 72 -104 45 -90 -30 -173 -123 -31 -132 68 -95 106 -93 128 -36 51 34 162 197 16 49 rrcurveto
            endchar
          </CharString>
          <CharString index="72">
            -26 callsubr
            15 14 1 2 14 hvcurveto
            176 60 return
          </CharString>
          <CharString index="73">
            -48 callsubr
            297 16 29 return
          </CharString>
          <CharString index="74">
            520 0 -21 22 -65 callgsubr
            return
          </CharString>
          <CharString index="75">
            -4 callgsubr
            398 hstemhm
            return
          </CharString>
          <CharString index="76">
            -65 -120 23 16 -68 hvcurveto
            return
          </CharString>
          <CharString index="77">
            -9 -40 callgsubr
            return
          </CharString>
          <CharString index="78">
            -537 450 88 -21 return
          </CharString>
          <CharString index="79">
            rmoveto
            99 169 50 197 40 130 rrcurveto
            54 -1 -66 49 -78 hhcurveto
            -88 -31 -27 -30 -60 hvcurveto
            -19 -514 rlineto
            endchar
          </CharString>
          <CharString index="80">
            hstemhm
            -5 1204 return
          </CharString>
          <CharString index="81">
            150 -1 rrcurveto
            return
          </CharString>
          <CharString index="82">
            6 337 rlinecurve
            35 -46 -53 13 -59 hhcurveto
            -120 -131 -69 -79 -61 hvcurveto
            -2 -1 -2 -4 vvcurveto
            -96 116 return
          </CharString>
          <CharString index="83">
            24 -286 vhcurveto
            -20 -75 -118 return
          </CharString>
          <CharString index="84">
            -106 74 -39 -5 -202 return
          </CharString>
          <CharString index="85">
            hstemhm
            6 1241 return
          </CharString>
          <CharString index="86">
            150 344 return
          </CharString>
          <CharString index="87">
            rmoveto
            121 -68 75 41 293 241 71 166 rlinecurve
            -13 53 -71 191 -277 3 rrcurveto
            endchar
          </CharString>
          <CharString index="88">
            -57 callsubr
            endchar
          </CharString>
          <CharString index="89">
            12 -113 rlinecurve
            return
          </CharString>
          <CharString index="90">
            271 98 38 hvcurveto
            -127 141 return
          </CharString>
          <CharString index="91">
            hhcurveto
            70 64 32 68 51 hvcurveto
            return
          </CharString>
          <CharString index="92">
            -241 102 -186 278 return
          </CharString>
          <CharString index="93">
            -4 callsubr
            hstem
            return
          </CharString>
          <CharString index="94">
            434 hstemhm
            return
          </CharString>
          <CharString index="95">
            -64 98 -260 return
          </CharString>
          <CharString index="96">
            1 1 1 return
          </CharString>
          <CharString index="97">
            -39 callsubr
            439 -21 1204 -20 return
          </CharString>
          <CharString index="98">
            42 -58 39 -67 174 -12 rlinecurve
            70 65 return
          </CharString>
          <CharString index="99">
            723 3 1547 return
          </CharString>
          <CharString index="100">
            485 hstemhm
            return
          </CharString>
          <CharString index="101">
            57 -116 vhcurveto
            -1 callsubr
            return
          </CharString>
          <CharString index="102">
            -21 600 9 616 -20 return
          </CharString>
          <CharString index="103">
            -21 1633 -20 return
          </CharString>
          <CharString index="104">
            hstemhm
            40 274 -2 1312 -1093 287 825 287 return
          </CharString>
          <CharString index="105">
            0 callgsubr
            -22 return
          </CharString>
          <CharString index="106">
            -1 -1 0 -1 vvcurveto
            -27 -80 -16 -61 -27 -161 rrcurveto
            return
          </CharString>
          <CharString index="107">
            -424 1247 485 hstem
            75 523 vstem
            return
          </CharString>
          <CharString index="108">
            23 101 -52 73 -81 71 -98 27 -39 -26 -124 return
          </CharString>
          <CharString index="109">
            -16 34 35 -7 34 hhcurveto
            55 52 18 44 42 hvcurveto
            return
          </CharString>
          <CharString index="110">
            -18 callsubr
            endchar
          </CharString>
          <CharString index="111">
            19 hstemhm
            148 549 -385 1312 return
          </CharString>
          <CharString index="112">
            -393 543 -149 -21 return
          </CharString>
          <CharString index="113">
            -101 -26 callsubr
            return
          </CharString>
          <CharString index="114">
            588 1 -21 1203 -20 23 -20 return
          </CharString>
          <CharString index="115">
            vvcurveto
            123 -7 57 -9 81 vhcurveto
            115 return
          </CharString>
          <CharString index="116">
            -501 1 -21 1267 -7 callsubr
            return
          </CharString>
          <CharString index="117">
            -91 30 1177 hstem
            905 7 vstem
            return
          </CharString>
          <CharString index="118">
            181 0 -21 return
          </CharString>
        <CharString name=".notdef">
          587 21 -21 1197 336 hstem
          222 203 853 203 vstem
          222 78 rmoveto
          -49 25 -29 44 vhcurveto
          1114 hlineto
          51 25 29 47 hvcurveto
          1381 vlineto
          47 -25 29 -51 vhcurveto
          -1117 hlineto
          -41 -25 -29 -50 hvcurveto
          223 -1033 rmoveto
          -22 22 1 28 18 17 285 285 rcurveline
          -287 289 -17 16 -5 26 22 22 rlinecurve
          61 58 21 21 25 -7 15 -15 rlinecurve
          287 -288 281 282 15 16 26 8 23 -24 rlinecurve
          67 -69 19 -18 -5 -25 -23 -22 rlinecurve
          -275 -276 284 -284 21 -20 3 -26 -24 -24 rlinecurve
          -52 -52 -22 -22 -27 2 -24 25 rlinecurve
          -281 279 -276 -277 -26 -27 -28 -1 -25 26 rlinecurve
          endchar
        </CharString>
        <CharString name=".null">
          endchar
        </CharString>
        <CharString name="A">
          -44 callgsubr
          hstem
          6 1241 vstem
          -103 callgsubr
          endchar
        </CharString>
        <CharString name="AE">
          628 1 -21 1207 -20 hstem
          1012 76 vstem
          -76 callsubr
          endchar
        </CharString>
        <CharString name="AEacute">
          628 1 -21 1207 -20 457 -20 hstemhm
          707 568 -263 76 hintmask 11001000
          -76 callsubr
          hintmask 00110000
          202 996 -95 callsubr
        </CharString>
        <CharString name="Aacute">
          -44 callgsubr
          457 -20 -22 callsubr
          -817 568 hintmask 11010000
          -103 callgsubr
          hintmask 00101000
          -308 974 -95 callsubr
        </CharString>
        <CharString name="Abreve">
          -44 callgsubr
          452 -20 -22 callsubr
          -948 752 hintmask 11010000
          -103 callgsubr
          hintmask 00101000
          -130 964 -86 callgsubr
        </CharString>
        <CharString name="Acircumflex">
          -44 callgsubr
          442 398 -22 callsubr
          -919 710 hintmask 11010000
          -103 callgsubr
          hintmask 00101000
          -333 954 -101 callsubr
        </CharString>
        <CharString name="Adieresis">
          -44 callgsubr
          419 434 -22 callsubr
          -1003 888 hintmask 11010000
          -103 callgsubr
          hintmask 00101000
          127 931 -104 callgsubr
        </CharString>
        <CharString name="Agrave">
          -44 callgsubr
          457 -20 -22 callsubr
          -927 568 hintmask 11010000
          -103 callgsubr
          hintmask 00101000
          22 974 -80 callgsubr
        </CharString>
        <CharString name="Amacron">
          -44 callgsubr
          490 264 -22 callsubr
          -215 8 hintmask 11010000
          -103 callgsubr
          hintmask 00101000
          -467 1002 -85 callgsubr
        </CharString>
        <CharString name="Aogonek">
          156 -39 callsubr
          439 -21 1207 -20 -22 callsubr
          -512 510 hintmask 11110000
          6 140 rmoveto
          38 -99 110 -59 112 -2 222 -3 31 236 26 225 85 -8 102 -6 68 -4 rrcurveto
          54 hlineto
          19 -87 -81 -272 30 -32 50 -24 58 -13 rlinecurve
          hintmask 11101000
          -92 -58 -103 -78 -81 vvcurveto
          -64 callsubr
          39 73 148 79 71 52 rlinecurve
          6 102 2 94 -228 1136 -250 76 -254 63 -266 44 -83 -75 -42 -155 -3 -103 52 -20 85 -16 93 -13 -174 -875 rcurveline
          -132 11 rlineto
          hintmask 11110000
          518 330 rmoveto
          23 207 15 210 5 88 86 -8 rcurveline
          104 -475 rlineto
          endchar
        </CharString>
        <CharString name="Aring">
          -44 callgsubr
          -22 callsubr
          vstemhm
          -103 callgsubr
          -150 872 -95 callgsubr
        </CharString>
        <CharString name="Atilde">
          -44 callgsubr
          438 -20 -22 callsubr
          -1018 842 hintmask 11010000
          -103 callgsubr
          hintmask 00101000
          -463 971 -84 callgsubr
        </CharString>
        <CharString name="B">
          200 -23 245 446 28 hstem
          87 1202 vstem
          -73 callsubr
          endchar
        </CharString>
        <CharString name="C">
          -105 1 -21 hstem
          944 13 vstem
          233 95 rmoveto
          -36 callgsubr
          204 182 68 117 -94 callgsubr
          endchar
        </CharString>
        <CharString name="CR">
          -787 endchar
        </CharString>
        <CharString name="Cacute">
          -105 -47 callsubr
          313 568 63 13 hintmask 10010000
          233 95 rmoveto
          -36 callgsubr
          204 182 68 117 -94 callgsubr
          hintmask 01100000
          144 1534 -95 callsubr
        </CharString>
        <CharString name="Ccaron">
          -105 -31 callgsubr
          191 740 13 13 hintmask 10010000
          233 95 rmoveto
          -36 callgsubr
          204 182 68 117 -94 callgsubr
          hintmask 01100000
          183 1519 -89 callsubr
        </CharString>
        <CharString name="Ccedilla">
          -105 -408 543 -134 -21 hstemhm
          239 536 169 13 hintmask 01110000
          233 95 rmoveto
          54 -42 89 -61 70 -10 68 -151 rcurveline
          -31 callsubr
          -23 callgsubr
          rrcurveto
          hintmask 10110000
          -59 callgsubr
          -116 181 rcurveline
          149 70 116 116 49 83 -94 callgsubr
          endchar
        </CharString>
        <CharString name="Ccircumflex">
          -105 -32 callsubr
          129 710 105 13 hintmask 10010000
          233 95 rmoveto
          -36 callgsubr
          204 182 68 117 -94 callgsubr
          hintmask 01100000
          37 1514 -101 callsubr
        </CharString>
        <CharString name="Cdotaccent">
          -105 1 -30 callgsubr
          339 446 159 13 hintmask 10010000
          233 95 rmoveto
          -36 callgsubr
          204 182 68 117 -94 callgsubr
          hintmask 01100000
          323 1471 rmoveto
          -103 callsubr
        </CharString>
        <CharString name="D">
          3 callgsubr
          hstemhm
          855 223 hintmask 01100000
          288 -20 rmoveto
          116 7 78 124 52 89 rrcurveto
          hintmask 10100000
          -81 callgsubr
          17 -188 15 -250 58 -335 rrcurveto
          -32 hlineto
          -34 -36 -4 -10 -27 hvcurveto
          -89 -124 rlineto
          hintmask 01100000
          -53 callsubr
          rrcurveto
          272 417 rmoveto
          36 783 -19 callsubr
        </CharString>
        <CharString name="DC1">
          endchar
        </CharString>
        <CharString name="DC2">
          endchar
        </CharString>
        <CharString name="DC3">
          endchar
        </CharString>
        <CharString name="DC4">
          endchar
        </CharString>
        <CharString name="DEL">
          endchar
        </CharString>
        <CharString name="DLE">
          endchar
        </CharString>
        <CharString name="Dcaron">
          218 0 -21 22 -25 callgsubr
          312 740 -197 -68 callsubr
          -40 1220 -89 callsubr
        </CharString>
        <CharString name="Dcroat">
          -75 callsubr
        </CharString>
        <CharString name="Delta">
          -57 callgsubr
        </CharString>
        <CharString name="E">
          -6 1 -21 hstem
          -5 1049 vstem
          -105 callgsubr
          endchar
        </CharString>
        <CharString name="Eacute">
          -6 -47 callsubr
          -5 1049 -762 568 hintmask 10100000
          -105 callgsubr
          hintmask 01010000
          173 1561 -95 callsubr
        </CharString>
        <CharString name="Ebreve">
          -6 1 -21 1639 -20 hstemhm
          -5 1049 -893 752 hintmask 10100000
          -105 callgsubr
          hintmask 01010000
          351 1551 -86 callgsubr
        </CharString>
        <CharString name="Ecaron">
          -6 -31 callgsubr
          -5 1049 -884 740 hintmask 10100000
          -105 callgsubr
          hintmask 01010000
          212 1546 -89 callsubr
        </CharString>
        <CharString name="Ecircumflex">
          -6 -32 callsubr
          -5 1049 -864 710 hintmask 10100000
          -105 callgsubr
          hintmask 01010000
          148 1541 -101 callsubr
        </CharString>
        <CharString name="Edieresis">
          -6 1 -21 1606 -13 callsubr
          -5 1049 -948 888 hintmask 10100000
          -105 callgsubr
          hintmask 01010000
          608 1518 -104 callgsubr
        </CharString>
        <CharString name="Edotaccent">
          -6 1 -30 callgsubr
          -5 1049 -736 446 hintmask 10100000
          -105 callgsubr
          hintmask 01010000
          352 1498 rmoveto
          -103 callsubr
        </CharString>
        <CharString name="Egrave">
          -6 -47 callsubr
          -5 1049 -872 568 hintmask 10100000
          -105 callgsubr
          hintmask 01010000
          503 1561 -80 callgsubr
        </CharString>
        <CharString name="Emacron">
          -6 1 -21 1677 264 hstemhm
          -5 1049 -160 8 hintmask 10100000
          -105 callgsubr
          hintmask 01010000
          14 1589 -85 callgsubr
        </CharString>
        <CharString name="Eng">
          255 -415 -21 436 -21 22 -21 hstemhm
          28 1264 hintmask 11010000
          67 142 rmoveto
          hintmask 10110000
          -99 47 113 -63 119 hhcurveto
          153 59 98 125 15 -1 15 -1 15 hvcurveto
          -27 259 -148 562 -30 99 5 2 rcurveline
          437 -925 113 -250 15 -127 rlineto
          -93 -198 26 22 -98 hvcurveto
          -15 -50 -12 -47 -58 vvcurveto
          -12 1 -12 1 -13 vhcurveto
          44 -58 202 -101 -35 callsubr
          126 147 43 166 -27 120 rcurveline
          -52 288 80 1138 rlineto
          28 -41 -72 15 -53 hhcurveto
          -106 -113 -46 -53 -25 hvcurveto
          -150 107 -737 41 -238 vhcurveto
          -4 -4 -384 1084 -149 106 -211 46 -95 12 rlinecurve
          -135 -72 -24 -131 -120 vvcurveto
          50 -32 66 -15 57 -4 8 -879 rcurveline
          -111 9 rlineto
          endchar
        </CharString>
        <CharString name="Eogonek">
          -6 -39 callsubr
          439 -21 hstemhm
          -5 1049 -653 509 hintmask 11010000
          173 68 rmoveto
          97 -26 169 -29 154 -17 rrcurveto
          -94 -58 -108 -80 -83 vvcurveto
          -64 callsubr
          27 50 112 73 76 50 rlinecurve
          hintmask 11100000
          81 39 63 67 42 84 rrcurveto
          89 -17 136 -21 56 vhcurveto
          -180 15 -82 -190 -287 10 14 355 rlineto
          -60 107 138 -23 129 hhcurveto
          20 20 1 2 20 hvcurveto
          23 25 28 83 86 vvcurveto
          54 -11 54 -29 44 vhcurveto
          -150 -31 -93 -25 -210 -23 -39 320 rcurveline
          215 -59 136 -39 118 -11 rrcurveto
          66 50 39 113 106 vvcurveto
          92 -29 88 -66 38 vhcurveto
          -412 -94 -333 73 rlineto
          -83 -58 -80 -116 -89 vvcurveto
          243 -584 -158 -417 10 -71 33 -65 50 -60 rlinecurve
          endchar
        </CharString>
        <CharString name="Eth">
          -75 callsubr
        </CharString>
        <CharString name="Euro">
          92 1 -21 hstem
          75 1104 vstem
          256 192 rmoveto
          3 -33 18 -28 46 -36 rrcurveto
          -36 callgsubr
          250 171 68 117 -65 149 rcurveline
          -172 -48 -222 -40 -170 -35 22 174 rcurveline
          346 1 38 74 15 69 -16 67 rlinecurve
          -358 -21 6 43 5 43 5 43 rlinecurve
          335 1 38 74 15 59 -16 67 rlinecurve
          -354 -19 9 104 4 92 -5 59 rlinecurve
          24 22 100 -89 225 -63 82 -20 rlinecurve
          55 27 126 112 -54 254 rrcurveto
          -323 hlineto
          -92 20 -192 24 -61 12 -119 -44 -152 -125 -25 -94 rrcurveto
          -15 0 -66 6 -34 vhcurveto
          9 -49 10 -68 10 -79 -121 -6 rcurveline
          -32 -55 -16 -22 9 -80 rrcurveto
          178 hlineto
          4 -47 5 -49 3 -49 -131 -7 rcurveline
          -32 -55 -16 -32 9 -80 rrcurveto
          181 hlineto
          7 -116 4 -108 6 -77 rrcurveto
          endchar
        </CharString>
        <CharString name="F">
          -41 1 -21 hstem
          21 1003 vstem
          -63 callgsubr
          endchar
        </CharString>
        <CharString name="G">
          55 1 -21 26 -21 hstemhm
          199 268 567 13 hintmask 01110000
          -38 callsubr
          hintmask 10110000
          -100 callsubr
          endchar
        </CharString>
        <CharString name="Gbreve">
          55 1 -21 26 -21 1634 -20 hstemhm
          199 268 -205 752 20 13 hintmask 01010100
          -38 callsubr
          hintmask 10010100
          -100 callsubr
          hintmask 00101000
          402 1524 -86 callgsubr
        </CharString>
        <CharString name="Gcircumflex">
          55 1 -21 26 -21 1624 398 hstemhm
          199 268 -176 710 33 13 hintmask 01010100
          -38 callsubr
          hintmask 10010100
          -100 callsubr
          hintmask 00101000
          199 1514 -101 callsubr
        </CharString>
        <CharString name="Gcommaaccent">
          55 -29 callsubr
          26 -21 hstemhm
          199 268 -47 452 162 13 hintmask 00110100
          -38 callsubr
          hintmask 01010100
          -100 callsubr
          hintmask 10001000
          255 -186 rmoveto
          -88 callsubr
        </CharString>
        <CharString name="Gdotaccent">
          55 1 -21 26 -21 1581 -13 callsubr
          199 268 -48 446 169 13 hintmask 01010100
          -38 callsubr
          hintmask 10010100
          -100 callsubr
          hintmask 00101000
          403 1471 rmoveto
          -103 callsubr
        </CharString>
        <CharString name="H">
          219 1 -21 hstem
          82 1227 vstem
          -67 callsubr
          endchar
        </CharString>
        <CharString name="HT">
          endchar
        </CharString>
        <CharString name="Hbar">
          232 1 -21 1010 290 hstem
          82 1227 19 27 vstem
          133 62 rmoveto
          -50 53 86 -2 callsubr
          236 -34 163 rrcurveto
          1 vlineto
          86 -12 163 -9 99 -6 -19 -125 -21 -111 2 -117 rrcurveto
          -155 2 99 -93 141 hhcurveto
          131 103 118 79 32 hvcurveto
          -35 142 -136 -3 46 688 65 2 46 2 14 1 rlinecurve
          45 88 22 107 -48 76 -127 -10 rcurveline
          15 220 rlineto
          29 -47 -59 11 -63 hhcurveto
          -149 -129 -73 -57 -39 hvcurveto
          7 -50 8 -57 11 -59 -213 -17 rcurveline
          23 272 rlineto
          29 -48 -55 11 -63 hhcurveto
          -149 -132 -73 -57 -37 hvcurveto
          37 -233 -102 -18 -19 -65 9 -25 24 -65 rlinecurve
          33 -2 41 0 45 -1 22 -120 26 -118 32 -96 -49 -143 -38 -48 callgsubr
          374 738 rmoveto
          16 190 94 1 95 2 91 2 rlinecurve
          11 -51 12 -51 12 -49 -86 -9 -151 -20 -94 -15 rrcurveto
          endchar
        </CharString>
        <CharString name="Hcircumflex">
          219 -32 callsubr
          82 1227 -982 710 hintmask 10100000
          -67 callsubr
          hintmask 01010000
          335 1547 -101 callsubr
        </CharString>
        <CharString name="I">
          -450 1 -21 hstem
          82 484 vstem
          -98 callsubr
          endchar
        </CharString>
        <CharString name="IJ">
          549 1 -21 1173 38 hstemhm
          82 484 107 305 -305 966 hintmask 10100000
          -98 callsubr
          hintmask 01001000
          627 -65 -74 callgsubr
          hintmask 01010000
          -49 callgsubr
          endchar
        </CharString>
        <CharString name="Iacute">
          -450 -47 callsubr
          82 484 -479 568 hintmask 10100000
          -98 callsubr
          hintmask 01010000
          18 1567 -95 callsubr
        </CharString>
        <CharString name="Ibreve">
          -450 1 -21 1639 -20 hstemhm
          -44 752 -626 484 hintmask 10010000
          -98 callsubr
          hintmask 01100000
          196 1557 -86 callgsubr
        </CharString>
        <CharString name="Icircumflex">
          -450 -32 callsubr
          -15 710 -613 484 hintmask 10010000
          -98 callsubr
          hintmask 01100000
          -7 1547 -101 callsubr
        </CharString>
        <CharString name="Idieresis">
          -450 1 -21 1606 -13 callsubr
          -99 888 -707 484 hintmask 10010000
          -98 callsubr
          hintmask 01100000
          453 1524 -104 callgsubr
        </CharString>
        <CharString name="Idotaccent">
          -450 1 -30 callgsubr
          82 484 -453 446 hintmask 10100000
          -98 callsubr
          hintmask 01010000
          197 1504 rmoveto
          -103 callsubr
        </CharString>
        <CharString name="Igrave">
          -450 -47 callsubr
          -23 568 -463 484 hintmask 10010000
          -98 callsubr
          hintmask 01100000
          348 1567 -80 callgsubr
        </CharString>
        <CharString name="Imacron">
          -450 1 -21 1677 264 hstemhm
          82 484 123 8 hintmask 10100000
          -98 callsubr
          hintmask 01010000
          -141 1595 -85 callgsubr
        </CharString>
        <CharString name="Iogonek">
          -450 -39 callsubr
          439 -21 hstemhm
          76 509 -503 484 hintmask 11100000
          133 62 rmoveto
          33 -32 47 -24 60 -13 rrcurveto
          -93 -58 -104 -78 -82 vvcurveto
          -64 callsubr
          39 73 132 78 59 38 rlinecurve
          -11 189 -25 212 -34 163 rrcurveto
          hintmask 11010000
          78 906 rlineto
          -90 callgsubr
          endchar
        </CharString>
        <CharString name="Itilde">
          -450 1 -21 1625 -20 hstemhm
          -93 842 -667 484 hintmask 10010000
          -98 callsubr
          hintmask 01100000
          -116 1564 -84 callgsubr
        </CharString>
        <CharString name="J">
          -117 1153 38 hstemhm
          7 305 -305 966 hintmask 10100000
          94 -3 -74 callgsubr
          hintmask 11000000
          -49 callgsubr
          endchar
        </CharString>
        <CharString name="Jcircumflex">
          -117 1153 38 418 398 hstemhm
          7 305 -305 966 -825 710 hintmask 10010000
          94 -3 -74 callgsubr
          hintmask 10100000
          -49 callgsubr
          hintmask 01001000
          195 1612 -101 callsubr
        </CharString>
        <CharString name="K">
          208 1 -21 22 -21 hstemhm
          82 1242 hintmask 10100000
          -39 callgsubr
          hintmask 01100000
          -65 callsubr
          endchar
        </CharString>
        <CharString name="Kcommaaccent">
          208 -517 450 68 -21 22 -21 hstemhm
          82 1242 -824 452 hintmask 01010000
          -39 callgsubr
          hintmask 00110000
          -65 callsubr
          hintmask 10001000
          445 -133 rmoveto
          -88 callsubr
        </CharString>
        <CharString name="L">
          26 1 -21 hstem
          55 1056 vstem
          -91 callgsubr
          endchar
        </CharString>
        <CharString name="LF">
          endchar
        </CharString>
        <CharString name="Lacute">
          26 -47 callsubr
          55 1056 -929 568 hintmask 10100000
          -91 callgsubr
          hintmask 01010000
          -12 1649 -95 callsubr
        </CharString>
        <CharString name="Lcaron">
          26 -31 callgsubr
          41 740 -726 1056 hintmask 10010000
          -91 callgsubr
          hintmask 01100000
          8 1634 -89 callsubr
        </CharString>
        <CharString name="Lcommaaccent">
          26 -29 callsubr
          hstemhm
          55 1056 -736 452 hintmask 01100000
          -91 callgsubr
          hintmask 10010000
          185 -71 rmoveto
          -88 callsubr
        </CharString>
        <CharString name="Ldot">
          26 1 -21 788 -13 callsubr
          55 1056 -348 446 hintmask 10100000
          -91 callgsubr
          hintmask 01010000
          722 788 rmoveto
          -103 callsubr
        </CharString>
        <CharString name="Lslash">
          26 1 -21 562 570 hstemhm
          55 1056 -260 47 hintmask 11100000
          258 -20 rmoveto
          116 7 78 74 52 89 rrcurveto
          -78 98 137 -92 123 hhcurveto
          202 47 201 188 107 -15 103 -17 46 hvcurveto
          -184 24 -95 -289 -253 48 -13 1 31 317 326 140 rlineto
          hintmask 11010000
          15 92 -7 125 -48 29 -262 -132 rcurveline
          50 509 rlineto
          29 -48 -50 11 -63 hhcurveto
          -149 -132 -73 -57 -37 hvcurveto
          24 -144 7 -194 31 -267 -161 -81 rcurveline
          6 -62 25 -85 43 -24 113 48 rcurveline
          7 -49 9 -51 9 -53 rrcurveto
          -32 hlineto
          -34 -36 -4 -10 -27 hvcurveto
          hintmask 11100000
          -89 -124 -53 callsubr
          rlinecurve
          endchar
        </CharString>
        <CharString name="M">
          743 1 -21 22 -21 187 131 hstemhm
          37 1792 hintmask 10110000
          -44 callsubr
          hintmask 01110000
          -42 callsubr
          hintmask 10110000
          -60 callsubr
          endchar
        </CharString>
        <CharString name="N">
          255 0 -21 22 -21 hstemhm
          28 1288 hintmask 00000000
          hintmask 01100000
          -90 callsubr
          hintmask 10100000
          -79 callgsubr
          endchar
        </CharString>
        <CharString name="Nacute">
          255 0 -21 22 -21 1644 -20 hstemhm
          28 1288 -836 568 hintmask 00000000
          hintmask 01010000
          -90 callsubr
          hintmask 10010000
          -79 callgsubr
          hintmask 00101000
          446 1324 -95 callsubr
        </CharString>
        <CharString name="Ncaron">
          255 0 -21 22 -25 callgsubr
          28 1288 -958 740 hintmask 00000000
          hintmask 01010000
          -90 callsubr
          hintmask 10010000
          -79 callgsubr
          hintmask 00101000
          485 1309 -89 callsubr
        </CharString>
        <CharString name="Ncommaaccent">
          255 -537 450 87 -21 22 -21 hstemhm
          28 1288 -857 452 hintmask 00000000
          hintmask 00110000
          -90 callsubr
          hintmask 01010000
          -79 callgsubr
          hintmask 10001000
          429 -396 rmoveto
          -88 callsubr
        </CharString>
        <CharString name="Ntilde">
          255 0 -21 22 -21 1625 -20 hstemhm
          28 1288 -970 842 hintmask 00000000
          hintmask 01010000
          -90 callsubr
          hintmask 10010000
          -79 callgsubr
          hintmask 00101000
          358 1321 -84 callgsubr
        </CharString>
        <CharString name="O">
          175 0 -21 hstem
          96 1100 vstem
          -105 callsubr
          endchar
        </CharString>
        <CharString name="OE">
          681 0 -21 23 -21 hstemhm
          96 1635 hintmask 10100000
          173 -26 callgsubr
          89 -80 292 -79 149 -30 callsubr
          93 47 23 12 rcurveline
          hintmask 01100000
          -58 170 174 -31 179 hhcurveto
          164 87 104 154 89 -17 91 -21 56 hvcurveto
          -180 15 -82 -190 -308 20 14 91 14 120 11 121 rlinecurve
          -52 104 146 -19 121 hhcurveto
          20 20 1 2 20 hvcurveto
          23 25 28 83 86 vvcurveto
          54 -11 54 -29 44 vhcurveto
          -139 -29 -108 -23 -179 -22 rrcurveto
          5 79 3 71 54 vvcurveto
          39 -1 32 -1 29 vhcurveto
          156 -44 132 -29 107 -12 rrcurveto
          66 50 41 100 106 vvcurveto
          92 -29 88 -66 38 vhcurveto
          -369 -94 -188 -36 rlineto
          73 -141 -192 57 -70 -10 callgsubr
          40 -493 37 -239 vhcurveto
          328 184 rmoveto
          -13 callgsubr
          168 174 vvcurveto
          149 4 150 8 89 vhcurveto
          71 35 214 -91 rlineto
          12 -127 8 -209 -196 -52 callgsubr
          -62 10 -71 15 -102 46 -55 32 rlinecurve
          endchar
        </CharString>
        <CharString name="Oacute">
          11 callsubr
          1645 -20 hstemhm
          96 1100 -791 568 hintmask 10100000
          -105 callsubr
          hintmask 01010000
          -31 1298 -95 callsubr
        </CharString>
        <CharString name="Obreve">
          11 callsubr
          1640 -20 hstemhm
          96 1100 -922 752 hintmask 10100000
          -105 callsubr
          hintmask 01010000
          147 1288 -86 callgsubr
        </CharString>
        <CharString name="Ocircumflex">
          11 callsubr
          1630 398 hstemhm
          96 1100 -893 710 hintmask 10100000
          -105 callsubr
          hintmask 01010000
          -56 1278 -101 callsubr
        </CharString>
        <CharString name="Odieresis">
          11 callsubr
          1607 -13 callsubr
          96 1100 -977 888 hintmask 10100000
          -105 callsubr
          hintmask 01010000
          404 1255 -104 callgsubr
        </CharString>
        <CharString name="Ograve">
          11 callsubr
          1645 -20 hstemhm
          96 1100 -901 568 hintmask 10100000
          -105 callsubr
          hintmask 01010000
          299 1298 -80 callgsubr
        </CharString>
        <CharString name="Ohungarumlaut">
          11 callsubr
          1619 -20 hstemhm
          96 1100 -875 888 hintmask 10100000
          -105 callsubr
          hintmask 01010000
          373 1257 -64 callgsubr
        </CharString>
        <CharString name="Omacron">
          11 callsubr
          1678 264 hstemhm
          96 1100 -189 8 hintmask 10100000
          -105 callsubr
          hintmask 01010000
          -190 1326 -85 callgsubr
        </CharString>
        <CharString name="Omega">
          -77 callgsubr
        </CharString>
        <CharString name="Oslash">
          181 -237 2054 -1817 -21 hstemhm
          168 1028 hintmask 01100000
          185 -26 callgsubr
          22 -20 33 -20 40 -18 -102 -279 rcurveline
          49 -81 77 18 79 -4 115 271 rcurveline
          74 -19 72 -12 55 -4 -40 callgsubr
          92 47 62 32 95 42 15 58 -56 callsubr
          123 -7 57 -9 81 vhcurveto
          -24 29 -41 29 -49 27 128 249 rcurveline
          hintmask 10100000
          -50 102 -58 32 -99 28 -147 -315 rcurveline
          29 -87 -79 18 -39 hhcurveto
          -69 -346 -68 callgsubr
          46 -493 37 -239 vhcurveto
          315 184 rmoveto
          -10 113 -4 168 174 vvcurveto
          149 4 150 7 89 vhcurveto
          69 35 211 -91 rlineto
          12 -127 8 -209 -196 vvcurveto
          -120 -3 -112 -8 -74 vhcurveto
          -61 -42 -70 15 -100 46 -55 32 rlinecurve
          endchar
        </CharString>
        <CharString name="Otilde">
          11 callsubr
          1626 -20 hstemhm
          96 1100 -971 842 hintmask 10100000
          -105 callsubr
          hintmask 01010000
          -165 1295 -84 callgsubr
        </CharString>
        <CharString name="P">
          148 0 -21 412 214 hstem
          87 1136 vstem
          -67 callgsubr
          endchar
        </CharString>
        <CharString name="Q">
          175 -446 1995 hstem
          1177 12 vstem
          221 -77 rmoveto
          -6 -135 50 -144 88 -54 72 5 50 38 38 49 179 -68 247 -48 101 -12 14 4 9 8 5 10 82 57 67 191 -40 100 -108 -14 -270 -21 -172 -12 -4 29 rcurveline
          3 12 270 105 112 76 44 25 39 30 10 36 rrcurveto
          38 135 50 516 219 8 callsubr
          -95 -352 113 -98 hhcurveto
          -69 -346 -68 callgsubr
          46 -493 37 -239 vhcurveto
          65 -59 172 -39 145 -19 -146 -99 rcurveline
          -55 49 -53 -8 -44 -23 -48 -26 rlinecurve
          279 408 rmoveto
          -10 113 -4 168 174 vvcurveto
          149 4 150 7 89 vhcurveto
          69 35 211 -91 rlineto
          12 -127 8 -209 -196 vvcurveto
          -120 -3 -112 -8 -74 vhcurveto
          -61 -42 -70 15 -100 46 -55 32 rlinecurve
          endchar
        </CharString>
        <CharString name="R">
          248 1 -21 hstem
          87 1268 vstem
          -96 callgsubr
          endchar
        </CharString>
        <CharString name="RS">
          endchar
        </CharString>
        <CharString name="Racute">
          248 -47 callsubr
          87 1268 -931 568 hintmask 10100000
          -96 callgsubr
          hintmask 01010000
          -317 936 -95 callsubr
        </CharString>
        <CharString name="Rcaron">
          248 -31 callgsubr
          87 1268 -1101 740 hintmask 10100000
          -96 callgsubr
          hintmask 01010000
          -326 921 -89 callsubr
        </CharString>
        <CharString name="Rcommaaccent">
          248 -29 callsubr
          hstemhm
          87 1268 -874 452 hintmask 01100000
          -96 callgsubr
          hintmask 10010000
          -256 -784 rmoveto
          -88 callsubr
        </CharString>
        <CharString name="S">
          -66 1 -21 hstem
          986 16 vstem
          169 37 rmoveto
          -10 -1 518 -58 -10 2 105 44 80 68 76 76 -100 callgsubr
          endchar
        </CharString>
        <CharString name="Sacute">
          -66 -47 callsubr
          301 568 117 16 hintmask 10010000
          169 37 rmoveto
          -10 -1 518 -58 -10 2 105 44 80 68 76 76 -100 callgsubr
          hintmask 01100000
          196 1592 -95 callsubr
        </CharString>
        <CharString name="Scaron">
          -74 -31 callgsubr
          221 740 25 16 hintmask 10010000
          169 37 rmoveto
          -10 -1 518 -58 -10 2 105 44 80 68 76 76 -100 callgsubr
          hintmask 01100000
          277 1577 -89 callsubr
        </CharString>
        <CharString name="Scedilla">
          -66 5 callsubr
          hstemhm
          239 536 211 16 hintmask 01110000
          169 37 rmoveto
          -6 -1 134 -16 134 -15 83 -159 rcurveline
          -31 callsubr
          -23 callgsubr
          rrcurveto
          hintmask 10110000
          -59 callgsubr
          -95 116 rcurveline
          99 44 76 65 73 73 -100 callgsubr
          endchar
        </CharString>
        <CharString name="Scircumflex">
          -66 -32 callsubr
          174 710 102 16 hintmask 10010000
          169 37 rmoveto
          -10 -1 518 -58 -10 2 105 44 80 68 76 76 -100 callgsubr
          hintmask 01100000
          146 1572 -101 callsubr
        </CharString>
        <CharString name="T">
          -13 0 -21 600 9 580 110 -74 -20 hstem
          -28 1193 vstem
          -89 callgsubr
          endchar
        </CharString>
        <CharString name="Tbar">
          -13 0 -21 600 9 -3 13 570 110 hstemhm
          1002 7 hintmask 11011000
          427 227 rmoveto
          -155 14 186 -93 141 hhcurveto
          131 151 210 94 21 hvcurveto
          -78 132 -220 -101 -18 255 84 -2 60 1 35 3 rlinecurve
          -5 callgsubr
          -218 -16 rcurveline
          29 272 rlineto
          -33 75 116 -25 57 hhcurveto
          132 90 9 306 -132 69 -348 -111 rcurveline
          -439 111 -95 -9 -118 -60 -71 -87 rlinecurve
          -59 -105 52 -218 34 -103 79 -34 75 6 79 27 41 281 rcurveline
          130 -33 34 -366 -156 -11 rlineto
          hintmask 10111000
          -46 -78 -22 -61 12 -113 234 -9 rcurveline
          -21 -123 -48 -110 10 -116 rrcurveto
          endchar
        </CharString>
        <CharString name="Tcaron">
          -13 0 -5 callsubr
          425 411 hstemhm
          -28 1193 -894 740 hintmask 11111000
          -89 callgsubr
          84 1387 rmoveto
          52 -11 155 10 49 9 rrcurveto
          hintmask 11110100
          259 266 -23 47 -68 63 -50 22 rlinecurve
          -92 -66 -44 -49 -69 -101 -168 198 rcurveline
          -91 7 -131 -132 -4 -73 rrcurveto
          endchar
        </CharString>
        <CharString name="Thorn">
          148 1 -21 260 229 hstem
          427 33 vstem
          153 62 rmoveto
          -50 53 86 -32 119 hhcurveto
          71 53 11 28 43 hvcurveto
          -7 109 -24 133 -27 124 116 -59 158 -87 61 1 80 1 138 127 43 51 84 232 36 382 -17 220 -120 102 -162 43 -76 -1 -58 -1 -51 -10 -21 -6 -231 -387 rcurveline
          -31 9 61 478 rlineto
          36 -57 -56 13 -57 hhcurveto
          -106 -107 -56 -80 -59 hvcurveto
          -9 -37 76 -686 56 -162 -30 -137 -21 -170 -7 -139 rrcurveto
          351 652 rmoveto
          70 99 136 119 70 68 47 -8 rcurveline
          17 -163 -21 -184 -28 -158 -16 -93 -222 291 -53 29 rrcurveto
          endchar
        </CharString>
        <CharString name="U">
          -50 callgsubr
          hstem
          -5 1204 vstem
          -107 callgsubr
          endchar
        </CharString>
        <CharString name="US">
          endchar
        </CharString>
        <CharString name="Uacute">
          -50 callgsubr
          273 -20 -27 callsubr
          -804 568 hintmask 11010000
          -107 callgsubr
          hintmask 00101000
          249 1482 -95 callsubr
        </CharString>
        <CharString name="Ubreve">
          -50 callgsubr
          268 -20 -27 callsubr
          -935 752 hintmask 11010000
          -107 callgsubr
          hintmask 00101000
          427 1472 -86 callgsubr
        </CharString>
        <CharString name="Ucircumflex">
          -50 callgsubr
          258 398 -27 callsubr
          -906 710 hintmask 11010000
          -107 callgsubr
          hintmask 00101000
          224 1462 -101 callsubr
        </CharString>
        <CharString name="Udieresis">
          -50 callgsubr
          235 434 -27 callsubr
          -990 888 hintmask 11010000
          -107 callgsubr
          hintmask 00101000
          684 1439 -104 callgsubr
        </CharString>
        <CharString name="Ugrave">
          -50 callgsubr
          273 -20 -27 callsubr
          -914 568 hintmask 11010000
          -107 callgsubr
          hintmask 00101000
          579 1482 -80 callgsubr
        </CharString>
        <CharString name="Uhungarumlaut">
          -50 callgsubr
          247 -20 -27 callsubr
          -888 888 hintmask 11010000
          -107 callgsubr
          hintmask 00101000
          653 1441 -64 callgsubr
        </CharString>
        <CharString name="Umacron">
          -50 callgsubr
          306 264 -27 callsubr
          -202 8 hintmask 11010000
          -107 callgsubr
          hintmask 00101000
          90 1510 -85 callgsubr
        </CharString>
        <CharString name="Uogonek">
          156 -39 callsubr
          438 -21 1196 176 -27 callsubr
          -734 509 hintmask 11101000
          210 -26 callgsubr
          74 -67 186 -65 146 -25 rrcurveto
          -76 -58 -75 -75 -82 vvcurveto
          -64 callsubr
          23 45 40 69 38 63 rlinecurve
          34 13 37 17 42 21 62 32 102 42 16 58 rrcurveto
          hintmask 11110000
          -70 callsubr
          88 -5 55 -7 54 vhcurveto
          1 hlineto
          -2 16 -2 10 -2 18 rlineto
          -1 7 -1 6 7 vvcurveto
          -1 hlineto
          -11 88 -121 68 -149 62 -68 10 rlinecurve
          -135 -53 -69 -129 -11 -120 164 -46 rcurveline
          12 -128 9 -292 -195 -52 callgsubr
          -111 14 -84 37 -55 32 rrcurveto
          -13 callgsubr
          188 174 vvcurveto
          1 388 25 171 rlineto
          -1 -1 -1 0 -1 hhcurveto
          3 2 -139 106 -134 85 -94 12 rlinecurve
          -140 -71 -38 -132 -9 -120 139 -48 rcurveline
          -1 -36 0 -35 -26 vvcurveto
          -202 40 -493 37 -239 vhcurveto
          endchar
        </CharString>
        <CharString name="Uring">
          -50 callgsubr
          -27 callsubr
          vstemhm
          -107 callgsubr
          407 1380 -95 callgsubr
        </CharString>
        <CharString name="Utilde">
          -50 callgsubr
          254 -20 -27 callsubr
          -984 842 hintmask 11010000
          -107 callgsubr
          hintmask 00101000
          115 1479 -84 callgsubr
        </CharString>
        <CharString name="V">
          95 -22 1573 hstem
          -51 1247 vstem
          340 46 rmoveto
          -43 53 121 -25 117 hhcurveto
          103 100 20 43 54 hvcurveto
          -17 97 -21 67 -23 54 369 868 rcurveline
          -11 152 -70 182 -112 90 -144 -18 -176 -76 -60 -155 54 -110 68 -51 69 -59 -169 -739 rcurveline
          -26 329 -187 743 -29 57 rrcurveto
          40 -53 -63 17 -62 hhcurveto
          -132 -128 -85 -157 -16 hvcurveto
          175 -222 267 -783 -23 -62 -21 -75 -7 -99 rlinecurve
          endchar
        </CharString>
        <CharString name="W">
          -8 callsubr
          hstem
          -69 1864 vstem
          -102 callsubr
          endchar
        </CharString>
        <CharString name="Wacute">
          -8 callsubr
          74 -20 hstemhm
          -69 1864 -1133 568 hintmask 10100000
          -102 callsubr
          hintmask 01010000
          473 1549 -95 callsubr
        </CharString>
        <CharString name="Wcircumflex">
          -8 callsubr
          59 398 hstemhm
          -69 1864 -1235 710 hintmask 10100000
          -102 callsubr
          hintmask 01010000
          448 1529 -101 callsubr
        </CharString>
        <CharString name="Wdieresis">
          -8 callsubr
          36 -13 callsubr
          -69 1864 -1319 888 hintmask 10100000
          -102 callsubr
          hintmask 01010000
          908 1506 -104 callgsubr
        </CharString>
        <CharString name="Wgrave">
          -8 callsubr
          74 -20 hstemhm
          -69 1864 -1243 568 hintmask 10100000
          -102 callsubr
          hintmask 01010000
          803 1549 -80 callgsubr
        </CharString>
        <CharString name="X">
          229 1 -21 22 -21 hstemhm
          26 1276 hintmask 00000000
          hintmask 01100000
          293 -19 rmoveto
          108 76 140 150 54 hvcurveto
          hintmask 10100000
          39 108 27 114 18 69 6 -2 rcurveline
          11 -120 39 -204 84 -152 rrcurveto
          -71 39 84 -33 81 hhcurveto
          106 79 36 73 40 hvcurveto
          51 92 35 104 20 120 -135 100 rcurveline
          -142 -126 -235 407 159 340 113 -186 109 24 84 49 59 84 rlinecurve
          -3 161 -101 172 -110 99 -118 -5 -119 -62 -47 -54 -24 -27 -46 -199 -32 -246 -7 100 -18 157 -78 169 rrcurveto
          112 -52 -76 53 -115 hhcurveto
          -43 -49 -7 -15 -55 hvcurveto
          -101 -55 -65 -182 -17 -111 137 -134 rcurveline
          155 97 187 -374 rlineto
          hintmask 01100000
          -124 -313 -141 142 -89 -32 -65 -44 -54 -78 rlinecurve
          -167 24 119 -273 118 hhcurveto
          endchar
        </CharString>
        <CharString name="Y">
          52 1 -21 hstem
          0 1165 vstem
          -97 callsubr
          endchar
        </CharString>
        <CharString name="Yacute">
          52 -47 callsubr
          0 1165 -806 568 hintmask 10100000
          -97 callsubr
          hintmask 01010000
          49 1401 -95 callsubr
        </CharString>
        <CharString name="Ycircumflex">
          52 -32 callsubr
          0 1165 -908 710 hintmask 10100000
          -97 callsubr
          hintmask 01010000
          24 1381 -101 callsubr
        </CharString>
        <CharString name="Ydieresis">
          52 1 -21 1606 -13 callsubr
          0 1165 -992 888 hintmask 10100000
          -97 callsubr
          hintmask 01010000
          484 1358 -104 callgsubr
        </CharString>
        <CharString name="Ygrave">
          52 -47 callsubr
          0 1165 -916 568 hintmask 10100000
          -97 callsubr
          hintmask 01010000
          379 1401 -80 callgsubr
        </CharString>
        <CharString name="Z">
          92 1 -21 hstem
          529 15 vstem
          -93 callsubr
          endchar
        </CharString>
        <CharString name="Zacute">
          92 -47 callsubr
          407 568 -446 15 hintmask 10010000
          -93 callsubr
          hintmask 01100000
          265 1649 -95 callsubr
        </CharString>
        <CharString name="Zcaron">
          92 -31 callgsubr
          285 740 -496 15 hintmask 10010000
          -93 callsubr
          hintmask 01100000
          304 1634 -89 callsubr
        </CharString>
        <CharString name="Zdotaccent">
          92 1 -30 callgsubr
          433 446 -350 15 hintmask 10010000
          -93 callsubr
          hintmask 01100000
          444 1586 rmoveto
          -103 callsubr
        </CharString>
        <CharString name="a">
          -79 callsubr
          endchar
        </CharString>
        <CharString name="aacute">
          -54 callgsubr
          64 485 -21 callgsubr
          -761 523 -106 callsubr
          78 909 -94 callsubr
        </CharString>
        <CharString name="abreve">
          -54 callgsubr
          97 425 -21 callgsubr
          -971 752 -106 callsubr
          142 942 -87 callgsubr
        </CharString>
        <CharString name="acircumflex">
          -54 callgsubr
          63 461 -21 callgsubr
          -967 730 -106 callsubr
          -86 908 -96 callsubr
        </CharString>
        <CharString name="acute">
          0 callsubr
          174 1247 -94 callsubr
        </CharString>
        <CharString name="acute.cap">
          -424 1624 -20 hstem
          55 568 vstem
          119 1629 -95 callsubr
        </CharString>
        <CharString name="adieresis">
          -54 callgsubr
          64 434 -21 callgsubr
          -1016 888 -106 callsubr
          409 909 -104 callgsubr
        </CharString>
        <CharString name="ae">
          417 1 -21 1223 -20 hstem
          45 1448 vstem
          -84 callsubr
          endchar
        </CharString>
        <CharString name="aeacute">
          417 1 -21 1223 -20 64 -7 callsubr
          45 1448 -933 523 hintmask 11010000
          -84 callsubr
          hintmask 00101000
          209 909 -94 callsubr
        </CharString>
        <CharString name="agrave">
          -54 callgsubr
          64 485 -21 callgsubr
          -947 523 -106 callsubr
          217 909 -83 callsubr
        </CharString>
        <CharString name="amacron">
          -54 callgsubr
          154 271 -21 callgsubr
          -238 8 -106 callsubr
          -195 999 -85 callgsubr
        </CharString>
        <CharString name="ampersand">
          328 1 -21 1207 -20 hstem
          434 28 231 33 430 13 vstem
          148 -26 callgsubr
          96 -74 302 -83 181 -10 156 20 176 100 79 101 rrcurveto
          131 -7 130 -21 131 vhcurveto
          13 12 62 -42 62 -34 64 -26 rlinecurve
          35 18 64 108 137 vvcurveto
          57 -12 61 -35 61 vhcurveto
          -263 -70 -188 70 -80 -39 -50 -122 -15 -82 rlinecurve
          18 -150 40 -150 39 -152 -114 -10 -204 49 -80 42 -6 51 0 83 5 67 32 34 rcurveline
          41 -23 51 -22 29 -4 81 36 71 200 -77 123 -34 -3 -44 -8 -33 -14 -81 336 rcurveline
          62 48 106 -111 271 -110 87 -4 rlinecurve
          55 27 128 190 -54 254 -343 -31 rcurveline
          -62 32 -242 58 -61 9 -125 -27 -202 -181 -20 -109 78 -205 48 -108 145 -194 -82 -36 -88 -68 -52 -60 -47 -86 2 -192 43 -136 rrcurveto
          endchar
        </CharString>
        <CharString name="aogonek">
          78 -39 callsubr
          438 -47 callgsubr
          hstemhm
          45 1149 -509 509 hintmask 11011100
          116 146 rmoveto
          -22 callgsubr
          hintmask 10111010
          39 -28 35 -24 36 2 18 1 18 7 20 16 96 82 119 269 55 141 15 -7 rcurveline
          -14 -90 -10 -78 -10 -101 -9 -89 34 -25 25 -27 36 -39 45 -31 45 -16 rrcurveto
          -77 -59 -78 -76 -83 vvcurveto
          -64 callsubr
          37 69 75 129 47 75 rlinecurve
          37 49 33 61 28 65 -85 121 rcurveline
          -173 -92 99 234 81 455 -81 callsubr
          -69 119 -23 callsubr
          -37 -124 -157 rrcurveto
          hintmask 11011100
          -19 -25 -7 -14 -16 vvcurveto
          -13 3 -15 8 -27 vhcurveto
          46 -157 20 -260 -158 -54 -6 -91 -28 vvcurveto
          304 206 rmoveto
          26 121 16 117 122 vvcurveto
          107 vlineto
          64 -15 66 -11 80 -20 rrcurveto
          -84 1 44 -3 -40 9 callgsubr
          endchar
        </CharString>
        <CharString name="approxequal">
          44 89 957 hstem
          32 1091 vstem
          153 594 -45 callgsubr
          126 -613 -45 callgsubr
          endchar
        </CharString>
        <CharString name="aring">
          -79 callsubr
          hintmask 00000000
          121 890 -95 callgsubr
        </CharString>
        <CharString name="asciicircum">
          93 332 1117 hstem
          62 1082 vstem
          268 332 rmoveto
          307 685 367 -685 74 9 105 74 23 55 rlinecurve
          -362 975 -86 15 -206 -30 -47 -41 rlinecurve
          -57 -92 -285 -714 -39 -123 32 -54 96 -67 78 -7 rrcurveto
          endchar
        </CharString>
        <CharString name="asciitilde">
          44 374 455 hstem
          37 1086 vstem
          158 377 rmoveto
          182 132 rlineto
          -55 92 272 -80 75 hhcurveto
          152 166 216 119 26 hvcurveto
          -121 112 -175 -129 rlineto
          38 -91 -260 99 -86 hhcurveto
          -152 -175 -223 -118 -26 hvcurveto
          endchar
        </CharString>
        <CharString name="asterisk">
          -35 1618 -20 hstem
          37 1007 vstem
          385 596 rmoveto
          135 369 8 -2 41 -127 56 -135 53 -89 rlinecurve
          121 15 104 59 61 101 -308 244 rcurveline
          5 10 rlineto
          -8 57 83 -11 73 hhcurveto
          45 57 4 11 49 hvcurveto
          13 38 6 42 42 vvcurveto
          86 -26 83 -51 48 vhcurveto
          -317 -225 -5 4 -1 3 -6 4 rlinecurve
          138 456 rlineto
          22 -44 -69 9 -44 hhcurveto
          -78 -74 -30 -49 -53 hvcurveto
          6 -87 28 -219 39 -94 -13 -8 rcurveline
          -275 241 -96 -65 -57 -138 -9 -120 rlinecurve
          -31 98 130 -12 111 11 27 1 11 hhcurveto
          2 -11 -114 -65 -105 -84 -89 -108 rlinecurve
          -81 47 103 -93 116 hhcurveto
          endchar
        </CharString>
        <CharString name="at">
          588 -192 247 hstem
          742 202 607 47 vstem
          330 -76 rmoveto
          333 -234 729 53 236 152 24 100 -52 144 -49 94 -216 -156 -143 -21 -69 -1 -51 -1 -63 34 -45 48 -20 22 -28 20 8 72 8 82 9 69 12 73 -21 5 rcurveline
          -44 -114 -83 -224 -77 -65 -16 -14 -14 -5 -15 -1 -29 -2 -29 19 -32 23 -40 28 -67 24 -1 42 rrcurveto
          23 4 74 -1 43 vhcurveto
          -3 128 -19 211 -39 128 rrcurveto
          -7 21 -3 12 11 vvcurveto
          13 5 11 15 21 vhcurveto
          96 129 166 27 31 5 87 -60 63 -97 49 -83 rrcurveto
          -1 96 -5 77 26 vvcurveto
          11 17 57 12 62 hhcurveto
          99 68 -30 -68 58 hvcurveto
          6 -52 -66 -369 -80 -189 268 -4 rcurveline
          75 111 49 89 38 161 rrcurveto
          425 12 -347 279 -346 hhcurveto
          -246 -274 -84 -123 -118 hvcurveto
          -63 -113 -60 -292 -3 -208 -3 -208 87 -293 117 -137 rrcurveto
          382 424 rmoveto
          36 -20 67 66 100 192 29 64 rlinecurve
          1 61 -203 43 1 -105 2 -98 -12 -98 -21 -105 rlinecurve
          endchar
        </CharString>
        <CharString name="atilde">
          -54 callgsubr
          73 415 -21 callgsubr
          -1000 842 -106 callsubr
          -161 927 -85 callsubr
        </CharString>
        <CharString name="b">
          24 -28 callgsubr
          451 -20 hstem
          47 1057 vstem
          -66 callgsubr
          endchar
        </CharString>
        <CharString name="backslash">
          -328 1605 -20 hstem
          47 618 vstem
          393 1660 rmoveto
          -74 26 -194 -32 -78 -49 361 -1844 rcurveline
          103 -3 78 23 76 53 rrcurveto
          endchar
        </CharString>
        <CharString name="bar">
          -467 1838 11 hstem
          142 338 vstem
          200 -293 rmoveto
          88 -30 84 3 98 31 10 2127 rcurveline
          -89 26 -184 -23 -65 -45 rrcurveto
          endchar
        </CharString>
        <CharString name="braceleft">
          -264 566 83 889 265 hstemhm
          392 216 -137 170 hintmask 11100000
          317 -232 rmoveto
          141 -52 110 -20 170 22 38 186 rcurveline
          -179 67 55 602 rlineto
          hintmask 11010000
          -21 59 -72 65 -88 68 rrcurveto
          15 vlineto
          57 49 53 47 59 83 rrcurveto
          1 1 618 vlineto
          57 -38 64 -9 65 13 23 88 6 83 -4 88 rrcurveto
          -132 -102 14 32 -130 hvcurveto
          -52 -10 -103 -71 -35 -71 83 -758 rcurveline
          -48 -59 -44 36 -47 36 -18 13 rlinecurve
          -143 -54 -21 -217 80 -115 68 -22 61 7 56 27 47 -44 rcurveline
          endchar
        </CharString>
        <CharString name="braceright">
          -264 -292 2140 hstem
          27 738 vstem
          83 -13 rmoveto
          -23 -88 -6 -53 4 -91 291 -47 rcurveline
          52 10 103 71 35 71 -61 757 rcurveline
          48 59 109 -84 143 54 21 217 -80 115 rlinecurve
          -69 22 -61 -7 -56 -28 -46 45 rcurveline
          77 779 -141 52 -188 20 -170 -22 rlinecurve
          -38 -186 202 -67 -10 -614 24 -52 57 -60 88 -68 rlinecurve
          -15 vlineto
          -57 -49 -68 -61 -44 -69 rrcurveto
          -1 -1 vlineto
          45 -645 -57 31 -58 10 -65 -6 rlinecurve
          endchar
        </CharString>
        <CharString name="bracketleft">
          -406 -291 2140 hstem
          601 82 vstem
          207 -245 rmoveto
          394 -46 38 196 -177 67 22 1606 62 -29 50 -11 62 6 rlinecurve
          23 88 6 83 -4 88 -383 46 rcurveline
          -151 -125 rlineto
          endchar
        </CharString>
        <CharString name="bracketright">
          -406 -292 2141 hstem
          31 29 vstem
          56 -18 rmoveto
          -23 -88 -6 -52 4 -88 322 -46 rcurveline
          151 125 3 1969 -447 47 -49 -216 50 -38 70 -19 48 -11 rlinecurve
          73 -1617 -62 29 -72 11 -62 -6 rlinecurve
          endchar
        </CharString>
        <CharString name="breve">
          -311 1280 425 hstem
          31 752 vstem
          404 1280 -87 callgsubr
        </CharString>
        <CharString name="breve.cap">
          -311 1619 -20 hstem
          31 752 vstem
          404 1619 -86 callgsubr
        </CharString>
        <CharString name="brokenbar">
          -480 513 12 1313 11 hstemhm
          156 321 -288 283 hintmask 00000000
          hintmask 11010000
          170 791 rmoveto
          101 -21 101 1 103 27 5 1040 rcurveline
          -89 26 -184 -23 -65 -45 rrcurveto
          hintmask 11100000
          58 -2089 rmoveto
          88 -30 84 3 98 31 4 788 rcurveline
          -95 28 -98 6 -103 -20 rrcurveto
          endchar
        </CharString>
        <CharString name="bullet">
          -338 332 593 hstem
          60 618 vstem
          60 599 rmoveto
          46 -130 109 -84 121 -53 105 35 201 144 36 153 -79 111 -123 108 -149 42 -59 -39 -189 -230 -19 -57 rrcurveto
          endchar
        </CharString>
        <CharString name="c">
          -214 1 -65 callgsubr
          hstem
          462 9 vstem
          -93 callgsubr
          endchar
        </CharString>
        <CharString name="cacute">
          -214 1 -65 callgsubr
          63 -7 callsubr
          212 523 -273 9 hintmask 11001000
          -93 callgsubr
          hintmask 00110000
          144 1120 -94 callsubr
        </CharString>
        <CharString name="caron">
          -207 1269 442 hstem
          99 746 vstem
          350 1279 -82 callsubr
        </CharString>
        <CharString name="caron.cap">
          -207 1609 411 hstem
          98 740 vstem
          323 1614 -89 callsubr
        </CharString>
        <CharString name="caronvertical">
          -700 1014 599 hstem
          30 343 vstem
          184 1014 -28 callsubr
        </CharString>
        <CharString name="ccaron">
          -214 1 -65 callgsubr
          85 442 hstemhm
          107 746 -391 9 hintmask 11001000
          -93 callgsubr
          hintmask 00110000
          191 1152 -82 callsubr
        </CharString>
        <CharString name="ccedilla">
          -214 -408 543 -134 -65 callgsubr
          hstemhm
          220 536 -294 9 hintmask 01110000
          167 -6 callgsubr
          -22 27 144 -125 88 hhcurveto
          2 hlineto
          67 -149 rlineto
          -31 callsubr
          -23 callgsubr
          rrcurveto
          hintmask 10110000
          -59 callgsubr
          -129 202 rcurveline
          113 73 105 106 29 54 -101 153 rcurveline
          -112 -60 -158 -79 -48 -20 -19 16 rcurveline
          hintmask 01101000
          37 175 5 270 -16 144 62 -84 70 -112 102 -60 51 15 165 180 -35 231 -186 48 rcurveline
          23 -50 -120 74 -60 hhcurveto
          -63 -122 -61 -31 -52 hvcurveto
          -52 -31 -127 -94 -57 vvcurveto
          -13 7 -20 9 -28 vhcurveto
          39 -114 21 -251 -185 vvcurveto
          -104 -38 -16 84 -72 vhcurveto
          endchar
        </CharString>
        <CharString name="ccircumflex">
          -214 1 -65 callgsubr
          62 461 hstemhm
          101 730 -369 9 hintmask 11001000
          -93 callgsubr
          hintmask 00110000
          75 1119 -96 callsubr
        </CharString>
        <CharString name="cdotaccent">
          -214 1 -65 callgsubr
          63 -13 callsubr
          220 446 -204 9 hintmask 11001000
          -93 callgsubr
          hintmask 00110000
          270 1120 rmoveto
          -103 callsubr
        </CharString>
        <CharString name="cedilla">
          -563 -408 543 hstem
          8 536 vstem
          30 -130 -46 callsubr
        </CharString>
        <CharString name="cent">
          -154 1 -65 callgsubr
          hstemhm
          401 180 -145 23 hintmask 11100000
          161 -6 callgsubr
          16 -13 59 -48 64 -38 -51 -292 rcurveline
          70 -81 160 -26 102 71 -8 89 -11 120 -21 97 151 62 179 154 37 68 -101 153 rcurveline
          hintmask 11010000
          -112 -60 -188 -79 -48 -20 -19 16 rcurveline
          37 175 -25 280 -16 144 62 -84 130 -102 102 -60 51 15 165 180 -35 231 -206 48 rcurveline
          -46 19 84 362 rlineto
          25 -26 -65 11 -54 hhcurveto
          hintmask 11100000
          -95 -58 -27 -70 -44 hvcurveto
          26 -246 -66 -13 -98 -49 -45 -27 rlinecurve
          -52 -31 -127 -94 -57 vvcurveto
          -13 7 -20 9 -28 vhcurveto
          39 -114 21 -251 -185 vvcurveto
          -104 -38 -16 84 -72 vhcurveto
          endchar
        </CharString>
        <CharString name="circumflex">
          -207 1246 461 hstem
          74 730 vstem
          215 1246 -96 callsubr
        </CharString>
        <CharString name="circumflex.cap">
          -207 1609 398 hstem
          98 710 vstem
          239 1609 -101 callsubr
        </CharString>
        <CharString name="colon">
          -425 -34 509 258 509 hstemhm
          70 531 hintmask 10100000
          70 195 -71 callsubr
          hintmask 01100000
          767 vmoveto
          -33 callgsubr
        </CharString>
        <CharString name="comma">
          -465 -244 695 hstem
          -11 560 vstem
          -11 -176 -20 callsubr
        </CharString>
        <CharString name="commaaccent">
          -657 -537 450 hstem
          30 452 vstem
          98 -91 rmoveto
          -88 callsubr
        </CharString>
        <CharString name="copyright">
          317 213 1314 -205 205 hstemhm
          151 216 678 238 hintmask 00000000
          hintmask 10110000
          183 405 rmoveto
          16 -111 415 -105 140 -13 76 12 378 116 31 106 rrcurveto
          36 131 40 343 210 vvcurveto
          118 -5 90 -46 55 vhcurveto
          111 -93 -370 96 -96 hhcurveto
          -66 -413 -110 -94 -72 hvcurveto
          -36 -46 1 -128 -72 vvcurveto
          -193 28 -287 36 -229 vhcurveto
          283 134 rmoveto
          hintmask 01110000
          -67 58 30 14 84 vvcurveto
          150 -17 113 -31 92 vhcurveto
          -8 23 -6 16 11 vvcurveto
          45 104 77 41 25 vhcurveto
          25 42 99 50 52 hhcurveto
          48 97 -60 -19 41 hvcurveto
          150 -39 29 -187 -134 -146 -42 -12 rlinecurve
          -76 46 -54 82 -48 65 -24 -10 rcurveline
          11 -111 9 -118 -28 -134 15 -12 rcurveline
          40 16 128 64 90 48 81 -124 rcurveline
          -69 -37 -197 -182 -128 hhcurveto
          -71 -117 102 17 -22 hvcurveto
          endchar
        </CharString>
        <CharString name="currency">
          67 160 268 287 287 hstem
          21 1129 vstem
          237 38 rmoveto
          41 20 50 55 62 95 rrcurveto
          -28 54 91 -20 56 hhcurveto
          64 62 16 28 55 hvcurveto
          129 -173 rlineto
          81 158 132 84 4 hvcurveto
          -20 40 -62 59 -95 57 rrcurveto
          28 55 16 61 63 vvcurveto
          54 -15 79 -25 64 vhcurveto
          179 133 rlineto
          81 -132 158 -84 4 vhcurveto
          -42 -21 -63 -67 -60 -104 rrcurveto
          1 vlineto
          34 -59 -65 4 -54 hhcurveto
          -64 -59 -14 -25 -54 hvcurveto
          -144 197 rlineto
          -81 -158 -132 -84 -4 hvcurveto
          21 -44 61 -55 108 -67 rrcurveto
          -31 -59 -17 -66 -71 vvcurveto
          -46 10 -76 23 -46 vhcurveto
          -181 -133 rlineto
          -81 132 -158 84 -4 vhcurveto
          239 438 rmoveto
          -13 35 -7 33 33 vvcurveto
          41 11 41 24 45 vhcurveto
          8 15 20 3 23 hhcurveto
          56 69 -21 -26 33 hvcurveto
          11 -34 7 -33 -33 vvcurveto
          -42 -10 -41 -22 -44 vhcurveto
          -2 -3 rlineto
          -7 -14 -18 -3 -22 hhcurveto
          -57 -73 22 26 -31 hvcurveto
          endchar
        </CharString>
        <CharString name="d">
          84 1 -65 callgsubr
          429 -20 hstem
          45 1161 vstem
          -72 callgsubr
          97 137 67 160 -88 121 rcurveline
          -171 -92 -80 callsubr
          endchar
        </CharString>
        <CharString name="dagger">
          -107 933 13 668 -20 hstem
          945 7 vstem
          397 -268 rmoveto
          2 callsubr
          15 1163 -43 callgsubr
          endchar
        </CharString>
        <CharString name="daggerdbl">
          -107 396 294 243 13 668 -20 hstem
          945 7 vstem
          61 396 rmoveto
          306 hlineto
          30 -664 rlineto
          2 callsubr
          8 626 rlineto
          220 hlineto
          -14 callgsubr
          -285 -22 rcurveline
          4 266 -43 callgsubr
          13 -289 -239 -19 -24 callgsubr
          endchar
        </CharString>
        <CharString name="dcaron">
          328 1 -21 956 687 -419 -20 429 -20 hstemhm
          45 1217 -124 416 hintmask 10111000
          -72 callgsubr
          153 168 67 160 -88 121 rcurveline
          -227 -123 -80 callsubr
          hintmask 01000100
          836 597 -71 callgsubr
          endchar
        </CharString>
        <CharString name="dcroat">
          95 1 -14 callsubr
          1169 25 vstem
          -72 callgsubr
          97 137 67 160 -88 121 rcurveline
          -171 -92 51 172 29 372 14 288 rlinecurve
          53 1 39 1 20 2 45 64 12 126 -41 77 -120 -12 rcurveline
          1 67 0 45 -2 13 rrcurveto
          66 -71 -83 23 -92 hhcurveto
          -96 -77 -26 -28 -23 hvcurveto
          1 -15 10 -81 14 -104 -191 -16 rcurveline
          -14 -59 4 -71 24 -65 69 -3 68 -2 67 -1 15 -121 13 -119 7 -76 -21 -2 rcurveline
          -62 103 -71 119 -108 74 -39 -5 -201 -37 -121 -157 rrcurveto
          -19 -25 -6 -14 -16 vvcurveto
          -13 4 -15 8 -27 vhcurveto
          76 -261 -7 -178 4 -225 rrcurveto
          300 206 rmoveto
          24 121 14 117 -2 122 -2 23 rcurveline
          64 -15 67 -11 80 -20 -1 -6 rcurveline
          -32 -70 -108 -202 -74 -73 rrcurveto
          endchar
        </CharString>
        <CharString name="degree">
          -138 584 245 391 290 hstemhm
          57 295 260 309 hintmask 00000000
          hintmask 11110000
          479 584 rmoveto
          291 151 220 259 249 -124 198 -301 -290 -149 -208 -256 -254 130 -208 292 hvcurveto
          -75 268 rmoveto
          -30 55 -22 70 69 vvcurveto
          62 19 61 33 47 vhcurveto
          3 16 15 1 16 hhcurveto
          36 37 -7 -11 36 hvcurveto
          31 -49 21 -68 -70 vvcurveto
          -64 -18 -65 -30 -51 vhcurveto
          -4 -20 -21 -2 -19 hhcurveto
          -43 -37 9 14 -20 hvcurveto
          endchar
        </CharString>
        <CharString name="dieresis">
          -106 1247 434 hstem
          90 888 vstem
          775 1247 -104 callgsubr
        </CharString>
        <CharString name="dieresis.cap">
          -106 1586 434 hstem
          90 888 vstem
          775 1586 -104 callgsubr
        </CharString>
        <CharString name="divide">
          -117 -20 1214 -754 314 hstemhm
          293 405 207 7 hintmask 10100000
          473 805 rmoveto
          70 22 132 95 1 callsubr
          -151 -11 -37 29 -86 72 -55 79 -34 rrcurveto
          -180 -650 rmoveto
          29 -86 72 -55 79 -34 70 23 132 94 1 callsubr
          -150 -11 -38 rrcurveto
          hintmask 01010000
          -202 285 -19 callgsubr
        </CharString>
        <CharString name="dollar">
          -136 -221 1945 hstem
          410 200 vstem
          130 135 rmoveto
          46 -8 78 -11 92 -10 -58 -250 rcurveline
          70 -81 150 -26 102 71 -8 86 -10 98 -20 86 107 44 85 68 78 76 24 70 13 134 -5 83 -77 97 -276 177 -92 49 9 215 rcurveline
          26 9 68 -93 146 -103 82 -34 rlinecurve
          109 93 65 212 -35 121 -161 54 rcurveline
          -15 6 -17 5 -18 4 64 311 rcurveline
          -15 callgsubr
          -78 -37 -70 -44 hvcurveto
          31 -235 -67 -19 -76 -37 -44 -26 rlinecurve
          -45 -27 -133 -99 -59 vvcurveto
          -42 1 -262 21 -79 vhcurveto
          54 -70 173 -79 129 -48 44 -16 39 -13 27 -8 3 -37 -2 -84 -7 -38 -49 -24 rcurveline
          -109 80 -127 55 -141 4 -16 -34 -86 -103 100 -182 rrcurveto
          endchar
        </CharString>
        <CharString name="dotaccent">
          -650 1247 434 hstem
          20 446 vstem
          237 1247 rmoveto
          -103 callsubr
        </CharString>
        <CharString name="dotaccent.cap">
          -650 1566 434 hstem
          20 446 vstem
          237 1566 rmoveto
          -103 callsubr
        </CharString>
        <CharString name="dotlessi">
          -501 1 -21 hstem
          26 594 vstem
          63 212 -83 callgsubr
        </CharString>
        <CharString name="dotlessj">
          -552 -39 callsubr
          hstem
          -51 562 vstem
          -25 -109 rmoveto
          -18 -60 -13 -36 -75 callgsubr
          -52 9 -37 8 rlinecurve
          endchar
        </CharString>
        <CharString name="e">
          -167 1 -65 callgsubr
          hstem
          45 863 vstem
          -106 callgsubr
          endchar
        </CharString>
        <CharString name="eacute">
          -167 1 -65 callgsubr
          63 -7 callsubr
          45 863 -690 523 hintmask 11010000
          -106 callgsubr
          hintmask 00101000
          -108 830 -94 callsubr
        </CharString>
        <CharString name="ebreve">
          -167 1 -65 callgsubr
          96 425 hstemhm
          45 863 -805 752 hintmask 11010000
          -106 callgsubr
          hintmask 00101000
          51 863 -87 callgsubr
        </CharString>
        <CharString name="ecaron">
          -167 1 -65 callgsubr
          85 442 hstemhm
          45 863 -795 746 hintmask 11010000
          -106 callgsubr
          hintmask 00101000
          -61 862 -82 callsubr
        </CharString>
        <CharString name="ecircumflex">
          -167 1 -65 callgsubr
          62 461 hstemhm
          45 863 -801 730 hintmask 11010000
          -106 callgsubr
          hintmask 00101000
          -177 829 -96 callsubr
        </CharString>
        <CharString name="edieresis">
          -167 1 -65 callgsubr
          63 -13 callsubr
          45 863 -850 888 hintmask 11010000
          -106 callgsubr
          hintmask 00101000
          318 830 -104 callgsubr
        </CharString>
        <CharString name="edotaccent">
          -167 1 -65 callgsubr
          63 -13 callsubr
          45 863 -648 446 hintmask 11010000
          -106 callgsubr
          hintmask 00101000
          52 830 rmoveto
          -103 callsubr
        </CharString>
        <CharString name="egrave">
          -167 1 -65 callgsubr
          63 -7 callsubr
          45 863 -781 523 hintmask 11010000
          -106 callgsubr
          hintmask 00101000
          126 830 -83 callsubr
        </CharString>
        <CharString name="eight">
          -29 -34 1581 hstemhm
          56 295 -295 977 hintmask 00000000
          hintmask 10100000
          87 138 rmoveto
          122 -116 244 -55 117 -1 126 37 200 70 99 112 50 121 -5 116 -25 116 -284 238 rcurveline
          117 91 122 150 42 90 13 113 -19 89 -21 66 -122 116 -244 55 -117 1 rrcurveto
          hintmask 11000000
          -119 -6 -221 -117 -71 -78 -58 -112 45 -230 46 -83 rrcurveto
          -1 vlineto
          199 -169 -114 -89 -125 -118 -24 -138 rlinecurve
          -13 -113 19 -89 21 -66 rrcurveto
          502 758 rmoveto
          -18 18 -37 37 -27 29 -40 43 -52 54 -39 38 10 103 rcurveline
          39 18 85 -1 73 -25 66 -41 rlinecurve
          -13 -123 -12 -61 -35 -89 rrcurveto
          -234 -555 rmoveto
          -8 92 20 31 71 117 43 50 rlinecurve
          215 -213 -9 -122 -40 -18 -101 -9 -98 25 -93 47 rlinecurve
          endchar
        </CharString>
        <CharString name="ellipsis">
          654 -34 509 hstem
          15 531 59 531 59 531 cntrmask 01110000
          1195 195 -71 callsubr
          -590 hmoveto
          -87 callsubr
          -590 hmoveto
          -33 callgsubr
        </CharString>
        <CharString name="emacron">
          -167 1 -65 callgsubr
          153 271 hstemhm
          45 863 -72 8 hintmask 11010000
          -106 callgsubr
          hintmask 00101000
          -286 920 -85 callgsubr
        </CharString>
        <CharString name="emdash">
          905 430 324 hstem
          1907 -9 callgsubr
          1267 9 84 7 -5 callgsubr
          -1740 -65 -11 callgsubr
        </CharString>
        <CharString name="endash">
          241 430 324 hstem
          1226 -9 callgsubr
          586 9 84 7 -5 callgsubr
          -1059 -65 -11 callgsubr
        </CharString>
        <CharString name="eng">
          -8 -39 callsubr
          439 -21 hstem
          492 22 vstem
          73 66 rmoveto
          46 -54 106 -30 96 -2 69 -2 70 12 49 34 -11 134 -32 105 -29 97 80 146 66 132 70 143 28 -9 rcurveline
          -27 -378 5 -528 -56 8 -52 9 -37 8 rlinecurve
          -16 -60 -12 -36 9 -76 36 -46 121 -89 121 -22 rrcurveto
          122 130 128 56 6 hvcurveto
          9 192 -84 325 -26 102 88 219 72 297 5 157 rrcurveto
          106 -88 -131 36 -129 hhcurveto
          -48 -46 -3 -12 -38 hvcurveto
          -96 -212 -49 -220 -74 -219 -16 3 rcurveline
          95 626 rlineto
          28 -30 -52 9 -62 hhcurveto
          -108 -146 -39 5 callgsubr
          -29 -80 -18 -61 -33 -161 rrcurveto
          endchar
        </CharString>
        <CharString name="eogonek">
          -167 -39 callsubr
          439 -65 callgsubr
          hstemhm
          45 863 -550 525 hintmask 11101000
          164 -6 callgsubr
          11 -9 24 -18 28 -25 13 -11 13 -13 13 -13 rrcurveto
          -43 41 32 -15 33 hhcurveto
          71 83 33 48 79 hvcurveto
          11 -6 rlineto
          -100 -82 -158 -116 -92 vvcurveto
          -81 150 -122 97 116 79 64 131 67 vhcurveto
          -47 127 -196 -67 -14 13 81 156 101 157 91 156 rlinecurve
          -85 139 -129 -62 -129 -79 -68 -13 rlinecurve
          -29 hlineto
          178 160 251 277 16 29 23 44 2 87 -10 65 -10 61 -6 3 -20 8 -99 36 -54 14 -159 106 -35 23 -24 6 -19 1 rrcurveto
          -73 -124 -58 -37 -60 hvcurveto
          hintmask 11110000
          -51 -32 -124 -95 -60 vvcurveto
          -12 4 -15 8 -27 vhcurveto
          26 -86 34 -246 -198 vvcurveto
          -104 -35 -33 82 -74 vhcurveto
          261 290 rmoveto
          1 -11 callsubr
          vvcurveto
          13 101 10 254 56 vvcurveto
          91 -29 68 -20 35 -8 -58 -136 -114 -153 -46 -68 rrcurveto
          endchar
        </CharString>
        <CharString name="equal">
          -23 210 696 hstem
          989 7 vstem
          101 602 rmoveto
          -12 callgsubr
          -392 vmoveto
          -12 callgsubr
          endchar
        </CharString>
        <CharString name="eth">
          -43 1 -14 callsubr
          564 66 vstem
          126 136 rmoveto
          92 -73 211 -71 133 -12 65 7 60 22 85 43 57 29 82 49 25 30 rrcurveto
          34 124 43 276 199 vvcurveto
          60 vlineto
          78 -3 92 -16 69 vhcurveto
          -108 113 -134 120 -152 103 139 144 rcurveline
          -37 91 -124 35 -59 7 -127 -154 rcurveline
          -76 39 -79 32 -81 25 rrcurveto
          -50 -22 -67 -121 -51 vvcurveto
          181 -111 -115 -140 25 -71 81 -27 67 -11 rlinecurve
          126 130 68 -57 62 -60 58 -66 rlinecurve
          -4 -7 -36 7 -35 5 -31 3 rlinecurve
          -102 -14 -245 -90 -59 -74 rrcurveto
          -13 -84 -5 -98 -74 vvcurveto
          -169 28 -145 36 -130 vhcurveto
          302 166 rmoveto
          -8 64 -3 85 55 vvcurveto
          49 3 49 6 74 vhcurveto
          189 161 16 -4 rlineto
          10 -109 7 -121 -116 vvcurveto
          -77 -3 -76 -6 -68 vhcurveto
          -55 -38 -63 19 -52 26 -41 27 rlinecurve
          endchar
        </CharString>
        <CharString name="exclam">
          -425 1613 -20 hstem
          81 531 vstem
          165 655 rmoveto
          84 -105 232 49 40 88 -64 277 rcurveline
          116 602 -36 30 -57 19 -57 -2 rlinecurve
          -135 -4 -138 -56 -65 -86 32 -244 42 -87 58 -223 -24 -82 -17 -86 -11 -90 rrcurveto
          -84 -460 rmoveto
          -33 callgsubr
        </CharString>
        <CharString name="exclamdown">
          -425 -436 20 hstem
          81 531 vstem
          528 522 rmoveto
          -84 105 -232 -49 -40 -88 64 -277 rcurveline
          -116 -602 36 -30 57 -19 57 2 rlinecurve
          135 4 138 56 65 86 -32 244 -42 87 -58 223 24 82 17 86 11 90 rrcurveto
          84 460 -36 callsubr
        </CharString>
        <CharString name="f">
          -372 -39 callsubr
          2051 -20 hstem
          685 29 38 11 vstem
          -76 callgsubr
          -20 345 -9 callsubr
          59 200 -2 callgsubr
          -51 callgsubr
          endchar
        </CharString>
        <CharString name="f_f">
          372 -39 callsubr
          2051 -20 hstem
          685 29 330 11 374 29 38 11 -63 callsubr
          -40 -27 callgsubr
          222 -12 callsubr
          -77 rcurveline
          -20 345 -9 callsubr
          59 200 -2 callgsubr
          -64 -26 -54 -33 -45 -36 -160 12 -288 53 -133 30 -51 callgsubr
          endchar
        </CharString>
        <CharString name="f_f_i">
          987 -39 callsubr
          439 -21 1615 -20 38 -20 hstemhm
          685 29 330 11 374 29 535 13 hintmask 11101111
          -78 callgsubr
          321 29 -41 173 -78 160 -47 rlinecurve
          26 -272 113 -651 38 -396 -203 31 rcurveline
          -82 callgsubr
          -19 326 166 -90 397 -47 201 19 rlinecurve
          hintmask 11011111
          70 65 46 245 -37 74 -220 -28 -363 2 -281 53 -76 -31 -62 -44 -50 -46 -163 15 -273 50 -128 29 -51 callgsubr
          1350 355 -83 callgsubr
        </CharString>
        <CharString name="f_f_l">
          998 -39 callsubr
          439 -14 callsubr
          685 29 330 11 374 29 67 131 -63 callsubr
          -20 -27 callgsubr
          202 -12 callsubr
          -45 rcurveline
          -19 292 21 -29 56 -57 74 -30 rlinecurve
          -29 71 90 -23 90 hhcurveto
          22 -178 31 -225 32 -168 -38 callgsubr
          -61 callsubr
          -94 -1 -100 -41 -70 -56 -132 16 -192 55 -129 27 -64 -26 -54 -33 -45 -36 -160 12 -288 53 -133 30 -51 callgsubr
          endchar
        </CharString>
        <CharString name="f_i">
          243 -39 callsubr
          439 -4 callsubr
          31 -20 hstemhm
          685 29 535 13 hintmask 00000000
          hintmask 11011100
          -78 callgsubr
          310 166 -90 397 -31 201 19 rlinecurve
          hintmask 11101100
          70 65 46 245 -37 74 rrcurveto
          hintmask 11011100
          -220 -28 -363 -14 -281 53 -253 -103 -96 -221 -17 -38 1 -184 138 -773 43 -448 rrcurveto
          606 355 -83 callgsubr
        </CharString>
        <CharString name="f_l">
          254 -39 callsubr
          439 -14 callsubr
          685 29 67 131 vstem
          -78 callgsubr
          305 rlineto
          -57 41 178 -92 183 hhcurveto
          22 -178 31 -225 32 -168 -38 callgsubr
          -61 callsubr
          -78 -1 -110 -40 -75 -57 -132 16 -192 55 -130 27 -51 callgsubr
          endchar
        </CharString>
        <CharString name="five">
          -67 338 23 28 11 805 -20 hstem
          49 946 vstem
          49 -17 rmoveto
          -17 1 -22 7 -23 vhcurveto
          -120 87 148 -92 205 hhcurveto
          339 159 227 301 225 -124 196 -233 -4 hvcurveto
          -82 -22 -85 -73 -65 -64 -6 5 rcurveline
          29 365 114 -60 237 -50 73 -4 rlinecurve
          35 18 76 120 137 vvcurveto
          57 -12 61 -35 61 vhcurveto
          -375 -70 -61 10 -198 49 -55 11 rlinecurve
          -80 -39 -62 -118 -3 -86 149 -469 rcurveline
          -140 8 -24 -33 -9 -39 2 -39 rlinecurve
          3 -102 86 -124 70 -21 73 14 98 109 38 74 170 6 rcurveline
          22 -20 16 -85 -81 vvcurveto
          -85 -21 -80 -21 -12 vhcurveto
          -4 -26 -32 -2 -25 hhcurveto
          -143 -130 67 63 -129 hvcurveto
          -39 -35 -22 -35 -54 vvcurveto
          endchar
        </CharString>
        <CharString name="florin">
          -254 -39 callsubr
          2051 -20 hstem
          779 21 73 12 vstem
          46 -99 rmoveto
          -20 -60 -13 -46 4 -76 78 -76 128 -67 105 -14 103 9 114 87 38 61 13 21 10 22 3 24 -47 1008 rcurveline
          192 -2 54 73 4 155 -33 68 rlinecurve
          -229 -49 -20 287 44 -58 65 -51 150 -28 rlinecurve
          68 65 54 240 -38 74 -113 -3 -87 11 -164 37 rrcurveto
          -270 -100 -84 -251 0 vvcurveto
          32 -245 -95 -12 -33 -55 -13 -79 15 -71 rlinecurve
          155 -2 123 -935 -104 4 -153 26 -36 8 rlinecurve
          endchar
        </CharString>
        <CharString name="four">
          82 1181 -20 hstem
          36 32 vstem
          171 39 rmoveto
          53 10 69 43 48 51 380 -65 rcurveline
          -46 -329 41 -29 122 -14 71 1 rlinecurve
          8 callgsubr
          228 -18 57 63 278 33 394 -9 74 rrcurveto
          10 -23 -26 5 -26 hhcurveto
          -224 -148 -179 1 21 hvcurveto
          89 -433 -306 22 267 760 rlineto
          48 -37 -102 7 -42 hhcurveto
          -104 -110 -34 -81 -62 hvcurveto
          -66 -680 -111 14 -84 -137 94 -203 93 -21 rlinecurve
          endchar
        </CharString>
        <CharString name="fraction">
          272 -112 1688 hstem
          48 1312 vstem
          48 35 -60 callgsubr
        </CharString>
        <CharString name="g">
          27 -39 callsubr
          440 -52 callsubr
          hstemhm
          45 1063 hintmask 00000000
          hintmask 11011000
          116 -26 callgsubr
          -22 callgsubr
          39 -28 35 -24 36 2 18 1 18 7 20 16 95 82 112 224 79 226 13 -9 rcurveline
          -2 -188 25 -299 -9 -195 rrcurveto
          hintmask 11101000
          -93 -205 26 22 -98 hvcurveto
          -37 callgsubr
          44 -58 182 6 callsubr
          hintmask 11011000
          15 14 1 2 14 hvcurveto
          176 60 156 147 43 166 -132 758 rcurveline
          115 201 10 86 16 77 rrcurveto
          -1 hlineto
          1 1 rlineto
          -41 callgsubr
          119 -23 callsubr
          -37 -124 -157 rrcurveto
          -19 -25 -7 -14 -16 vvcurveto
          -13 3 -15 8 -27 vhcurveto
          46 -157 20 -260 -158 -54 -6 -91 -28 vvcurveto
          304 206 rmoveto
          26 121 16 117 122 vvcurveto
          107 vlineto
          64 -15 66 -11 80 -20 rrcurveto
          -84 1 44 -3 -40 9 callgsubr
          endchar
        </CharString>
        <CharString name="gbreve">
          27 -39 callsubr
          440 -52 callsubr
          96 425 hstemhm
          45 1063 -938 752 -99 callgsubr
          93 941 -87 callgsubr
        </CharString>
        <CharString name="gcircumflex">
          27 -39 callsubr
          440 -52 callsubr
          62 461 hstemhm
          45 1063 -934 730 -99 callgsubr
          -135 907 -96 callsubr
        </CharString>
        <CharString name="gcommaaccent">
          27 -39 callsubr
          440 -52 callsubr
          126 450 hstemhm
          45 1063 -732 452 -99 callgsubr
          310 975 rmoveto
          68 389 -142 57 -85 -74 -175 -192 -50 -93 rlinecurve
          50 -86 220 -14 114 13 rrcurveto
          endchar
        </CharString>
        <CharString name="gdotaccent">
          27 -39 callsubr
          440 -52 callsubr
          63 -13 callsubr
          45 1063 -781 446 -99 callgsubr
          94 908 rmoveto
          -103 callsubr
        </CharString>
        <CharString name="germandbls">
          133 -39 callsubr
          438 -21 1634 -20 hstem
          -85 1339 vstem
          -43 -99 rmoveto
          -24 -60 -17 -46 -1 -76 28 -46 108 -89 117 -22 rrcurveto
          105 122 95 62 42 hvcurveto
          15 21 12 22 3 24 -19 1511 rcurveline
          16 14 50 -33 105 -64 66 -27 rlinecurve
          -144 -533 58 -75 217 -102 102 -45 rlinecurve
          -7 -53 -20 -84 -23 -61 -23 -7 rcurveline
          -59 76 -42 72 -123 16 -18 -30 -109 -125 83 -182 76 -19 46 -14 152 -42 108 40 105 75 75 73 36 66 76 170 3 83 -60 86 -217 156 -108 67 110 186 119 238 24 161 rrcurveto
          -181 138 -296 83 -161 12 -171 -49 -144 -126 -104 -143 -9 -184 81 -926 68 -322 -166 21 -46 9 -36 8 rrcurveto
          endchar
        </CharString>
        <CharString name="grave">
          0 callsubr
          499 1247 -83 callsubr
        </CharString>
        <CharString name="grave.cap">
          -424 1624 -20 hstem
          51 568 vstem
          555 1629 -80 callgsubr
        </CharString>
        <CharString name="greater">
          -235 10 1097 hstem
          23 782 vstem
          745 774 rmoveto
          -580 333 -54 -32 -71 -95 -17 -74 rlinecurve
          426 -309 -405 -357 17 -67 94 -140 55 -23 rlinecurve
          591 425 15 86 -30 206 -41 47 rlinecurve
          endchar
        </CharString>
        <CharString name="greaterequal">
          10 callsubr
          143 390 rmoveto
          756 208 29 106 -19 144 -34 75 rlinecurve
          -707 284 -55 -23 -55 -125 -17 -67 rlinecurve
          500 -217 -500 -181 17 -74 27 -80 58 -50 rlinecurve
          -52 -360 -18 callgsubr
        </CharString>
        <CharString name="guillemotleft">
          158 10 1097 hstemhm
          55 643 -67 643 hintmask 11000000
          115 343 rmoveto
          -59 callsubr
          hintmask 10100000
          576 hmoveto
          -59 callsubr
          endchar
        </CharString>
        <CharString name="guillemotright">
          158 10 1097 hstemhm
          0 643 -67 643 hintmask 11000000
          583 774 rmoveto
          -58 callgsubr
          hintmask 10100000
          576 hmoveto
          -58 callgsubr
          endchar
        </CharString>
        <CharString name="guilsinglleft">
          -418 10 1097 hstem
          55 643 vstem
          115 343 rmoveto
          -59 callsubr
          endchar
        </CharString>
        <CharString name="guilsinglright">
          -418 10 1097 hstem
          0 643 vstem
          583 774 rmoveto
          -58 callgsubr
          endchar
        </CharString>
        <CharString name="h">
          82 -28 callgsubr
          452 -20 hstem
          10 1187 vstem
          112 -34 callgsubr
          -25 -551 -3 -59 17 -41 47 -49 rlinecurve
          -52 49 78 -40 63 hhcurveto
          115 117 171 128 43 hvcurveto
          -89 121 -170 -89 rlineto
          91 222 71 334 171 vvcurveto
          108 -135 -144 36 -74 hhcurveto
          -57 -52 -12 -5 -21 hvcurveto
          -88 -212 -46 -220 -68 -219 -4 1 rcurveline
          -13 3 32 357 45 354 -25 callsubr
          -876 -6 callsubr
          endchar
        </CharString>
        <CharString name="hbar">
          82 1 -21 1634 -20 hstem
          859 24 vstem
          112 66 rmoveto
          48 -54 108 -30 96 -2 69 -2 70 12 47 34 -15 134 -36 105 -33 97 80 135 71 89 46 56 27 -9 rcurveline
          -9 -193 -10 -35 -1 -182 rrcurveto
          -89 29 -25 25 -27 vhcurveto
          57 -59 80 -42 62 1 116 2 124 158 35 139 -91 121 rcurveline
          -169 -89 91 222 45 208 20 156 rlinecurve
          -134 108 -145 37 -74 -1 -57 -1 -52 -10 -21 -6 -78 -174 -50 -117 -68 -219 -3 1 rcurveline
          -1 hlineto
          -13 3 40 582 192 2 163 5 37 3 rlinecurve
          45 88 32 140 -48 76 -402 -48 rcurveline
          14 200 -45 35 -45 14 -58 -1 rlinecurve
          -120 -2 -112 -65 -61 -81 -2 -10 4 -61 8 -88 -128 -24 rcurveline
          -19 -65 9 -48 24 -65 43 -2 45 -1 48 -1 34 -290 51 -369 36 -72 rrcurveto
          -1 callsubr
          endchar
        </CharString>
        <CharString name="hcircumflex">
          83 -28 callgsubr
          447 398 hstemhm
          -113 710 -586 1188 hintmask 11001000
          113 -34 callgsubr
          -26 -566 -4 -78 35 -24 23 -24 rlinecurve
          -60 57 80 -40 62 hhcurveto
          116 2 124 158 35 139 -91 121 rcurveline
          -169 -89 rlineto
          91 222 71 334 171 vvcurveto
          108 -135 -144 36 -74 hhcurveto
          -57 -52 -12 -5 -21 hvcurveto
          -88 -212 -46 -220 -68 -219 -4 1 rcurveline
          -13 3 32 357 45 269 -25 callsubr
          -791 -6 callsubr
          hintmask 00110000
          -85 1543 -101 callsubr
        </CharString>
        <CharString name="hungarumlaut">
          -192 1231 493 hstem
          20 894 vstem
          165 1231 -72 callsubr
        </CharString>
        <CharString name="hungarumlaut.cap">
          -192 1598 -20 hstem
          44 888 vstem
          596 1588 -64 callgsubr
        </CharString>
        <CharString name="hyphen">
          -149 420 318 hstem
          861 -9 callgsubr
          221 -7 84 7 -5 callgsubr
          -694 -49 -11 callgsubr
        </CharString>
        <CharString name="i">
          -501 1 -21 hstem
          26 594 vstem
          291 1207 -3 callgsubr
          153 -51 callsubr
          -108 -41 callsubr
          -228 -995 -83 callgsubr
        </CharString>
        <CharString name="i.cy">
          -501 1 -21 hstem
          26 594 vstem
          291 1207 -3 callgsubr
          153 -51 callsubr
          -108 -41 callsubr
          -228 -995 -83 callgsubr
        </CharString>
        <CharString name="iacute">
          9 callsubr
          26 594 -573 523 hintmask 10100000
          63 212 -101 callgsubr
          hintmask 01010000
          83 1035 -94 callsubr
        </CharString>
        <CharString name="ibreve">
          -501 1 -21 1300 425 hstemhm
          -104 752 -622 594 hintmask 10010000
          63 212 -101 callgsubr
          hintmask 01100000
          206 1068 -87 callgsubr
        </CharString>
        <CharString name="icircumflex">
          -501 1 -21 1266 461 hstemhm
          -100 730 -604 594 hintmask 10010000
          63 212 -101 callgsubr
          hintmask 01100000
          -22 1034 -96 callsubr
        </CharString>
        <CharString name="idieresis">
          -501 1 -21 1267 -13 callsubr
          -149 888 -713 594 hintmask 10010000
          63 212 -101 callgsubr
          hintmask 01100000
          473 1035 -104 callgsubr
        </CharString>
        <CharString name="igrave">
          9 callsubr
          -42 523 -455 594 hintmask 10010000
          63 212 -101 callgsubr
          hintmask 01100000
          319 1035 -83 callsubr
        </CharString>
        <CharString name="ij">
          63 -39 callsubr
          439 -21 1218 -20 hstemhm
          26 594 -58 17 hintmask 01010000
          291 1207 -3 callgsubr
          153 -51 callsubr
          -108 -41 callsubr
          -228 -995 -101 callgsubr
          hintmask 10101000
          814 986 -3 callgsubr
          143 -51 callsubr
          -98 -41 callsubr
          -298 -1311 rmoveto
          -18 -60 -2 -32 -75 callgsubr
          -64 10 -36 3 rlinecurve
          endchar
        </CharString>
        <CharString name="imacron">
          -461 1 -21 1357 271 hstemhm
          46 594 -38 8 hintmask 01010000
          -8 1337 rmoveto
          314 -12 186 6 70 6 45 88 14 103 -19 80 -564 -14 rcurveline
          -38 -65 -18 -98 10 -94 rrcurveto
          hintmask 10100000
          91 -1125 -83 callgsubr
        </CharString>
        <CharString name="infinity">
          341 197 862 hstem
          48 1368 vstem
          223 223 rmoveto
          -20 37 46 -6 48 hhcurveto
          93 106 27 28 50 hvcurveto
          21 24 28 39 23 28 79 91 rcurveline
          75 -95 83 -119 114 -19 rrcurveto
          -3 22 21 -1 22 hhcurveto
          71 56 13 15 45 hvcurveto
          103 109 50 215 103 vvcurveto
          -31 108 -61 171 -101 90 rrcurveto
          24 -60 -58 10 -56 hhcurveto
          -46 -47 -6 -10 -47 hvcurveto
          -212 -250 -79 96 -102 136 -76 34 rlinecurve
          3 -22 -22 1 -22 hhcurveto
          -69 -58 -14 -15 -45 hvcurveto
          -104 -108 -49 -230 -1 -102 5 -104 102 -200 68 -63 rrcurveto
          119 259 rmoveto
          -16 33 1 72 29 117 35 56 rlinecurve
          67 -27 59 -52 62 -51 -150 -156 rcurveline
          426 116 rmoveto
          164 165 103 -8 15 -34 8 -85 -21 -83 -40 -79 rlinecurve
          -78 -7 rlineto
          endchar
        </CharString>
        <CharString name="integral">
          -389 -39 callsubr
          hstem
          453 135 200 15 vstem
          33 -99 rmoveto
          -18 -60 -13 -46 6 -76 35 -46 148 -89 120 -22 rrcurveto
          105 112 96 61 36 hvcurveto
          13 21 9 22 2 24 -135 1712 rcurveline
          45 -58 42 -67 175 -12 67 65 46 240 -40 74 -107 -11 -106 19 -164 37 rrcurveto
          -271 -113 -67 -205 0 vvcurveto
          9 -184 130 -949 105 -471 -168 21 -79 9 -37 8 rrcurveto
          endchar
        </CharString>
        <CharString name="iogonek">
          -501 -39 callsubr
          262 371 hstemhm
          26 594 -518 509 -262 192 hintmask 11010000
          291 1207 -3 callgsubr
          153 -51 callsubr
          -108 -41 callsubr
          -228 -995 rmoveto
          -83 109 -91 94 -39 vhcurveto
          -80 -59 -84 -79 -86 vvcurveto
          hintmask 11001000
          -95 150 -118 97 vhcurveto
          hintmask 11010000
          116 79 64 131 67 hvcurveto
          -47 127 -196 -67 -14 13 4 8 rlineto
          hintmask 11001000
          183 276 rlineto
          hintmask 11100000
          35 49 27 53 17 40 rrcurveto
          hintmask 11001000
          -79 125 -150 -67 19 78 54 221 38 443 9 49 rlinecurve
          41 -47 -57 17 -61 hhcurveto
          hintmask 11100000
          -125 -135 -72 -73 -60 hvcurveto
          131 -521 rlineto
          -93 -262 -1 14 -37 vvcurveto
          endchar
        </CharString>
        <CharString name="itilde">
          -501 1 -21 1276 415 hstemhm
          -153 842 -663 594 hintmask 10010000
          63 212 -101 callgsubr
          hintmask 01100000
          -117 1053 -85 callsubr
        </CharString>
        <CharString name="j">
          -552 -39 callsubr
          1636 -20 hstem
          -53 17 vstem
          262 1198 -3 callgsubr
          143 -51 callsubr
          -98 -41 callsubr
          -298 -1311 rmoveto
          -18 -60 -2 -32 -75 callgsubr
          -64 10 -36 3 rlinecurve
          endchar
        </CharString>
        <CharString name="jcircumflex">
          -552 -39 callsubr
          1684 461 hstemhm
          -97 730 -684 562 hintmask 10010000
          -25 -109 rmoveto
          -18 -60 -13 -36 -75 callgsubr
          -52 9 -37 8 rlinecurve
          hintmask 01100000
          69 1355 -96 callsubr
        </CharString>
        <CharString name="k">
          -4 1 -65 callgsubr
          429 -20 hstem
          -2 1117 vstem
          -69 callsubr
          endchar
        </CharString>
        <CharString name="kcommaaccent">
          -4 -29 callsubr
          1224 -20 429 -20 hstemhm
          -2 1117 -777 452 hintmask 01111000
          -69 callsubr
          hintmask 10000100
          318 -196 rmoveto
          -88 callsubr
        </CharString>
        <CharString name="kgreenlandic">
          -27 1 -65 callgsubr
          hstem
          26 1062 vstem
          52 105 rmoveto
          44 -60 119 -59 43 -6 105 69 93 99 98 102 29 -112 51 -112 93 -29 rrcurveto
          -11 34 34 -6 32 hhcurveto
          88 -1 76 42 48 96 35 71 10 54 4 105 -115 91 rcurveline
          -40 -42 -41 -31 -40 -20 -31 32 -47 54 -19 29 126 139 100 144 39 64 6 135 -75 176 -87 86 -129 -5 -177 -103 -68 -131 34 -101 55 -47 55 -57 -77 -166 -87 -179 -98 -155 -11 5 rcurveline
          40 231 50 358 26 316 rrcurveto
          28 -30 -54 14 -62 hhcurveto
          -108 -146 -43 5 callgsubr
          -33 -72 -52 -113 -16 -106 rrcurveto
          endchar
        </CharString>
        <CharString name="l">
          -490 1 -14 callsubr
          37 595 vstem
          105 138 rmoveto
          -61 callsubr
          -119 -1 -130 -65 -64 -81 -5 -29 57 -516 60 -315 -38 callgsubr
          endchar
        </CharString>
        <CharString name="lacute">
          -490 -47 callsubr
          37 595 -594 568 hintmask 10100000
          105 138 rmoveto
          -70 59 97 -88 92 hhcurveto
          126 115 158 116 38 hvcurveto
          -80 127 -143 -67 59 605 26 290 11 316 rlinecurve
          -43 35 -55 13 -57 -1 -119 -1 -130 -65 -64 -81 -5 -29 57 -475 60 -315 -38 callgsubr
          hintmask 01010000
          -3 1491 -95 callsubr
        </CharString>
        <CharString name="lcaron">
          -239 1 -21 1044 599 -10 -20 hstemhm
          37 675 -119 343 -55 callgsubr
          642 886 -28 callsubr
        </CharString>
        <CharString name="lcommaaccent">
          -490 -29 callsubr
          1633 -20 hstemhm
          37 595 -502 452 hintmask 01110000
          105 138 rmoveto
          -61 callsubr
          -119 -1 -130 -65 -64 -81 -5 -29 57 -516 60 -315 -38 callgsubr
          hintmask 10001000
          93 -229 rmoveto
          -88 callsubr
        </CharString>
        <CharString name="ldot">
          -176 1 -21 596 434 603 -20 hstemhm
          37 675 -184 446 -55 callgsubr
          640 438 rmoveto
          -103 callsubr
        </CharString>
        <CharString name="less">
          -235 10 1097 hstem
          76 782 vstem
          136 343 rmoveto
          580 -333 54 32 71 95 17 74 rlinecurve
          -426 309 405 357 -17 67 -94 140 -55 23 rlinecurve
          -591 -425 -15 -86 30 -206 41 -47 rlinecurve
          endchar
        </CharString>
        <CharString name="lessequal">
          10 callsubr
          70 538 rmoveto
          756 -148 58 50 27 80 17 74 rlinecurve
          -500 121 500 277 -17 67 -55 125 -55 23 rlinecurve
          -707 -344 -34 -75 -19 -144 29 -106 rlinecurve
          21 -508 -18 callgsubr
        </CharString>
        <CharString name="logicalnot">
          -43 222 24 hstem
          698 250 vstem
          91 440 rmoveto
          612 1 -9 -195 98 -38 87 3 70 81 rlinecurve
          375 vlineto
          -85 78 -717 -56 -46 -78 -22 -58 3 callsubr
        </CharString>
        <CharString name="lozenge">
          102 2 -14 callsubr
          54 1090 vstem
          406 30 rmoveto
          -34 46 66 -15 68 hhcurveto
          107 114 37 49 53 hvcurveto
          284 761 -100 206 -237 551 -34 19 -45 9 -49 1 rlinecurve
          -107 3 -124 -27 -62 -50 -81 -235 rcurveline
          -251 -589 213 -392 rlineto
          368 -63 rmoveto
          -91 229 -138 293 97 275 65 183 rlineto
          16 hlineto
          91 -226 131 -277 -145 -477 rlineto
          endchar
        </CharString>
        <CharString name="lslash">
          -375 1 -21 1201 -20 452 -20 hstem
          -14 740 vstem
          135 138 rmoveto
          -70 59 97 -88 92 hhcurveto
          126 163 195 116 38 hvcurveto
          -80 127 -199 -104 18 183 14 158 11 140 rlinecurve
          248 150 15 92 -27 115 -48 29 rlinecurve
          -167 -113 12 188 7 157 6 153 rlinecurve
          -43 35 -40 13 -57 -1 -119 -1 -130 -65 -64 -81 -4 -24 45 -316 50 -286 -172 -117 rcurveline
          6 -62 52 -75 43 -24 95 57 rcurveline
          -72 -370 -11 -57 16 -31 20 -23 rlinecurve
          endchar
        </CharString>
        <CharString name="m">
          7 callsubr
          hstemhm
          9 1704 hintmask 00000000
          hintmask 10110000
          -40 callsubr
          hintmask 11010000
          -50 callsubr
          hintmask 10110000
          -62 callsubr
          endchar
        </CharString>
        <CharString name="macron">
          -367 1337 271 hstem
          720 8 vstem
          23 1337 -85 callgsubr
        </CharString>
        <CharString name="macron.cap">
          -367 1657 264 hstem
          720 8 vstem
          23 1657 -85 callgsubr
        </CharString>
        <CharString name="minus">
          -117 440 314 hstem
          905 7 vstem
          91 440 -19 callgsubr
        </CharString>
        <CharString name="mu">
          -77 callsubr
        </CharString>
        <CharString name="multiply">
          -28 117 867 hstem
          111 868 vstem
          111 301 rmoveto
          31 -66 68 -69 123 -44 211 259 rcurveline
          248 -264 67 32 71 71 45 122 rlinecurve
          -256 226 260 233 -32 68 -66 67 -124 44 rlinecurve
          -216 -257 -245 261 -66 -32 -72 -69 -44 -123 rlinecurve
          247 -227 rlineto
          endchar
        </CharString>
        <CharString name="n">
          76 1 -21 hstem
          26 1166 vstem
          -98 callgsubr
          endchar
        </CharString>
        <CharString name="nacute">
          76 1 -21 1267 -7 callsubr
          26 1166 -754 523 hintmask 10100000
          -98 callgsubr
          hintmask 01010000
          430 1181 -94 callsubr
        </CharString>
        <CharString name="nbspace">
          -615 endchar
        </CharString>
        <CharString name="ncaron">
          76 1 -21 1289 442 hstemhm
          26 1166 -954 746 hintmask 10100000
          -98 callgsubr
          hintmask 01010000
          382 1213 -82 callsubr
        </CharString>
        <CharString name="ncommaaccent">
          76 -29 callsubr
          hstemhm
          26 1166 -806 452 hintmask 01100000
          -98 callgsubr
          hintmask 10010000
          347 -157 rmoveto
          -88 callsubr
        </CharString>
        <CharString name="nine">
          37 -291 1521 hstem
          63 1020 vstem
          236 -107 rmoveto
          46 -99 35 -45 80 -40 243 176 349 256 91 387 rrcurveto
          403 24 -134 299 -374 hhcurveto
          -368 -190 -233 -328 28 hvcurveto
          20 -240 133 -147 143 2 150 2 159 162 90 100 22 -12 rcurveline
          -142 -232 -240 -231 -165 -180 rrcurveto
          237 634 rmoveto
          -32 141 -5 137 27 133 63 43 rcurveline
          50 -6 86 -36 40 -36 24 -82 6 -39 1 -102 rrcurveto
          endchar
        </CharString>
        <CharString name="notequal">
          -23 -122 1346 hstem
          102 894 vstem
          104 211 rmoveto
          219 hlineto
          -56 -262 73 -51 46 -22 99 2 rlinecurve
          90 333 347 1 rlineto
          1 callgsubr
          -343 -27 35 127 rlineto
          240 hlineto
          1 callgsubr
          -234 -19 78 287 -92 48 -95 15 -106 -15 rlinecurve
          -77 -358 -305 -24 rlineto
          -41 -53 -16 -51 -75 vvcurveto
          -15 0 -18 2 -18 vhcurveto
          305 hlineto
          -32 -147 -218 -17 rlineto
          -42 -56 -15 -49 -74 vvcurveto
          -15 0 -18 2 -19 vhcurveto
          endchar
        </CharString>
        <CharString name="ntilde">
          76 1 -21 1276 415 hstemhm
          26 1166 -1013 842 hintmask 10100000
          -98 callgsubr
          hintmask 01010000
          171 1199 -85 callsubr
        </CharString>
        <CharString name="numbersign">
          328 51 257 -240 241 302 248 -238 238 hstemhm
          19 1394 hintmask 00000000
          hintmask 01101000
          23 101 rmoveto
          208 -19 -43 -264 88 -45 94 -24 104 -5 rlinecurve
          hintmask 01011000
          57 328 215 -8 -50 -246 92 -49 83 -26 102 2 rlinecurve
          65 313 266 -13 36 78 19 102 -29 84 rlinecurve
          -230 hlineto
          56 312 rlineto
          224 hlineto
          38 83 2 76 -18 79 rrcurveto
          -199 hlineto
          49 230 -97 73 -98 20 -125 -21 rlinecurve
          hintmask 10011000
          -47 -302 rlineto
          -222 hlineto
          48 230 -93 57 -103 35 -132 -19 rlinecurve
          -46 -303 rlineto
          -246 hlineto
          -37 -98 -3 -38 25 -97 229 -12 rcurveline
          -41 -305 rlineto
          -211 hlineto
          hintmask 01101000
          -35 -64 -4 -56 9 -88 rrcurveto
          557 208 rmoveto
          56 302 rlineto
          208 hlineto
          -50 -302 rlineto
          endchar
        </CharString>
        <CharString name="o">
          -33 1 -65 callgsubr
          hstem
          63 960 vstem
          -104 callsubr
          endchar
        </CharString>
        <CharString name="oacute">
          -33 1 -65 callgsubr
          63 -7 callsubr
          63 960 -712 523 hintmask 11010000
          -104 callsubr
          hintmask 00101000
          -18 955 -94 callsubr
        </CharString>
        <CharString name="obreve">
          -33 1 -65 callgsubr
          96 425 hstemhm
          63 960 -861 752 hintmask 11010000
          -104 callsubr
          hintmask 00101000
          107 988 -87 callgsubr
        </CharString>
        <CharString name="ocircumflex">
          -33 1 -65 callgsubr
          62 461 hstemhm
          63 960 -857 730 hintmask 11010000
          -104 callsubr
          hintmask 00101000
          -121 954 -96 callsubr
        </CharString>
        <CharString name="odieresis">
          -33 1 -65 callgsubr
          63 -13 callsubr
          63 960 -906 888 hintmask 11010000
          -104 callsubr
          hintmask 00101000
          374 955 -104 callgsubr
        </CharString>
        <CharString name="oe">
          372 1 -65 callgsubr
          hstem
          61 1386 vstem
          121 167 rmoveto
          16 -105 302 -70 133 -12 58 6 73 42 62 45 rrcurveto
          1 hlineto
          13 -11 13 -13 13 -13 rrcurveto
          -43 41 32 -15 33 -34 callsubr
          23 44 2 87 -10 65 -10 61 -6 3 -20 8 -99 36 -54 14 -159 106 -35 23 -24 6 -19 1 rrcurveto
          -73 -124 -58 -37 -60 hvcurveto
          -7 -5 rlineto
          50 -80 -90 32 -56 hhcurveto
          -63 -301 -104 -89 -68 hvcurveto
          -34 -44 1 -121 -68 vvcurveto
          -183 26 -211 34 -217 vhcurveto
          307 125 rmoveto
          -10 101 -4 101 99 vvcurveto
          81 4 80 8 80 vhcurveto
          60 29 154 -63 rlineto
          12 -115 5 -104 -101 vvcurveto
          -75 -1 -74 -7 -73 vhcurveto
          -55 -38 -70 15 -55 30 -41 27 rlinecurve
          536 123 rmoveto
          1 -11 callsubr
          vvcurveto
          13 101 10 274 56 vvcurveto
          91 -29 68 -20 35 -8 -58 -136 -114 -173 -46 -68 rrcurveto
          endchar
        </CharString>
        <CharString name="ogonek">
          -566 -39 callsubr
          hstem
          28 509 vstem
          28 -225 rmoveto
          -64 callsubr
          39 73 83 141 46 72 rlinecurve
          -189 -70 rlineto
          -90 -61 -141 -99 -111 vvcurveto
          endchar
        </CharString>
        <CharString name="ograve">
          -33 1 -65 callgsubr
          63 -7 callsubr
          63 960 -807 523 hintmask 11010000
          -104 callsubr
          hintmask 00101000
          212 955 -83 callsubr
        </CharString>
        <CharString name="ohungarumlaut">
          -33 1 -65 callgsubr
          47 493 hstemhm
          63 960 -846 894 hintmask 11010000
          -104 callsubr
          hintmask 00101000
          -106 939 -72 callsubr
        </CharString>
        <CharString name="omacron">
          -33 1 -65 callgsubr
          153 271 hstemhm
          63 960 -128 8 hintmask 11010000
          -104 callsubr
          hintmask 00101000
          -230 1045 -85 callgsubr
        </CharString>
        <CharString name="one">
          -368 1 -21 hstem
          3 627 vstem
          216 22 rmoveto
          41 -29 132 -14 71 1 8 callgsubr
          132 -18 57 49 217 32 306 7 164 -51 46 -56 41 -59 35 -184 -41 -181 -134 -96 -121 69 -149 rcurveline
          191 33 30 -203 rlineto
          endchar
        </CharString>
        <CharString name="onehalf">
          1040 -20 18 -17 1688 -1687 18 763 4 callsubr
          -425 845 hintmask 00011000
          334 800 -61 callgsubr
          hintmask 00100010
          927 -1293 -20 callgsubr
          hintmask 10000010
          -62 callgsubr
          hintmask 00100010
          -5 -115 59 -197 76 -47 rrcurveto
          hintmask 01000100
          -1017 146 -60 callgsubr
        </CharString>
        <CharString name="onequarter">
          1082 -19 1688 -1668 -21 783 4 callsubr
          -432 27 hintmask 01000100
          1304 235 rmoveto
          -56 callgsubr
          -92 11 -69 -113 77 -167 77 -17 rlinecurve
          hintmask 00110000
          -970 565 -61 callgsubr
          hintmask 10001000
          -90 -1147 -60 callgsubr
        </CharString>
        <CharString name="onesuperior">
          -384 562 19 hstem
          23 549 vstem
          209 599 -61 callgsubr
          endchar
        </CharString>
        <CharString name="ordfeminine">
          -3 478 18 -17 18 997 17 2 17 hstemhm
          61 994 hintmask 00000000
          hintmask 01011000
          134 622 rmoveto
          1 -46 71 -24 42 -30 rrcurveto
          hintmask 01101000
          35 -24 30 -21 31 2 15 1 16 6 17 13 81 71 95 231 47 121 rrcurveto
          hintmask 01011000
          13 -6 -12 -77 -8 -67 -9 -87 rlinecurve
          -8 -76 29 -22 22 -23 47 -51 67 -36 54 1 99 2 86 117 60 138 -73 104 rcurveline
          -149 -79 85 201 70 391 -7 55 rlinecurve
          72 -61 -73 32 -104 hhcurveto
          -67 -60 -12 -12 -18 hvcurveto
          -27 5 -83 2 -101 vhcurveto
          -52 88 -68 102 -92 64 rrcurveto
          hintmask 10011000
          -33 -4 -173 -32 -105 -135 rrcurveto
          -15 -21 -6 -12 -14 vvcurveto
          -11 3 -13 7 -24 vhcurveto
          42 -134 21 -224 2 -136 rrcurveto
          1 -46 -3 -78 -24 vvcurveto
          259 177 rmoveto
          20 104 12 100 -2 105 -1 92 rcurveline
          55 -13 60 -9 69 -18 rrcurveto
          -72 1 38 -3 -34 vhcurveto
          -28 -60 -94 -183 -64 -62 rrcurveto
          endchar
        </CharString>
        <CharString name="ordmasculine">
          -123 479 18 1016 17 hstem
          85 824 vstem
          139 613 rmoveto
          63 -63 206 -61 114 -10 55 6 52 19 73 37 49 25 70 42 22 25 rrcurveto
          29 107 37 237 171 vvcurveto
          96 -3 48 -11 51 vhcurveto
          -76 91 -193 82 -144 14 -87 -12 -245 -95 -50 -63 -36 -237 34 -248 41 -262 rrcurveto
          259 134 rmoveto
          -8 86 -4 87 85 vvcurveto
          70 4 68 6 69 vhcurveto
          52 25 132 -54 rlineto
          10 -99 5 -89 -87 vvcurveto
          -64 -1 -64 -6 -62 vhcurveto
          -47 -33 -60 13 -48 26 -35 23 rlinecurve
          endchar
        </CharString>
        <CharString name="oslash">
          -33 -232 1689 -1456 -65 callgsubr
          hstemhm
          63 960 -881 875 hintmask 10001000
          126 136 rmoveto
          20 -21 34 -20 40 -19 -78 -206 rcurveline
          47 -78 55 -20 75 -4 108 238 rcurveline
          hintmask 01110000
          53 -13 51 -9 41 -4 65 7 60 22 85 43 57 29 82 49 25 30 rrcurveto
          34 124 43 276 199 vvcurveto
          112 -3 56 -13 60 vhcurveto
          -29 34 -44 34 -52 30 95 206 rcurveline
          -49 98 -46 32 -96 27 -109 -275 rcurveline
          -52 15 -52 11 -47 5 -102 -14 -285 -110 -59 -74 -42 -276 40 -289 48 -305 rrcurveto
          302 156 rmoveto
          -10 101 -4 101 99 vvcurveto
          81 4 80 8 80 vhcurveto
          60 29 154 -63 rlineto
          12 -115 5 -104 -101 vvcurveto
          -75 -1 -74 -7 -73 vhcurveto
          -55 -38 -70 15 -55 30 -41 27 rlinecurve
          endchar
        </CharString>
        <CharString name="otilde">
          -33 1 -65 callgsubr
          72 415 hstemhm
          63 960 -897 842 hintmask 11010000
          -104 callsubr
          hintmask 00101000
          -203 973 -85 callsubr
        </CharString>
        <CharString name="p">
          9 -10 callsubr
          hstem
          26 1063 vstem
          -69 callgsubr
          endchar
        </CharString>
        <CharString name="paragraph">
          501 573 18 368 22 hstem
          704 89 vstem
          388 -147 rmoveto
          117 -81 212 58 24 65 24 737 rcurveline
          -1 0 0 1 hvcurveto
          -8 527 94 -4 307 -48 300 96 rlinecurve
          24 104 7 216 -90 84 -602 -129 rcurveline
          -634 -164 -15 -205 10 -396 76 -207 rlinecurve
          49 -41 129 -29 118 -33 rrcurveto
          408 -551 rmoveto
          75 -59 231 8 80 93 -33 161 -18 101 -29 80 58 114 64 529 -9 39 -27 62 -212 79 -146 -61 55 -728 rcurveline
          -41 -90 -37 -194 -11 -134 rrcurveto
          endchar
        </CharString>
        <CharString name="parenleft">
          -422 -291 2143 hstemhm
          118 311 -311 575 hintmask 00000000
          hintmask 10100000
          636 1802 rmoveto
          hintmask 11000000
          -156 50 -144 -126 -217 -566 -1 -360 rlinecurve
          22 -304 67 -352 206 -435 106 18 96 34 78 60 -121 317 -124 357 -19 360 4 122 64 384 139 441 rrcurveto
          endchar
        </CharString>
        <CharString name="parenright">
          -422 -291 2143 hstemhm
          1 575 -311 311 hintmask 00000000
          hintmask 11000000
          58 -241 rmoveto
          hintmask 10100000
          156 -50 144 126 217 566 1 360 rlinecurve
          -22 304 -67 352 -206 435 -106 -18 -96 -34 -78 -60 121 -317 124 -357 19 -360 -4 -122 -64 -384 -139 -441 rrcurveto
          endchar
        </CharString>
        <CharString name="partialdiff">
          -13 1 -14 callsubr
          68 988 vstem
          106 136 rmoveto
          86 -73 216 -71 133 -12 65 7 61 22 87 43 60 29 87 49 26 30 43 124 62 276 15 199 6 86 10 126 -16 87 -116 169 -358 271 -325 115 -51 -22 -75 -121 -4 -51 rrcurveto
          231 -163 148 -120 101 -101 -109 -19 -321 -148 -63 -72 -61 -276 24 -197 38 -187 rrcurveto
          312 156 rmoveto
          -4 166 6 62 23 158 215 161 rcurveline
          17 -5 5 -180 -7 -195 -31 -201 rlinecurve
          -57 -38 -69 15 -58 30 -40 27 rlinecurve
          endchar
        </CharString>
        <CharString name="percent">
          874 -112 1688 -1576 -21 -3 callsubr
          hintmask 00000000
          hintmask 01101100
          420 693 rmoveto
          -58 callsubr
          hvcurveto
          -15 callsubr
          vhcurveto
          -81 236 rmoveto
          -70 callgsubr
          813 -523 rmoveto
          -15 callsubr
          -58 callsubr
          vhcurveto
          299 -191 rmoveto
          -70 callgsubr
          hintmask 10010000
          -1139 -180 -60 callgsubr
        </CharString>
        <CharString name="period">
          -526 -34 509 hstem
          15 531 vstem
          15 195 rmoveto
          -33 callgsubr
        </CharString>
        <CharString name="periodcentered">
          -425 375 509 hstem
          75 531 vstem
          75 604 rmoveto
          -33 callgsubr
        </CharString>
        <CharString name="perthousand">
          1718 -112 1688 -1597 186 -165 -21 714 142 -3 callsubr
          557 287 hintmask 0000000000000000
          hintmask 0011101100000000
          420 693 rmoveto
          -58 callsubr
          hvcurveto
          -15 callsubr
          vhcurveto
          -81 236 rmoveto
          -70 callgsubr
          1657 -523 rmoveto
          -15 callsubr
          -58 callsubr
          vhcurveto
          -844 hmoveto
          -15 callsubr
          vhcurveto
          hintmask 0101000110000000
          -58 callsubr
          hvcurveto
          1143 -191 rmoveto
          -70 callgsubr
          -844 hmoveto
          -70 callgsubr
          hintmask 1000010000000000
          -1139 -180 -60 callgsubr
        </CharString>
        <CharString name="pi">
          501 1 -21 907 58 259 -20 hstem
          14 325 -325 1560 vstem
          391 54 rmoveto
          -45 48 87 -29 107 hhcurveto
          64 68 10 26 39 hvcurveto
          -10 170 -23 162 -30 147 29 362 rcurveline
          155 -16 -19 -268 5 -326 2 -35 rlinecurve
          -108 6 194 -124 94 hhcurveto
          131 93 178 98 37 hvcurveto
          -86 125 -178 -72 27 156 22 157 16 157 rlinecurve
          -22 105 52 -8 44 hhcurveto
          132 90 9 296 -132 69 -278 -111 rcurveline
          -890 111 -118 -24 -107 -60 -59 -72 rlinecurve
          -49 -104 102 -258 34 -103 66 -18 76 -2 81 19 5 319 rcurveline
          81 -9 55 -488 -44 -129 -35 -108 -8 -113 rlinecurve
          endchar
        </CharString>
        <CharString name="plus">
          -47 44 24 392 2 callgsubr
          68 rmoveto
          98 -38 87 3 70 81 rrcurveto
          346 vlineto
          250 1 -14 callgsubr
          rlinecurve
          -316 -25 40 376 rlineto
          -15 callgsubr
          -78 -37 -70 -44 hvcurveto
          59 -324 -269 -21 -24 callgsubr
          329 hlineto
          endchar
        </CharString>
        <CharString name="plusminus">
          -47 21 -21 309 24 251 2 callgsubr
          333 rmoveto
          98 -38 87 3 70 81 rrcurveto
          205 vlineto
          250 1 -14 callgsubr
          rlinecurve
          -311 -25 35 240 rlineto
          -15 callgsubr
          -78 -37 -70 -44 hvcurveto
          53 -189 -263 -20 -24 callgsubr
          328 hlineto
          -328 -584 rmoveto
          816 hlineto
          -14 callgsubr
          -828 -65 rcurveline
          -46 -78 -22 -37 12 -113 rrcurveto
          endchar
        </CharString>
        <CharString name="product">
          295 1204 131 hstem
          -80 1541 vstem
          224 -112 rmoveto
          -16 callgsubr
          49 767 rcurveline
          191 -19 27 -231 29 -319 49 -149 4 callgsubr
          -16 callgsubr
          44 690 rcurveline
          -8 63 66 -3 38 hhcurveto
          94 101 -2 274 -98 59 -912 -77 rcurveline
          -503 75 -74 -129 8 -199 81 -94 rlinecurve
          220 33 26 -229 28 -301 48 -143 4 callgsubr
          endchar
        </CharString>
        <CharString name="q">
          18 -39 callsubr
          439 -54 callsubr
          36 -20 hstemhm
          45 1161 hintmask 00000000
          hintmask 11011000
          116 -26 callgsubr
          hintmask 11101000
          -22 callgsubr
          39 -28 35 -25 36 2 18 1 18 8 20 16 rrcurveto
          hintmask 11011000
          96 82 119 269 55 141 20 -2 rcurveline
          -58 -703 -6 -63 30 -46 60 -43 rlinecurve
          67 -48 74 -33 80 3 38 1 39 19 41 42 57 57 44 92 37 100 -88 100 rcurveline
          -124 -70 -56 410 98 235 80 449 -81 callsubr
          -69 113 -23 callsubr
          -31 -124 -157 rrcurveto
          -19 -25 -7 -14 -16 vvcurveto
          -13 3 -15 8 -27 vhcurveto
          46 -157 20 -260 -158 -54 -6 -91 -28 vvcurveto
          304 206 rmoveto
          26 121 16 117 122 vvcurveto
          107 vlineto
          64 -15 66 -11 80 -20 rrcurveto
          -84 1 44 -3 -40 9 callgsubr
          endchar
        </CharString>
        <CharString name="question">
          -161 -34 1645 hstem
          110 755 vstem
          290 605 rmoveto
          187 -10 48 218 rlineto
          158 -9 149 70 0 vvcurveto
          46 160 -6 225 -35 118 rrcurveto
          192 -133 -307 42 -98 hhcurveto
          -80 -35 -91 -147 -18 -123 182 -39 205 -29 123 -68 -303 -182 rcurveline
          -176 -107 104 -80 45 -196 rrcurveto
          -130 -410 rmoveto
          -33 callgsubr
        </CharString>
        <CharString name="questiondown">
          -161 -440 1645 hstem
          90 755 vstem
          665 566 rmoveto
          -187 10 -48 -218 rlineto
          -158 9 -149 -70 0 vvcurveto
          -46 -160 6 -225 35 -118 rrcurveto
          -192 133 307 -42 98 hhcurveto
          80 35 91 147 18 123 -182 39 -205 29 -123 68 303 182 rcurveline
          176 107 -104 80 -45 196 rrcurveto
          130 410 -36 callsubr
        </CharString>
        <CharString name="quotedbl">
          -211 940 655 hstemhm
          22 376 76 376 hintmask 11000000
          108 940 -45 callsubr
          hintmask 10100000
          538 -621 -45 callsubr
          endchar
        </CharString>
        <CharString name="quotedblbase">
          -179 -246 -1 callgsubr
          -246 -71 callgsubr
          hintmask 10100000
          606 -52 -71 callgsubr
          endchar
        </CharString>
        <CharString name="quotedblleft">
          -172 920 687 hstemhm
          -11 416 39 416 hintmask 11000000
          247 1607 -46 callgsubr
          hintmask 10100000
          297 52 -46 callgsubr
          endchar
        </CharString>
        <CharString name="quotedblright">
          -179 908 -1 callgsubr
          908 -71 callgsubr
          hintmask 10100000
          606 -52 -71 callgsubr
          endchar
        </CharString>
        <CharString name="quoteleft">
          -627 920 687 hstem
          -1 416 vstem
          257 1607 -46 callgsubr
          endchar
        </CharString>
        <CharString name="quotereversed">
          -627 908 6 callgsubr
          296 908 rmoveto
          158 52 -55 621 rlineto
          9 -31 -36 5 -37 hhcurveto
          -92 -100 -31 -70 -65 hvcurveto
          50 -189 89 -218 119 -179 rrcurveto
          endchar
        </CharString>
        <CharString name="quoteright">
          -627 908 6 callgsubr
          196 908 -71 callgsubr
          endchar
        </CharString>
        <CharString name="quotesinglbase">
          -627 -241 6 callgsubr
          196 -241 -71 callgsubr
          endchar
        </CharString>
        <CharString name="quotesingle">
          -663 940 655 hstem
          22 376 vstem
          108 940 -45 callsubr
          endchar
        </CharString>
        <CharString name="r">
          -89 1 -21 495 15 hstem
          648 330 vstem
          -91 callsubr
          endchar
        </CharString>
        <CharString name="racute">
          -89 1 -21 495 15 757 -7 callsubr
          319 523 -194 330 hintmask 11001000
          -91 callsubr
          hintmask 00110000
          221 1219 -94 callsubr
        </CharString>
        <CharString name="radical">
          60 2 -21 1631 -20 hstem
          23 1230 vstem
          431 1 rmoveto
          33 -15 75 -6 41 1 95 3 167 41 34 43 165 696 rcurveline
          212 745 -23 60 -150 51 -116 -8 rlinecurve
          -208 -869 -64 -464 rlineto
          -26 hlineto
          -82 537 -72 58 -445 -78 -45 -69 -11 -53 24 -112 rlinecurve
          244 27 rlineto
          endchar
        </CharString>
        <CharString name="rcaron">
          -89 1 -21 495 15 779 442 hstemhm
          119 746 -217 330 hintmask 11001000
          -91 callsubr
          hintmask 00110000
          173 1251 -82 callsubr
        </CharString>
        <CharString name="rcommaaccent">
          -89 -29 callsubr
          495 15 hstemhm
          143 452 53 330 hintmask 01101000
          -91 callsubr
          hintmask 10010000
          14 -119 rmoveto
          -88 callsubr
        </CharString>
        <CharString name="registered">
          317 1312 215 hstem
          769 29 288 197 vstem
          165 357 rmoveto
          17 -115 428 -76 145 -13 79 12 391 87 31 110 rrcurveto
          38 136 41 386 217 vvcurveto
          123 -5 93 -47 56 vhcurveto
          115 -96 -384 99 -98 hhcurveto
          -69 -427 -113 -97 -74 hvcurveto
          -37 -48 1 -133 -74 vvcurveto
          -200 29 -328 37 -237 vhcurveto
          244 113 rmoveto
          19 93 11 35 18 46 -33 66 -48 501 5 23 52 71 158 36 84 -57 -35 -230 rcurveline
          37 -8 42 132 22 56 85 89 rlinecurve
          44 1 133 -26 70 -58 24 -115 -6 -170 -60 -125 -143 -94 rcurveline
          57 -67 93 47 72 -84 rlineto
          -96 -6 -53 -116 -105 hhcurveto
          -140 -68 106 163 -17 hvcurveto
          -69 9 23 -54 23 -122 7 -76 rlinecurve
          -18 -25 -46 -8 -36 hhcurveto
          -58 -2 -102 19 -29 33 rrcurveto
          220 357 rmoveto
          151 9 22 62 -1 97 -10 39 rlinecurve
          -22 3 -31 -47 -86 -118 -23 -45 rlinecurve
          endchar
        </CharString>
        <CharString name="ring">
          -484 1228 182 115 196 hstemhm
          19 7 callgsubr
          298 1228 -95 callgsubr
        </CharString>
        <CharString name="ring.cap">
          -484 1527 182 115 196 hstemhm
          17 7 callgsubr
          296 1527 -95 callgsubr
        </CharString>
        <CharString name="s">
          -216 1 -65 callgsubr
          hstem
          43 813 vstem
          -102 callgsubr
          endchar
        </CharString>
        <CharString name="sacute">
          -216 1 -65 callgsubr
          63 -7 callsubr
          43 813 -584 523 hintmask 11010000
          -102 callgsubr
          hintmask 00101000
          274 1192 -94 callsubr
        </CharString>
        <CharString name="scaron">
          -216 1 -65 callgsubr
          85 442 hstemhm
          43 813 -784 746 hintmask 11010000
          -102 callgsubr
          hintmask 00101000
          226 1224 -82 callsubr
        </CharString>
        <CharString name="scedilla">
          -216 5 callsubr
          1224 -20 hstemhm
          43 813 -704 536 hintmask 01110000
          -102 callgsubr
          hintmask 10001000
          77 -170 -46 callsubr
        </CharString>
        <CharString name="scircumflex">
          -216 1 -65 callgsubr
          62 461 hstemhm
          43 813 -790 730 hintmask 11010000
          -102 callgsubr
          hintmask 00101000
          110 1191 -96 callsubr
        </CharString>
        <CharString name="section">
          -216 1616 -20 hstem
          39 817 vstem
          97 -4 rmoveto
          82 -13 180 -55 180 -7 107 44 85 68 78 76 24 70 13 96 -5 83 -28 35 -55 34 -62 45 113 98 rcurveline
          24 70 13 96 -5 83 -77 97 -276 144 -92 49 9 216 rcurveline
          26 9 68 -93 126 -111 82 -34 rlinecurve
          116 120 58 143 -35 121 -161 54 rcurveline
          24 -59 -85 58 -59 hhcurveto
          -76 -123 -57 -37 -62 hvcurveto
          -45 -27 -133 -99 -59 vvcurveto
          -42 1 -220 21 -79 vhcurveto
          25 -32 50 -35 59 -32 rrcurveto
          -55 -37 -105 -84 -52 vvcurveto
          -42 5 -48 21 -79 vhcurveto
          92 -88 240 -107 134 -39 3 -37 -2 -76 -7 -38 -49 -24 rcurveline
          -109 80 -127 85 -141 4 -16 -34 -86 -103 100 -182 rrcurveto
          289 662 rmoveto
          8 160 146 -49 rlineto
          2 -22 0 -10 -12 vvcurveto
          -33 -2 -36 -6 -31 vhcurveto
          -53 -27 rlineto
          endchar
        </CharString>
        <CharString name="semicolon">
          -425 -244 695 282 509 hstemhm
          12 560 -502 531 hintmask 01010000
          70 962 -71 callsubr
          hintmask 10100000
          -58 -1138 -20 callsubr
        </CharString>
        <CharString name="seven">
          -66 1203 -20 hstem
          42 1003 vstem
          171 -162 rmoveto
          32 -80 125 -44 114 -4 48 -2 26 5 36 12 163 559 rcurveline
          170 506 122 -20 74 158 -34 201 -134 74 rlinecurve
          -83 -26 -68 -42 -73 -58 -104 47 -96 50 -149 29 -42 2 -226 -96 -23 -114 -31 -165 78 -238 74 -81 175 20 rcurveline
          27 327 239 -35 -153 -458 rlineto
          endchar
        </CharString>
        <CharString name="six">
          42 1 -21 hstem
          70 1018 vstem
          557 -20 rmoveto
          368 151 233 328 11 hvcurveto
          8 241 -55 148 -249 -4 -150 -2 -159 -162 -90 -100 -22 12 rcurveline
          142 232 253 279 165 180 -46 99 -35 45 -80 40 -243 -176 -362 -304 -91 -387 rrcurveto
          -403 -24 134 -299 374 hhcurveto
          -106 327 rmoveto
          -24 82 -6 10 -1 102 78 67 83 61 99 25 32 -141 5 -108 -27 -133 -63 -43 rcurveline
          -50 6 -86 36 -40 36 rrcurveto
          endchar
        </CharString>
        <CharString name="slash">
          -328 1605 -20 hstem
          103 618 vstem
          103 -166 rmoveto
          76 -53 78 -23 103 3 361 1844 rcurveline
          -78 49 -194 32 -74 -26 rrcurveto
          endchar
        </CharString>
        <CharString name="space">
          -716 endchar
        </CharString>
        <CharString name="sterling">
          -34 1 -21 24 -21 335 31 hstemhm
          47 1005 hintmask 01110000
          169 -17 rmoveto
          116 7 108 71 52 89 rrcurveto
          hintmask 10110000
          -70 68 168 -100 124 -16 callsubr
          88 120 -21 239 -35 94 -148 28 rcurveline
          -100 -234 -231 30 4 70 4 103 3 112 rlinecurve
          198 1 38 74 25 101 -16 67 rlinecurve
          -240 -15 3 174 1 160 -2 61 rlinecurve
          129 -98 75 -33 110 -22 57 51 84 123 -33 185 -295 20 rcurveline
          23 -50 -36 35 -60 hhcurveto
          -55 -122 -68 -39 -56 hvcurveto
          -51 -34 -104 -76 -3 -61 64 -423 rcurveline
          -127 -8 -32 -55 -16 -64 9 -80 rlinecurve
          197 hlineto
          40 -265 -66 35 -84 -1 -75 -32 rlinecurve
          hintmask 01110000
          -38 -135 57 -206 89 -54 rrcurveto
          endchar
        </CharString>
        <CharString name="summation">
          -92 -214 1775 hstem
          926 47 vstem
          31 75 rmoveto
          10 -71 33 -65 50 -60 122 -41 452 -57 175 5 109 83 23 224 -79 79 -300 -54 rcurveline
          -252 -6 384 400 13 59 10 64 -5 50 rlinecurve
          -294 486 205 -72 81 -27 127 -10 rlinecurve
          68 45 36 113 109 vvcurveto
          101 -31 96 -63 35 vhcurveto
          -412 -106 -333 73 rlineto
          -72 -51 -71 -123 -89 vvcurveto
          104 -224 169 -254 158 -194 -126 -158 -177 -171 -114 -189 rrcurveto
          endchar
        </CharString>
        <CharString name="t">
          -289 -28 callgsubr
          hstem
          714 41 vstem
          127 240 -35 callgsubr
          198 -17 callsubr
          -73 callgsubr
          endchar
        </CharString>
        <CharString name="tbar">
          -269 -28 callgsubr
          hstemhm
          722 25 -23 41 hintmask 11100000
          137 240 rmoveto
          -121 211 -139 122 131 169 205 104 58 vhcurveto
          -113 144 -221 -121 -1 185 104 3 75 4 34 3 rlinecurve
          45 64 12 126 -41 77 -230 -22 rcurveline
          109 vlineto
          77 3 95 6 61 5 rrcurveto
          hintmask 11010000
          21 57 59 112 -81 138 -222 -45 rcurveline
          11 281 -97 52 -160 -6 -47 -25 rlinecurve
          -51 -363 -122 -39 -3 -37 3 -77 20 -54 rlinecurve
          106 -6 17 -155 -115 -22 -15 -68 5 -52 24 -65 rlinecurve
          43 -2 41 -1 40 -1 rrcurveto
          -1 vlineto
          -57 -183 -8 -48 -25 vvcurveto
          endchar
        </CharString>
        <CharString name="tcaron">
          -259 -28 callgsubr
          hstem
          764 41 vstem
          559 1320 rmoveto
          150 -40 91 124 92 255 59 180 rlinecurve
          70 -65 -80 31 -92 hhcurveto
          -37 -36 -5 -9 -31 hvcurveto
          -483 -1686 -35 callgsubr
          218 -17 callsubr
          -236 -178 -2 529 77 3 145 6 61 5 rlinecurve
          21 57 59 132 -81 138 -282 -45 rcurveline
          -9 281 -97 52 -130 -6 -47 -25 rlinecurve
          -61 -363 -112 -39 -3 -37 3 -86 20 -54 rlinecurve
          96 -6 50 -358 rlineto
          -57 -183 -8 -48 -25 vvcurveto
          endchar
        </CharString>
        <CharString name="thorn">
          13 -10 callsubr
          449 -20 hstem
          18 1071 vstem
          113 -227 rmoveto
          -90 34 -25 49 -35 vhcurveto
          -31 43 58 -30 52 hhcurveto
          88 125 73 70 48 hvcurveto
          -32 163 rlineto
          -192 hlineto
          18 71 14 64 9 56 rrcurveto
          -32 58 141 -47 143 hhcurveto
          34 33 6 9 31 hvcurveto
          143 419 61 312 18 312 rrcurveto
          103 -117 -159 43 -76 hhcurveto
          -58 -30 -14 -5 -22 hvcurveto
          -252 -640 44 354 56 352 18 335 rlinecurve
          34 -42 -53 13 -57 hhcurveto
          -121 -135 -65 -82 -67 hvcurveto
          -8 -31 55 -605 51 -303 -4 -15 rcurveline
          312 -212 rmoveto
          35 76 148 291 62 118 27 -8 rcurveline
          -7 -126 -32 -285 -22 -151 -46 3 -112 35 -53 47 rrcurveto
          endchar
        </CharString>
        <CharString name="three">
          -41 -291 276 -276 1499 hstemhm
          31 1008 hintmask 01100000
          54 -24 rmoveto
          -16 2 -19 4 -20 vhcurveto
          -120 83 146 -92 205 hhcurveto
          98 136 27 47 82 hvcurveto
          139 80 90 156 239 vvcurveto
          2 98 -215 121 -202 29 98 47 119 72 99 115 22 113 -9 84 -23 75 rrcurveto
          92 -89 -270 104 -90 hhcurveto
          -24 -57 -14 -22 -64 hvcurveto
          -103 -31 -119 -50 -54 -63 -63 -109 56 -124 34 -103 79 -34 75 6 79 27 28 183 rcurveline
          31 16 216 -80 3 -23 -35 -52 -83 -111 -80 -96 rlinecurve
          -125 38 -92 -36 -84 -137 94 -183 93 -21 rlinecurve
          68 13 93 66 42 70 73 -34 78 -44 43 -69 -8 -54 -18 -93 -24 -47 rrcurveto
          hintmask 10100000
          -7 -37 -37 -5 -36 hhcurveto
          -145 2 -134 59 -123 61 rrcurveto
          -43 -36 -24 -37 -58 vvcurveto
          endchar
        </CharString>
        <CharString name="threequarters">
          1362 -19 1688 -1668 -21 741 224 269 81 518 -20 hstemhm
          309 133 -40 1312 -437 27 hintmask 01000001
          1304 532 rmoveto
          -69 -113 77 -167 77 -17 -56 callgsubr
          rlineto
          hintmask 00111100
          -1302 329 -74 callsubr
          hintmask 10000010
          308 -722 -60 callgsubr
        </CharString>
        <CharString name="threesuperior">
          -167 522 224 269 81 518 -20 hstem
          309 133 vstem
          94 651 -74 callsubr
          endchar
        </CharString>
        <CharString name="tilde">
          -252 1256 415 hstem
          11 842 vstem
          110 1265 -85 callsubr
        </CharString>
        <CharString name="tilde.cap">
          -252 1605 -20 hstem
          11 842 vstem
          121 1626 -84 callgsubr
        </CharString>
        <CharString name="trademark">
          1266 1093 274 -126 130 -4 181 hstemhm
          57 2213 -429 302 hintmask 01010000
          418 666 rmoveto
          -119 11 137 -70 104 hhcurveto
          98 115 161 72 15 hvcurveto
          -67 120 -130 -60 -4 131 31 307 rlineto
          -14 63 75 -8 33 hhcurveto
          58 40 30 79 74 vvcurveto
          70 -29 69 -60 32 vhcurveto
          -271 -73 rlineto
          hintmask 00110000
          -336 71 -73 -6 -85 -45 -54 -64 rlinecurve
          -17 -29 -5 -36 -37 vvcurveto
          -73 23 -89 16 -51 vhcurveto
          hintmask 10010000
          -17 38 32 -8 28 hhcurveto
          30 37 9 14 39 hvcurveto
          25 171 87 -19 39 -361 -13 -67 -12 -60 -13 -55 5 -59 rlinecurve
          535 -54 rmoveto
          -82 34 122 -51 89 hhcurveto
          143 26 92 112 -1 hvcurveto
          -1 76 -27 280 -13 111 17 2 rcurveline
          117 -442 rlineto
          -19 -44 -5 -89 -31 vvcurveto
          -42 51 78 -25 74 hhcurveto
          52 58 15 37 49 hvcurveto
          -6 41 -8 55 -11 54 -23 54 rlinecurve
          83 442 21 -3 -8 -177 -12 -248 15 -119 rlinecurve
          -96 13 87 -56 85 hhcurveto
          114 90 88 59 33 hvcurveto
          -28 146 -148 -15 rlineto
          hintmask 00101000
          37 224 7 262 5 125 -64 68 -217 104 -76 10 -105 -41 -55 -104 -10 -97 25 -16 17 -8 21 -10 -12 -58 -14 -79 -16 -95 -85 363 rcurveline
          -100 76 -209 61 -68 8 -110 -56 -30 -107 -8 -99 111 -33 rcurveline
          -37 -509 -112 6 rlineto
          endchar
        </CharString>
        <CharString name="two">
          19 1 -21 24 -21 hstemhm
          81 990 hintmask 01100000
          233 -17 rmoveto
          87 3 71 42 51 77 7 10 9 16 11 19 4 -5 5 -5 5 -4 4 -6 rcurveline
          1 2 rlineto
          hintmask 10100000
          -68 76 151 -84 114 -16 callsubr
          88 120 -31 147 -35 94 -148 28 rcurveline
          -90 -142 -239 30 rlineto
          10 vlineto
          110 62 272 190 94 124 19 112 -15 90 -17 67 -116 122 -241 67 -117 7 rrcurveto
          -119 -227 -106 -74 -75 hvcurveto
          -63 -109 79 -239 42 -85 rrcurveto
          -9 32 29 -6 29 hhcurveto
          34 36 6 15 42 hvcurveto
          37 277 31 12 209 -75 3 -53 -50 -75 -157 -181 -95 -93 rlinecurve
          -56 46 -38 20 -39 12 -55 -18 -51 -30 -45 -40 rrcurveto
          hintmask 01100000
          -6 -135 69 -231 89 -54 rrcurveto
          endchar
        </CharString>
        <CharString name="twosuperior">
          -101 566 18 -16 18 hstemhm
          78 845 hintmask 01100000
          208 568 -20 callgsubr
          hintmask 10100000
          -62 callgsubr
          hintmask 01100000
          -5 -115 59 -197 76 -47 rrcurveto
          endchar
        </CharString>
        <CharString name="u">
          -107 callsubr
          endchar
        </CharString>
        <CharString name="uacute">
          -107 callsubr
          hintmask 10110000
          323 674 -94 callsubr
        </CharString>
        <CharString name="ubreve">
          -107 callsubr
          hintmask 10110000
          394 707 -87 callgsubr
        </CharString>
        <CharString name="ucircumflex">
          -107 callsubr
          hintmask 10110000
          166 673 -96 callsubr
        </CharString>
        <CharString name="udieresis">
          -107 callsubr
          hintmask 10110000
          661 674 -104 callgsubr
        </CharString>
        <CharString name="ugrave">
          -107 callsubr
          hintmask 10110000
          469 674 -83 callsubr
        </CharString>
        <CharString name="uhungarumlaut">
          -107 callsubr
          hintmask 10110000
          181 658 -72 callsubr
        </CharString>
        <CharString name="umacron">
          -107 callsubr
          hintmask 10110000
          57 764 -85 callgsubr
        </CharString>
        <CharString name="underscore">
          582 -372 260 hstem
          -46 1767 vstem
          15 -111 rmoveto
          -46 -78 -28 -102 18 -82 1688 2 rcurveline
          50 67 41 108 -23 84 rrcurveto
          endchar
        </CharString>
        <CharString name="uni0001">
          endchar
        </CharString>
        <CharString name="uni0002">
          endchar
        </CharString>
        <CharString name="uni0003">
          endchar
        </CharString>
        <CharString name="uni0004">
          endchar
        </CharString>
        <CharString name="uni0005">
          endchar
        </CharString>
        <CharString name="uni0006">
          endchar
        </CharString>
        <CharString name="uni0007">
          endchar
        </CharString>
        <CharString name="uni0008">
          endchar
        </CharString>
        <CharString name="uni0015">
          endchar
        </CharString>
        <CharString name="uni0016">
          endchar
        </CharString>
        <CharString name="uni0017">
          endchar
        </CharString>
        <CharString name="uni0018">
          endchar
        </CharString>
        <CharString name="uni0019">
          endchar
        </CharString>
        <CharString name="uni00AD">
          591 endchar
        </CharString>
        <CharString name="uni0162">
          -13 -438 543 -105 -5 callsubr
          hstemhm
          -28 1193 -745 536 hintmask 01111000
          442 -160 rmoveto
          hintmask 01110100
          -23 callgsubr
          rrcurveto
          hintmask 10111000
          31 -40 107 -71 105 -1 rrcurveto
          11 10 1 1 9 hvcurveto
          hintmask 01110100
          124 42 109 103 30 116 -116 180 rcurveline
          104 60 95 144 17 74 -78 132 rcurveline
          -220 -101 -9 270 60 561 rlineto
          -35 72 114 -26 59 hhcurveto
          132 90 9 306 -132 69 -348 -111 rcurveline
          -439 111 -95 -9 -118 -60 -71 -87 rlinecurve
          -59 -105 52 -218 34 -103 79 -34 75 6 79 27 41 281 rcurveline
          111 -28 60 -639 rlineto
          -2 hlineto
          -21 -125 -39 -111 10 -117 9 -102 83 -75 96 -39 95 -210 rcurveline
          -31 callsubr
          endchar
        </CharString>
        <CharString name="uni0163">
          -289 5 callsubr
          1202 -20 hstemhm
          85 536 93 41 hintmask 01111000
          107 -115 rmoveto
          -23 callgsubr
          rrcurveto
          hintmask 10111000
          -59 callgsubr
          -86 133 rcurveline
          121 68 140 197 31 81 -127 141 rcurveline
          -73 callgsubr
          2 -67 62 -71 76 -51 93 -205 rcurveline
          -31 callsubr
          endchar
        </CharString>
        <CharString name="uni0218">
          -66 -29 callsubr
          hstemhm
          275 452 259 16 hintmask 01010000
          169 37 rmoveto
          -10 -1 518 -58 -10 2 105 44 80 68 76 76 -100 callgsubr
          hintmask 10100000
          174 -128 rmoveto
          -88 callsubr
        </CharString>
        <CharString name="uni0219">
          -216 -29 callsubr
          1224 -20 hstemhm
          43 813 -679 452 hintmask 01110000
          -102 callgsubr
          hintmask 10001000
          148 -146 rmoveto
          -88 callsubr
        </CharString>
        <CharString name="uni021A">
          -13 -537 450 87 -5 callsubr
          hstemhm
          -28 1193 -738 452 hintmask 11111000
          -89 callgsubr
          83 -318 rmoveto
          hintmask 11110100
          -88 callsubr
        </CharString>
        <CharString name="uni021B">
          -289 -29 callsubr
          1202 -20 hstemhm
          149 452 113 41 hintmask 01101000
          127 240 -35 callgsubr
          198 -17 callsubr
          -73 callgsubr
          hintmask 10010000
          90 -331 rmoveto
          -88 callsubr
        </CharString>
        <CharString name="uni0394">
          -57 callgsubr
        </CharString>
        <CharString name="uni03A9">
          -77 callgsubr
        </CharString>
        <CharString name="uni03BC">
          -77 callsubr
        </CharString>
        <CharString name="uni1E02">
          200 -23 245 446 28 870 -13 callsubr
          87 1202 -887 446 hintmask 11010000
          -73 callsubr
          hintmask 00101000
          154 1222 rmoveto
          -103 callsubr
        </CharString>
        <CharString name="uni1E03">
          24 -28 callgsubr
          85 434 -68 -20 hstemhm
          47 1057 -530 446 hintmask 11011000
          -66 callgsubr
          hintmask 00100100
          334 947 rmoveto
          -103 callsubr
        </CharString>
        <CharString name="uni1E0A">
          218 0 -21 22 -30 callgsubr
          490 446 -81 -68 callsubr
          130 1172 rmoveto
          -103 callsubr
        </CharString>
        <CharString name="uni1E0B">
          84 1 -65 callgsubr
          63 434 -68 -20 hstemhm
          45 1161 -1080 446 hintmask 11011000
          -72 callgsubr
          97 137 67 160 -88 121 rcurveline
          -171 -92 -80 callsubr
          hintmask 00100100
          -117 908 rmoveto
          -103 callsubr
        </CharString>
        <CharString name="uni1E1E">
          -41 1 -30 callgsubr
          21 1003 -660 446 hintmask 10100000
          -63 callgsubr
          hintmask 01010000
          484 1255 rmoveto
          -103 callsubr
        </CharString>
        <CharString name="uni1E1F">
          -372 -39 callsubr
          2024 -13 callsubr
          179 446 60 29 38 11 hintmask 10011000
          -2 -112 rmoveto
          -21 -60 -15 -40 2 -76 33 -46 65 -82 119 -22 115 7 154 103 19 114 10 243 -17 322 -19 361 45 -24 88 -40 -27 callgsubr
          222 -12 callsubr
          -77 rcurveline
          -19 305 -9 callsubr
          58 240 -2 callgsubr
          -253 -103 -88 -210 -17 -38 1 -184 138 -693 43 -448 rrcurveto
          hintmask 01100000
          195 1729 rmoveto
          -103 callsubr
        </CharString>
        <CharString name="uni1E40">
          743 1 -21 22 -21 187 131 1267 -13 callsubr
          37 1792 -1148 446 hintmask 10101000
          -44 callsubr
          hintmask 01101000
          -42 callsubr
          hintmask 10101000
          -60 callsubr
          hintmask 00010100
          816 1261 rmoveto
          -103 callsubr
        </CharString>
        <CharString name="uni1E41">
          7 callsubr
          81 -13 callsubr
          9 1704 -1061 446 hintmask 00000000
          hintmask 10101000
          -40 callsubr
          hintmask 11001000
          -50 callsubr
          hintmask 10101000
          -62 callsubr
          hintmask 00010100
          780 1178 rmoveto
          -103 callsubr
        </CharString>
        <CharString name="uni1E56">
          148 0 -21 412 214 961 -13 callsubr
          87 1136 -814 446 hintmask 11010000
          -67 callgsubr
          hintmask 00101000
          122 871 rmoveto
          -103 callsubr
        </CharString>
        <CharString name="uni1E57">
          9 -10 callsubr
          83 -13 callsubr
          26 1063 -733 446 hintmask 11101000
          -69 callgsubr
          hintmask 00010100
          121 927 rmoveto
          -103 callsubr
        </CharString>
        <CharString name="uni1E60">
          -66 1 -30 callgsubr
          402 446 138 16 hintmask 10010000
          169 37 rmoveto
          -10 -1 518 -58 -10 2 105 44 80 68 76 76 -100 callgsubr
          hintmask 01100000
          450 1529 rmoveto
          -103 callsubr
        </CharString>
        <CharString name="uni1E61">
          -216 1 -65 callgsubr
          63 -13 callsubr
          43 813 -637 446 hintmask 11010000
          -102 callgsubr
          hintmask 00101000
          339 1192 rmoveto
          -103 callsubr
        </CharString>
        <CharString name="uni1E6A">
          -13 0 -5 callsubr
          382 -13 callsubr
          -28 1193 -716 446 hintmask 11111000
          -89 callgsubr
          254 1339 rmoveto
          hintmask 11110100
          -103 callsubr
        </CharString>
        <CharString name="uni1E6B">
          -301 -28 callgsubr
          366 -13 callsubr
          152 446 116 41 hintmask 11001000
          127 240 -35 callgsubr
          198 -17 callsubr
          -73 callgsubr
          hintmask 00110000
          242 1288 rmoveto
          -103 callsubr
        </CharString>
        <CharString name="uogonek">
          48 -32 callgsubr
          hstemhm
          7 1157 -509 509 hintmask 11100100
          -29 callgsubr
          -53 90 -43 -42 callgsubr
          -22 37 hhcurveto
          108 -21 callsubr
          173 68 hvcurveto
          -66 callsubr
          -1 -10 -1 -9 -9 vvcurveto
          -67 30 -22 22 -24 vhcurveto
          36 -40 46 -31 45 -16 rrcurveto
          -77 -58 -79 -77 -83 vvcurveto
          -64 callsubr
          38 72 80 136 47 73 rlinecurve
          34 49 31 58 27 61 -85 121 rcurveline
          -92 callsubr
          -118 -255 -75 -73 -30 14 rcurveline
          39 182 12 178 196 vvcurveto
          86 -3 83 -7 74 vhcurveto
          hintmask 11011000
          11 -23 -37 6 -44 hhcurveto
          -122 -172 -50 -137 -55 hvcurveto
          155 -431 rlineto
          endchar
        </CharString>
        <CharString name="uring">
          -107 callsubr
          hintmask 10110000
          373 655 -95 callgsubr
        </CharString>
        <CharString name="utilde">
          -107 callsubr
          hintmask 10110000
          71 692 -85 callsubr
        </CharString>
        <CharString name="v">
          -54 0 -21 1225 -20 hstem
          0 1045 vstem
          245 47 rmoveto
          -44 46 113 -24 113 hhcurveto
          107 107 21 44 53 hvcurveto
          -14 79 -18 53 -21 43 139 232 130 287 45 92 -5 135 -57 160 -95 79 -128 -16 -166 -119 -57 -137 44 -97 58 -45 59 -51 -19 -104 -49 -196 -53 -135 -13 1 rcurveline
          -15 253 -91 470 -24 51 rrcurveto
          -1 hlineto
          -56 115 -163 0 -113 -85 -60 -45 -28 -89 -13 -86 165 -196 rcurveline
          132 -410 -24 -50 -13 -55 -15 -131 rlinecurve
          endchar
        </CharString>
        <CharString name="w">
          -33 callsubr
          hstemhm
          5 1599 hintmask 00000000
          hintmask 01110000
          273 47 rmoveto
          -44 48 105 -23 100 hhcurveto
          96 92 21 42 26 hvcurveto
          41 -4 35 -11 31 vhcurveto
          42 102 36 123 33 114 65 -233 rcurveline
          -16 -43 -14 -53 -7 -113 rrcurveto
          -44 49 103 -24 106 hhcurveto
          101 102 21 44 50 hvcurveto
          -17 78 -21 53 -24 44 129 231 123 288 39 92 -11 135 -66 160 -98 79 -128 -16 -160 -119 -48 -137 47 -97 61 -45 62 -51 -13 -104 -48 -194 -49 -135 rrcurveto
          -15 hlineto
          -14 144 -45 213 -40 166 2 1 rcurveline
          -11 135 -66 160 -98 79 -128 -16 -160 -119 -48 -137 47 -97 61 -45 62 -51 -13 -104 -48 -196 -47 -135 rrcurveto
          hintmask 10110000
          -13 1 -30 253 -99 466 -10 69 rlinecurve
          59 -32 -69 27 -74 hhcurveto
          -112 -148 -101 -110 hvcurveto
          154 -275 153 -410 rlineto
          hintmask 01110000
          -21 -51 -8 -48 -10 -137 rrcurveto
          endchar
        </CharString>
        <CharString name="wacute">
          -33 callsubr
          63 -7 callsubr
          5 1599 -966 523 -99 callsubr
          464 1200 -94 callsubr
        </CharString>
        <CharString name="wcircumflex">
          -33 callsubr
          62 461 hstemhm
          5 1599 -1172 730 -99 callsubr
          300 1199 -96 callsubr
        </CharString>
        <CharString name="wdieresis">
          -33 callsubr
          63 -13 callsubr
          5 1599 -1221 888 -99 callsubr
          795 1200 -104 callgsubr
        </CharString>
        <CharString name="wgrave">
          -33 callsubr
          63 -7 callsubr
          5 1599 -1132 523 -99 callsubr
          623 1200 -83 callsubr
        </CharString>
        <CharString name="x">
          23 0 -21 22 -65 callgsubr
          21 -20 hstemhm
          10 1118 hintmask 00000000
          hintmask 01011000
          188 -20 rmoveto
          167 -8 63 64 40 49 19 22 20 181 20 187 rrcurveto
          21 hlineto
          13 -80 20 -133 50 -162 rrcurveto
          -75 23 70 -46 103 hhcurveto
          26 27 3 7 27 hvcurveto
          142 49 53 195 23 98 -82 98 rcurveline
          -133 -71 -188 301 161 189 27 -64 50 -89 29 -25 rlinecurve
          38 10 79 35 32 48 rrcurveto
          hintmask 10101000
          135 -89 234 -84 72 vhcurveto
          -115 -95 -17 -89 -58 hvcurveto
          -17 -26 -13 -131 -37 -212 -12 -3 rcurveline
          -14 80 1 114 -48 162 -28 94 -134 52 -133 -33 -141 -49 -53 -197 -23 -98 91 -113 rcurveline
          143 66 156 -251 -160 -221 -26 64 -50 89 -29 25 rlinecurve
          -37 -10 -79 -35 -34 -48 rrcurveto
          hintmask 01011000
          -135 94 -230 84 -72 vhcurveto
          endchar
        </CharString>
        <CharString name="y">
          -43 callsubr
          hstemhm
          7 1092 hintmask 00000000
          hintmask 11011000
          -29 callgsubr
          hintmask 11101000
          -49 callsubr
          39 -28 45 -25 36 2 18 1 18 8 20 16 96 82 161 307 55 141 10 -3 rcurveline
          -2 -188 22 -304 -9 -194 rrcurveto
          -93 -205 26 22 -98 hvcurveto
          hintmask 11011000
          -37 callgsubr
          44 -58 182 -101 -35 callsubr
          156 147 43 166 -138 793 rcurveline
          96 175 8 71 15 72 -5 -4 rcurveline
          2 6 1 5 5 vvcurveto
          -78 callsubr
          -97 -24 callsubr
          -230 -75 -73 -30 14 rcurveline
          26 121 12 95 7 122 9 160 0 166 -13 135 -89 41 -290 -25 -74 -186 155 -431 rcurveline
          endchar
        </CharString>
        <CharString name="yacute">
          -43 callsubr
          76 -7 callsubr
          7 1092 -706 523 -97 callgsubr
          330 674 -94 callsubr
        </CharString>
        <CharString name="ycircumflex">
          -43 callsubr
          75 461 hstemhm
          7 1092 -912 730 -97 callgsubr
          166 673 -96 callsubr
        </CharString>
        <CharString name="ydieresis">
          -43 callsubr
          76 -13 callsubr
          7 1092 -961 888 -97 callgsubr
          661 674 -104 callgsubr
        </CharString>
        <CharString name="yen">
          152 1 -21 633 208 -136 65 hstemhm
          471 100 148 40 hintmask 10111000
          117 307 rmoveto
          323 hlineto
          -17 -245 rlineto
          -50 54 69 -32 119 hhcurveto
          64 50 11 28 43 hvcurveto
          -22 289 305 1 rlineto
          32 39 12 62 50 vvcurveto
          20 -3 32 -4 20 vhcurveto
          -358 -16 rlineto
          hintmask 11011000
          -10 97 rlineto
          360 hlineto
          32 45 11 62 50 vvcurveto
          18 -2 26 -4 18 vhcurveto
          -242 -12 126 121 112 126 41 98 rlinecurve
          -9 152 -53 142 -110 90 rrcurveto
          -149 -158 -111 -155 -62 hvcurveto
          48 -99 44 -47 68 -59 -168 -326 rcurveline
          -17 hlineto
          -201 746 rlineto
          22 -45 -48 11 -48 hhcurveto
          -146 -142 -102 -195 -10 hvcurveto
          168 -146 192 -289 -217 -5 rlineto
          -26 -35 -16 -51 -55 vvcurveto
          -13 1 -13 2 -15 vhcurveto
          355 1 -8 -111 -297 -13 rlineto
          -28 -41 -14 -45 -55 vvcurveto
          -13 1 -13 2 -15 vhcurveto
          endchar
        </CharString>
        <CharString name="ygrave">
          -43 callsubr
          76 -7 callsubr
          7 1092 -892 523 -97 callgsubr
          469 674 -83 callsubr
        </CharString>
        <CharString name="z">
          -89 1 -21 24 -21 hstemhm
          24 305 -305 967 hintmask 00000000
          hintmask 01010000
          188 -17 rmoveto
          hintmask 01100000
          98 3 36 57 62 107 rrcurveto
          -70 68 168 -100 124 -16 callsubr
          46 62 16 96 90 vvcurveto
          82 -13 78 -17 45 vhcurveto
          -148 28 -100 -234 -184 31 340 436 rlineto
          -4 20 15 -3 14 hhcurveto
          hintmask 10010000
          19 17 5 13 20 hvcurveto
          11 30 5 36 37 vvcurveto
          114 -49 131 -76 53 vhcurveto
          -101 -4 -66 -94 -38 -57 rrcurveto
          61 -93 -209 68 -115 hhcurveto
          -119 -100 -79 -160 -136 80 -162 59 -62 hvcurveto
          166 36 rlineto
          216 vlineto
          187 -23 -185 -406 -62 53 -41 33 -42 12 rlinecurve
          -42 -14 -75 -38 -34 -44 rrcurveto
          hintmask 01010000
          -137 67 -234 86 -52 vhcurveto
          endchar
        </CharString>
        <CharString name="zacute">
          -89 1 -21 24 -21 1264 -7 callsubr
          24 305 -305 967 -642 523 -88 callgsubr
          260 1264 -94 callsubr
        </CharString>
        <CharString name="zcaron">
          -89 1 -21 24 -21 1286 442 hstemhm
          24 305 -305 967 -842 746 -88 callgsubr
          212 1296 -82 callsubr
        </CharString>
        <CharString name="zdotaccent">
          -89 1 -21 24 -21 1264 -13 callsubr
          24 305 -305 967 -645 446 -88 callgsubr
          375 1264 rmoveto
          -103 callsubr
        </CharString>
        <CharString name="zero">
          42 1 -21 1205 -20 hstem
          71 1016 vstem
          567 -20 rmoveto
          368 147 273 328 5 hvcurveto
          334 6 -103 270 -402 hhcurveto
          -378 -133 -270 -334 -6 hvcurveto
          -332 -5 123 -269 378 hhcurveto
          -112 310 rmoveto
          -20 101 -10 104 93 vvcurveto
          89 9 85 19 88 vhcurveto
          69 33 163 -57 rlineto
          23 -95 10 -121 -97 vvcurveto
          -80 -8 -79 -16 -89 vhcurveto
          -62 -43 -73 16 -59 22 -45 30 rlinecurve
          endchar
        </CharString>
      <CharString index="0">
        210 -26 callgsubr
        89 -80 252 -79 149 -30 callsubr
        93 47 62 32 102 42 16 58 -56 callsubr
        88 -5 55 -7 54 vhcurveto
        1 hlineto
        -2 16 -2 10 -2 18 rlineto
        -1 7 -1 6 7 vvcurveto
        -1 hlineto
        -11 88 -121 68 -149 62 -68 10 rlinecurve
        -135 -53 -69 -129 -11 -120 164 -46 rcurveline
        12 -128 9 -292 -195 -52 callgsubr
        -111 14 -84 37 -55 32 rrcurveto
        -13 callgsubr
        188 174 vvcurveto
        1 388 25 171 rlineto
        -1 -1 -1 0 -1 hhcurveto
        3 2 -139 106 -134 85 -94 12 rlinecurve
        -140 -71 -38 -132 -9 -120 139 -48 rcurveline
        -1 -36 0 -35 -26 vvcurveto
        -202 40 -493 37 -239 vhcurveto
        return
      </CharString>
      <CharString index="1">
        164 -6 callgsubr
        11 -9 24 -18 28 -25 13 -11 13 -13 13 -13 rrcurveto
        -43 41 32 -15 33 -48 callsubr
        277 16 29 23 44 2 87 -10 65 -10 61 -6 3 -20 8 -99 36 -54 14 -159 106 -35 23 -24 6 -19 1 rrcurveto
        -73 -124 -58 -37 -60 hvcurveto
        -51 -32 -124 -95 -60 vvcurveto
        -12 4 -15 8 -27 vhcurveto
        26 -86 34 -246 -198 vvcurveto
        -104 -35 -33 82 -74 vhcurveto
        261 290 rmoveto
        1 -11 callsubr
        vvcurveto
        13 101 10 254 56 vvcurveto
        91 -29 68 -20 35 -8 -58 -136 -114 -153 -46 -68 rrcurveto
        return
      </CharString>
      <CharString index="2">
        173 68 rmoveto
        143 -38 299 -45 178 -5 112 28 87 80 52 105 rrcurveto
        89 -17 136 -21 56 vhcurveto
        -180 15 -82 -190 -287 10 14 355 rlineto
        -60 107 138 -23 129 hhcurveto
        20 20 1 2 20 hvcurveto
        23 25 28 83 86 vvcurveto
        54 -11 54 -29 44 vhcurveto
        -150 -31 -93 -25 -210 -23 -39 320 rcurveline
        215 -59 136 -39 118 -11 rrcurveto
        66 50 39 113 106 vvcurveto
        92 -29 88 -66 38 vhcurveto
        -412 -94 -333 73 rlineto
        -83 -58 -80 -116 -89 vvcurveto
        243 -584 -158 -417 10 -71 33 -65 50 -60 rlinecurve
        return
      </CharString>
      <CharString index="3">
        rmoveto
        83 36 81 89 39 92 rrcurveto
        169 -36 -153 48 -37 callsubr
        -31 -101 -21 -46 -57 -142 18 -61 102 -78 97 -6 rrcurveto
        -468 hmoveto
        83 36 81 89 39 92 rrcurveto
        169 -36 -152 48 -123 hhcurveto
        -31 -101 -21 -46 -57 -142 18 -61 102 -78 97 -6 rrcurveto
        endchar
      </CharString>
      <CharString index="4">
        6 140 rmoveto
        38 -99 110 -59 112 -2 222 -3 31 236 26 225 85 -8 102 -6 68 -4 rrcurveto
        54 hlineto
        19 -87 -81 -272 48 -51 98 -31 103 1 rlinecurve
        71 1 73 16 60 37 6 102 2 94 -228 1136 -250 76 -254 63 -266 44 -83 -75 -42 -155 -3 -103 52 -20 85 -16 93 -13 -174 -875 11 callgsubr
        23 207 15 210 5 88 86 -8 rcurveline
        104 -475 rlineto
        return
      </CharString>
      <CharString index="5">
        97 55 rmoveto
        82 -13 180 -55 180 -7 107 44 85 68 78 76 24 70 13 96 -5 83 -77 97 -276 164 -92 49 9 186 rcurveline
        26 9 68 -93 126 -111 82 -34 rlinecurve
        116 120 58 143 -35 121 -161 54 rcurveline
        24 -59 -85 58 -59 hhcurveto
        -76 -123 -57 -37 -62 hvcurveto
        -45 -27 -133 -99 -59 vvcurveto
        -42 1 -210 21 -79 vhcurveto
        54 -70 173 -79 129 -48 44 -16 39 -13 27 -8 3 -37 -2 -56 -7 -38 -49 -24 rcurveline
        -109 80 -127 85 -141 4 -16 -34 -86 -103 100 -182 rrcurveto
        return
      </CharString>
      <CharString index="6">
        rmoveto
        -108 188 -124 94 131 102 178 98 42 vhcurveto
        -79 125 -150 -67 19 78 54 221 38 443 9 49 rlinecurve
        41 -47 -57 17 -61 hhcurveto
        -125 -135 -72 -73 -60 hvcurveto
        131 -521 rlineto
        -93 -262 -1 14 -37 vvcurveto
        return
      </CharString>
      <CharString index="7">
        22 70 52 193 -9 97 -116 170 -351 238 -108 62 38 210 rcurveline
        13 hlineto
        122 -120 174 -79 91 -19 55 27 139 184 -64 254 -320 -15 rcurveline
        -41 20 -116 67 -73 22 -150 -64 -121 -86 -96 -155 12 -115 8 -259 24 -91 67 -116 351 -174 127 -35 17 -58 -9 -68 -12 -60 -60 -25 rcurveline
        -129 88 -155 79 -162 12 -16 -39 -84 -136 121 -210 rrcurveto
        return
      </CharString>
      <CharString index="8">
        hintmask 00000000
        hintmask 11010100
        116 -26 callgsubr
        -22 callgsubr
        39 -28 35 -24 36 2 18 1 18 7 20 16 95 82 112 224 79 226 13 -9 rcurveline
        -2 -188 25 -299 -9 -195 rrcurveto
        hintmask 11100100
        -93 -205 26 22 -98 hvcurveto
        -37 callgsubr
        44 -58 182 6 callsubr
        hintmask 11010100
        15 14 1 2 14 hvcurveto
        176 60 156 147 43 166 -132 758 rcurveline
        115 201 10 86 16 77 rrcurveto
        -1 hlineto
        1 1 rlineto
        -41 callgsubr
        119 -23 callsubr
        -37 -124 -157 rrcurveto
        -19 -25 -7 -14 -16 vvcurveto
        -13 3 -15 8 -27 vhcurveto
        46 -157 20 -260 -158 -54 -6 -91 -28 vvcurveto
        304 206 rmoveto
        26 121 16 117 122 vvcurveto
        107 vlineto
        64 -15 66 -11 80 -20 rrcurveto
        -84 1 44 -3 -40 9 callgsubr
        hintmask 00001010
        return
      </CharString>
      <CharString index="9">
        107 66 rmoveto
        -57 51 115 -29 85 hhcurveto
        79 63 12 32 45 hvcurveto
        -24 136 -27 103 -33 97 75 146 61 132 65 143 29 -8 callgsubr
        -64 17 -36 47 -49 rlinecurve
        -52 49 78 -40 63 hhcurveto
        115 117 171 128 43 hvcurveto
        -89 121 -170 -89 rlineto
        91 222 71 334 171 vvcurveto
        106 -91 -131 36 -129 hhcurveto
        -48 -47 -3 -12 -38 hvcurveto
        -89 -212 -41 -220 -66 -219 -16 3 rcurveline
        73 626 rlineto
        28 -31 -52 9 -62 hhcurveto
        -108 -145 -39 -80 -47 hvcurveto
        -2 -1 -2 -3 vvcurveto
        -71 101 -498 50 -117 vhcurveto
        -26 -80 -16 -61 -28 -161 rrcurveto
        return
      </CharString>
      <CharString index="10">
        hintmask 00000000
        hintmask 11010100
        -29 callgsubr
        hintmask 11100100
        -49 callsubr
        39 -28 45 -25 36 2 18 1 18 8 20 16 96 82 161 307 55 141 10 -3 rcurveline
        -2 -188 22 -304 -9 -194 rrcurveto
        -93 -205 26 22 -98 hvcurveto
        hintmask 11010100
        -37 callgsubr
        44 -58 182 -101 -35 callsubr
        156 147 43 166 -138 793 rcurveline
        96 175 8 71 15 72 -5 -4 rcurveline
        2 6 1 5 5 vvcurveto
        -78 callsubr
        -97 -24 callsubr
        -230 -75 -73 -30 14 rcurveline
        26 121 12 95 7 122 9 160 0 166 -13 135 -89 41 -290 -25 -74 -186 155 -431 rcurveline
        hintmask 00001010
        return
      </CharString>
      <CharString index="11">
        137 69 rmoveto
        50 -58 107 -33 102 2 62 1 61 15 44 31 -11 131 -40 248 -40 95 268 -36 rcurveline
        13 -121 36 -292 159 -50 rrcurveto
        -14 43 41 -8 38 hhcurveto
        75 63 29 60 43 hvcurveto
        46 64 54 112 4 105 -114 102 rcurveline
        -46 -37 -46 -33 -45 -16 -58 57 -42 70 -33 65 58 49 52 54 42 62 69 227 30 266 -3 188 -120 102 -162 43 -76 -1 -58 -1 -51 -10 -21 -6 -268 -562 rcurveline
        -28 14 95 497 -146 99 -205 -62 -91 -124 rlinecurve
        -9 -39 84 -870 56 -114 -29 -80 -20 -61 -33 -160 rrcurveto
        353 603 rmoveto
        51 102 168 270 71 107 47 -8 rcurveline
        10 -90 -5 -188 -27 -172 rrcurveto
        return
      </CharString>
      <CharString index="12">
        rmoveto
        27 30 3 5 30 hvcurveto
        90 16 136 81 145 vvcurveto
        150 -108 93 -170 -28 -30 -2 -5 -30 vhcurveto
        -90 -16 -136 -80 -145 vvcurveto
        -151 107 -94 172 vhcurveto
        28 182 rmoveto
        -28 -29 6 12 -22 hvcurveto
        -9 13 -3 17 18 vvcurveto
        15 3 15 4 14 vhcurveto
        3 13 20 2 21 hhcurveto
        33 37 -5 -14 18 hvcurveto
        6 -11 3 -16 -15 vvcurveto
        -15 -3 -16 -3 -14 vhcurveto
        -6 -19 -21 -3 -21 hhcurveto
        endchar
      </CharString>
      <CharString index="13">
        -75 167 rcurveline
        -196 -73 -152 -67 -80 -12 23 196 35 460 -18 194 24 22 rcurveline
        100 -89 90 -55 91 -38 55 27 128 190 -54 254 -316 -22 rcurveline
        -62 32 -136 46 -61 12 -119 -44 -142 -125 -25 -94 rrcurveto
        -15 0 -66 6 -34 vhcurveto
        22 -116 17 -225 14 -217 11 -161 8 -157 5 -103 5 -33 16 -28 46 -36 rrcurveto
        return
      </CharString>
      <CharString index="14">
        167 -6 callgsubr
        -22 27 144 -125 88 hhcurveto
        157 244 224 86 47 hvcurveto
        -101 153 -112 -60 -158 -79 -48 -20 rlinecurve
        -19 16 37 175 5 270 -16 144 rlinecurve
        62 -84 70 -112 102 -60 51 15 165 180 -35 231 -186 48 rcurveline
        23 -50 -120 74 -60 hhcurveto
        -63 -122 -61 -31 -52 hvcurveto
        -52 -31 -127 -94 -57 vvcurveto
        -13 7 -20 9 -28 vhcurveto
        39 -114 21 -251 -185 vvcurveto
        -104 -38 -16 84 -72 vhcurveto
        return
      </CharString>
      <CharString index="15">
        84 -71 -84 37 -37 callsubr
        -77 -70 -14 -14 -21 hvcurveto
        -32 return
      </CharString>
      <CharString index="16">
        258 -20 rmoveto
        116 7 78 74 52 89 rrcurveto
        -78 98 137 -92 123 hhcurveto
        202 47 201 188 107 -15 103 -17 46 hvcurveto
        -184 24 -95 -289 -253 48 -13 1 105 1080 rlineto
        29 -48 -50 11 -63 hhcurveto
        -149 -132 -73 -57 -37 hvcurveto
        34 -201 0 -300 79 -461 rrcurveto
        -32 hlineto
        -34 -36 -4 -10 -27 hvcurveto
        -89 -124 -53 callsubr
        rlinecurve
        return
      </CharString>
      <CharString index="17">
        29 -48 -55 11 -63 hhcurveto
        -149 -132 -73 -57 -37 hvcurveto
        36 -210 42 -321 70 -212 -49 -143 -38 -48 callgsubr
        return
      </CharString>
      <CharString index="18">
        412 227 rmoveto
        -155 14 186 -93 141 hhcurveto
        131 151 210 94 21 hvcurveto
        -78 132 -220 -101 -9 270 60 561 rlineto
        -35 72 114 -26 59 hhcurveto
        132 90 9 306 -132 69 -348 -111 rcurveline
        -439 111 -95 -9 -118 -60 -71 -87 rlinecurve
        -59 -105 52 -218 34 -103 79 -34 75 6 79 27 41 281 rcurveline
        111 -28 60 -639 rlineto
        -2 hlineto
        -21 -125 -39 -111 10 -117 rrcurveto
        return
      </CharString>
      <CharString index="19">
        hintmask 00000000
        hintmask 01001000
        188 -17 rmoveto
        hintmask 01010000
        98 3 36 57 62 107 rrcurveto
        -70 68 168 -100 124 -16 callsubr
        46 62 16 96 90 vvcurveto
        82 -13 78 -17 45 vhcurveto
        -148 28 -100 -234 -184 31 340 436 rlineto
        -4 20 15 -3 14 hhcurveto
        hintmask 10001000
        19 17 5 13 20 hvcurveto
        11 30 5 36 37 vvcurveto
        114 -49 131 -76 53 vhcurveto
        -101 -4 -66 -94 -38 -57 rrcurveto
        61 -93 -209 68 -115 hhcurveto
        -119 -100 -79 -160 -136 80 -162 59 -62 hvcurveto
        166 36 rlineto
        216 vlineto
        187 -23 -185 -406 -62 53 -41 33 -42 12 rlinecurve
        -42 -14 -75 -38 -34 -44 rrcurveto
        hintmask 01001000
        -137 67 -234 86 -52 vhcurveto
        hintmask 00100100
        return
      </CharString>
      <CharString index="20">
        rmoveto
        165 4 171 145 43 163 -110 94 rcurveline
        -136 -134 -40 -8 -8 hhcurveto
        -56 -103 24 139 -66 hvcurveto
        -79 -13 -95 -60 -61 -99 33 -157 177 -98 163 2 rrcurveto
        endchar
      </CharString>
      <CharString index="21">
        rmoveto
        165 4 171 120 43 163 -110 94 rcurveline
        -101 -84 -95 -18 -27 hhcurveto
        -32 -103 -1 139 -66 hvcurveto
        -79 -13 -95 -60 -61 -99 33 -157 177 -73 163 2 rrcurveto
        endchar
      </CharString>
      <CharString index="22">
        rmoveto
        314 -12 273 6 70 6 45 88 14 103 -19 80 -651 -14 rcurveline
        -38 -65 -18 -98 10 -94 rrcurveto
        endchar
      </CharString>
      <CharString index="23">
        rmoveto
        140 119 rlineto
        -53 69 153 -87 78 hhcurveto
        142 126 199 109 24 hvcurveto
        -107 87 -134 -120 rlineto
        32 -74 -138 108 -88 hhcurveto
        -142 -135 -205 -109 -24 hvcurveto
        endchar
      </CharString>
      <CharString index="24">
        -101 callgsubr
        endchar
      </CharString>
      <CharString index="25">
        -86 callsubr
        -40 -27 callgsubr
        222 -12 callsubr
        -77 rcurveline
        return
      </CharString>
      <CharString index="26">
        30 -66 88 -99 103 -56 129 14 260 122 22 75 rrcurveto
        39 134 49 517 155 vvcurveto
        137 -5 32 -7 61 vhcurveto
        -96 108 -155 101 -114 54 -712 60 rcurveline
        -103 -71 -23 -132 -9 -120 183 -16 rcurveline
        return
      </CharString>
      <CharString index="27">
        rmoveto
        34 37 34 62 -4 63 -171 85 -88 54 -129 90 -107 -65 -63 -116 -10 -101 149 -79 233 -52 122 22 rrcurveto
        endchar
      </CharString>
      <CharString index="28">
        -106 -113 -46 -53 -25 hvcurveto
        -150 111 -647 41 -238 vhcurveto
        -4 -4 -388 994 -149 106 -211 46 -95 12 rlinecurve
        -135 -72 -24 -131 -120 vvcurveto
        50 -32 66 -15 57 -4 8 -879 rcurveline
        -111 9 rlineto
        return
      </CharString>
      <CharString index="29">
        -76 callgsubr
        -19 return
      </CharString>
      <CharString index="30">
        408 2 -21 27 -21 334 23 hstemhm
        20 1479 hintmask 01110000
        239 -13 rmoveto
        126 -7 167 1 99 3 68 67 20 157 -9 96 rrcurveto
        -1 hlineto
        -148 385 -9 149 -8 131 17 205 rlinecurve
        71 35 264 -91 22 -175 6 -121 -20 -232 rlinecurve
        -108 -192 6 -107 23 -106 33 -77 rlinecurve
        hintmask 10110000
        -64 99 176 -63 124 hhcurveto
        70 64 37 68 51 hvcurveto
        88 120 -31 177 -35 94 -138 28 rcurveline
        -90 -152 -228 -11 -3 16 91 78 85 89 77 100 rlinecurve
        38 135 19 160 140 8 callsubr
        -96 -410 113 -99 -10 callgsubr
        12 -127 50 -195 vhcurveto
        77 -97 90 -88 103 -83 -8 -14 rcurveline
        -220 26 -62 140 -150 -33 rlineto
        hintmask 01110000
        -85 -255 100 -157 173 -9 rrcurveto
        endchar
      </CharString>
      <CharString index="31">
        -2 -112 rmoveto
        -82 callgsubr
        return
      </CharString>
      <CharString index="32">
        6 -76 35 -46 118 -89 120 -22 rrcurveto
        122 134 128 56 8 hvcurveto
        17 197 -77 338 -21 92 -4 -2 rcurveline
        4 22 8 35 51 221 40 407 6 49 rlinecurve
        40 -46 -57 18 -59 hhcurveto
        -126 1 -136 -72 -61 -74 127 -453 rcurveline
        -33 -699 -56 8 return
      </CharString>
      <CharString index="33">
        rmoveto
        -12 1 -12 1 -13 vhcurveto
        44 -58 198 -61 -35 callsubr
        126 147 43 166 -161 602 rcurveline
        62 335 rlineto
        5 hlineto
        -14 19 35 -6 35 hhcurveto
        33 34 6 11 19 hvcurveto
        11 30 5 36 37 vvcurveto
        114 -50 127 -75 55 vhcurveto
        -101 -4 -81 -93 -38 -57 rrcurveto
        59 -90 -200 75 -111 hhcurveto
        -120 -100 -85 -160 -136 80 -162 59 -62 hvcurveto
        return
      </CharString>
      <CharString index="34">
        -216 -178 -2 529 77 3 95 6 61 5 rlinecurve
        21 57 59 132 -81 138 -222 -45 rcurveline
        11 281 -97 52 -160 -6 -47 -25 rlinecurve
        -61 -363 -112 -39 -3 -37 3 -86 20 -54 rlinecurve
        96 -6 50 -358 rlineto
        -57 -183 -8 -48 -25 vvcurveto
        return
      </CharString>
      <CharString index="35">
        130 -26 callgsubr
        1 -53 82 -28 50 -35 39 -28 36 -25 36 2 18 1 18 8 19 16 95 82 114 269 53 141 5 -2 rcurveline
        -6 -92 -5 -81 -8 -101 -8 -89 35 -25 25 -27 56 -59 79 -42 62 1 116 2 return
      </CharString>
      <CharString index="36">
        rmoveto
        119 179 89 218 50 189 rrcurveto
        70 -65 -100 31 -92 hhcurveto
        -37 -36 -5 -9 -31 hvcurveto
        -55 -621 rlineto
        return
      </CharString>
      <CharString index="37">
        -15 64 -10 65 73 vvcurveto
        61 7 50 16 54 vhcurveto
        50 24 119 -42 rlineto
        16 -65 9 -61 -71 vvcurveto
        -62 -7 -52 -12 -56 vhcurveto
        -45 -32 -53 12 -43 16 -32 22 rlinecurve
        return
      </CharString>
</ttFont>
